<svg viewBox="0 0 174 82" fill="none"
  xmlns="http://www.w3.org/2000/svg">
  <rect x="127" y="22.1769" width="7.87232" height="7.87232" rx="2" fill="#4F46E5"/>
  <rect x="136.622" y="22.1674" width="7.87231" height="7.87232" rx="2" fill="#4F46E5"/>
  <rect x="146.034" y="22.1674" width="7.87232" height="7.87232" rx="2" fill="#4F46E5"/>
  <rect x="155.72" y="22.0913" width="7.87231" height="7.87232" rx="2" fill="#4F46E5"/>
  <rect x="165.183" y="22.1769" width="7.87232" height="7.87232" rx="2" fill="#4F46E5"/>
  <rect x="155.732" y="12.5457" width="7.87231" height="7.87231" rx="2" fill="#4F46E5"/>
  <rect x="146.11" y="12.6217" width="7.87232" height="7.87231" rx="2" fill="#4F46E5"/>
  <rect x="136.698" y="12.6217" width="7.87231" height="7.87231" rx="2" fill="#4F46E5"/>
  <rect x="155.675" y="3" width="7.87232" height="7.87232" rx="2" fill="#4F46E5"/>
  <rect x="127" y="32" width="46" height="4" fill="#4F46E5"/>
  <path d="M11.232 33.216C13.248 33.216 14.784 32.832 15.84 32.064C16.896 31.296 17.424 30.144 17.424 28.608C17.424 27.68 17.232 26.896 16.848 26.256C16.464 25.584 15.952 25.008 15.312 24.528C14.672 24.016 13.952 23.584 13.152 23.232C12.352 22.848 11.536 22.496 10.704 22.176C9.744 21.792 8.816 21.36 7.92 20.88C7.056 20.4 6.272 19.84 5.568 19.2C4.896 18.56 4.352 17.808 3.936 16.944C3.552 16.08 3.36 15.056 3.36 13.872C3.36 11.28 4.176 9.264 5.808 7.824C7.44 6.352 9.712 5.616 12.624 5.616C13.424 5.616 14.208 5.68 14.976 5.808C15.776 5.904 16.512 6.032 17.184 6.192C17.856 6.352 18.448 6.544 18.96 6.768C19.504 6.992 19.936 7.216 20.256 7.44L19.008 10.752C18.368 10.368 17.488 9.984 16.368 9.6C15.248 9.216 14 9.024 12.624 9.024C11.184 9.024 9.936 9.392 8.88 10.128C7.824 10.832 7.296 11.904 7.296 13.344C7.296 14.176 7.44 14.88 7.728 15.456C8.048 16.032 8.464 16.544 8.976 16.992C9.52 17.408 10.144 17.792 10.848 18.144C11.552 18.496 12.32 18.848 13.152 19.2C14.368 19.712 15.472 20.224 16.464 20.736C17.488 21.248 18.352 21.856 19.056 22.56C19.792 23.264 20.352 24.096 20.736 25.056C21.152 26.016 21.36 27.184 21.36 28.56C21.36 31.152 20.48 33.152 18.72 34.56C16.992 35.936 14.496 36.624 11.232 36.624C10.176 36.624 9.184 36.544 8.256 36.384C7.328 36.256 6.496 36.08 5.76 35.856C5.056 35.632 4.432 35.408 3.888 35.184C3.344 34.96 2.928 34.752 2.64 34.56L3.84 31.296C4.48 31.648 5.424 32.064 6.672 32.544C7.92 32.992 9.44 33.216 11.232 33.216ZM36.72 36.624C34.96 36.624 33.456 36.368 32.208 35.856C30.992 35.344 30 34.624 29.232 33.696C28.464 32.768 27.904 31.632 27.552 30.288C27.2 28.944 27.024 27.44 27.024 25.776V6.288H30.96V25.344C30.96 26.848 31.088 28.112 31.344 29.136C31.632 30.128 32.016 30.928 32.496 31.536C33.008 32.144 33.616 32.576 34.32 32.832C35.024 33.088 35.824 33.216 36.72 33.216C37.616 33.216 38.416 33.088 39.12 32.832C39.824 32.576 40.416 32.144 40.896 31.536C41.408 30.928 41.792 30.128 42.048 29.136C42.336 28.112 42.48 26.848 42.48 25.344V6.288H46.416V25.776C46.416 27.44 46.24 28.944 45.888 30.288C45.536 31.632 44.976 32.768 44.208 33.696C43.44 34.624 42.432 35.344 41.184 35.856C39.968 36.368 38.48 36.624 36.72 36.624ZM60.72 6C62.48 6 64.016 6.224 65.328 6.672C66.672 7.12 67.776 7.76 68.64 8.592C69.536 9.392 70.192 10.352 70.608 11.472C71.056 12.592 71.28 13.84 71.28 15.216C71.28 18.32 70.368 20.72 68.544 22.416C66.72 24.08 63.984 24.912 60.336 24.912H56.88V36H52.944V6.72C53.52 6.592 54.144 6.48 54.816 6.384C55.52 6.288 56.208 6.208 56.88 6.144C57.584 6.08 58.256 6.048 58.896 6.048C59.568 6.016 60.176 6 60.72 6ZM61.008 9.408C60.176 9.408 59.376 9.424 58.608 9.456C57.84 9.456 57.264 9.488 56.88 9.552V21.552H60.144C62.544 21.552 64.32 21.072 65.472 20.112C66.656 19.152 67.248 17.568 67.248 15.36C67.248 11.392 65.168 9.408 61.008 9.408ZM78.528 36V6.288H95.184V9.648H82.464V18.768H93.6V22.128H82.464V32.64H96.24V36H78.528ZM119.568 15.36C119.568 17.184 119.088 18.8 118.128 20.208C117.168 21.584 115.872 22.656 114.24 23.424C114.72 24.192 115.248 25.072 115.824 26.064C116.432 27.024 117.04 28.064 117.648 29.184C118.256 30.272 118.848 31.408 119.424 32.592C120.032 33.744 120.592 34.88 121.104 36H116.88C115.92 33.696 114.864 31.488 113.712 29.376C112.592 27.264 111.504 25.552 110.448 24.24C110.256 24.272 109.968 24.288 109.584 24.288C109.232 24.288 108.992 24.288 108.864 24.288H105.504V36H101.52V6.72C102 6.592 102.544 6.48 103.152 6.384C103.792 6.288 104.432 6.224 105.072 6.192C105.744 6.128 106.4 6.08 107.04 6.048C107.68 6.016 108.256 6 108.768 6C112.352 6 115.04 6.784 116.832 8.352C118.656 9.92 119.568 12.256 119.568 15.36ZM109.104 9.408C108.368 9.408 107.648 9.424 106.944 9.456C106.272 9.456 105.792 9.488 105.504 9.552V21.024H108.048C109.2 21.024 110.224 20.944 111.12 20.784C112.048 20.624 112.832 20.336 113.472 19.92C114.144 19.472 114.656 18.88 115.008 18.144C115.36 17.376 115.536 16.384 115.536 15.168C115.536 14.016 115.36 13.072 115.008 12.336C114.656 11.6 114.192 11.024 113.616 10.608C113.04 10.16 112.352 9.856 111.552 9.696C110.784 9.504 109.968 9.408 109.104 9.408ZM22.08 75.752C20.96 76.392 19.76 76.856 18.48 77.144C17.232 77.464 15.888 77.624 14.448 77.624C12.688 77.624 11.056 77.32 9.552 76.712C8.08 76.072 6.8 75.128 5.712 73.88C4.624 72.6 3.76 70.984 3.12 69.032C2.512 67.08 2.208 64.776 2.208 62.12C2.208 59.592 2.528 57.368 3.168 55.448C3.84 53.528 4.736 51.912 5.856 50.6C6.976 49.288 8.288 48.296 9.792 47.624C11.296 46.952 12.896 46.616 14.592 46.616C15.776 46.616 16.976 46.776 18.192 47.096C19.44 47.416 20.656 47.944 21.84 48.68L20.688 51.944C18.576 50.728 16.592 50.12 14.736 50.12C13.424 50.12 12.24 50.408 11.184 50.984C10.16 51.528 9.28 52.328 8.544 53.384C7.808 54.44 7.232 55.704 6.816 57.176C6.432 58.648 6.24 60.296 6.24 62.12C6.24 64.168 6.448 65.944 6.864 67.448C7.312 68.952 7.92 70.2 8.688 71.192C9.456 72.184 10.368 72.92 11.424 73.4C12.512 73.88 13.68 74.12 14.928 74.12C15.856 74.12 16.832 74.008 17.856 73.784C18.88 73.528 19.936 73.096 21.024 72.488L22.08 75.752ZM26.112 62.12C26.112 59.464 26.368 57.16 26.88 55.208C27.392 53.256 28.112 51.656 29.04 50.408C29.968 49.128 31.072 48.184 32.352 47.576C33.664 46.936 35.12 46.616 36.72 46.616C38.288 46.616 39.728 46.936 41.04 47.576C42.352 48.184 43.472 49.128 44.4 50.408C45.328 51.656 46.048 53.256 46.56 55.208C47.104 57.16 47.376 59.464 47.376 62.12C47.376 64.776 47.104 67.08 46.56 69.032C46.048 70.984 45.328 72.6 44.4 73.88C43.472 75.16 42.352 76.104 41.04 76.712C39.728 77.32 38.288 77.624 36.72 77.624C35.12 77.624 33.664 77.32 32.352 76.712C31.072 76.104 29.968 75.16 29.04 73.88C28.112 72.6 27.392 70.984 26.88 69.032C26.368 67.08 26.112 64.776 26.112 62.12ZM30.144 62.12C30.144 66.024 30.672 69.016 31.728 71.096C32.784 73.176 34.416 74.216 36.624 74.216C38.864 74.216 40.544 73.176 41.664 71.096C42.784 69.016 43.344 66.024 43.344 62.12C43.344 58.216 42.784 55.224 41.664 53.144C40.544 51.064 38.864 50.024 36.624 50.024C34.416 50.024 32.784 51.064 31.728 53.144C30.672 55.224 30.144 58.216 30.144 62.12ZM61.488 62.072L66.096 47.288H69.792C70.432 51.96 70.88 56.744 71.136 61.64C71.424 66.536 71.68 71.656 71.904 77H68.064C68.032 75.272 68 73.4 67.968 71.384C67.936 69.368 67.888 67.288 67.824 65.144C67.792 63 67.744 60.824 67.68 58.616C67.648 56.408 67.6 54.264 67.536 52.184L63.216 65.72H59.76L55.344 52.184C55.312 54.264 55.264 56.408 55.2 58.616C55.168 60.792 55.12 62.968 55.056 65.144C55.024 67.288 54.976 69.368 54.912 71.384C54.88 73.4 54.848 75.272 54.816 77H50.976C51.072 74.568 51.184 72.072 51.312 69.512C51.44 66.952 51.584 64.408 51.744 61.88C51.936 59.352 52.144 56.856 52.368 54.392C52.624 51.928 52.896 49.56 53.184 47.288H56.832L61.488 62.072ZM85.44 47C87.2 47 88.736 47.224 90.048 47.672C91.392 48.12 92.496 48.76 93.36 49.592C94.256 50.392 94.912 51.352 95.328 52.472C95.776 53.592 96 54.84 96 56.216C96 59.32 95.088 61.72 93.264 63.416C91.44 65.08 88.704 65.912 85.056 65.912H81.6V77H77.664V47.72C78.24 47.592 78.864 47.48 79.536 47.384C80.24 47.288 80.928 47.208 81.6 47.144C82.304 47.08 82.976 47.048 83.616 47.048C84.288 47.016 84.896 47 85.44 47ZM85.728 50.408C84.896 50.408 84.096 50.424 83.328 50.456C82.56 50.456 81.984 50.488 81.6 50.552V62.552H84.864C87.264 62.552 89.04 62.072 90.192 61.112C91.376 60.152 91.968 58.568 91.968 56.36C91.968 52.392 89.888 50.408 85.728 50.408ZM100.272 62.12C100.272 59.464 100.528 57.16 101.04 55.208C101.552 53.256 102.272 51.656 103.2 50.408C104.128 49.128 105.232 48.184 106.512 47.576C107.824 46.936 109.28 46.616 110.88 46.616C112.448 46.616 113.888 46.936 115.2 47.576C116.512 48.184 117.632 49.128 118.56 50.408C119.488 51.656 120.208 53.256 120.72 55.208C121.264 57.16 121.536 59.464 121.536 62.12C121.536 64.776 121.264 67.08 120.72 69.032C120.208 70.984 119.488 72.6 118.56 73.88C117.632 75.16 116.512 76.104 115.2 76.712C113.888 77.32 112.448 77.624 110.88 77.624C109.28 77.624 107.824 77.32 106.512 76.712C105.232 76.104 104.128 75.16 103.2 73.88C102.272 72.6 101.552 70.984 101.04 69.032C100.528 67.08 100.272 64.776 100.272 62.12ZM104.304 62.12C104.304 66.024 104.832 69.016 105.888 71.096C106.944 73.176 108.576 74.216 110.784 74.216C113.024 74.216 114.704 73.176 115.824 71.096C116.944 69.016 117.504 66.024 117.504 62.12C117.504 58.216 116.944 55.224 115.824 53.144C114.704 51.064 113.024 50.024 110.784 50.024C108.576 50.024 106.944 51.064 105.888 53.144C104.832 55.224 104.304 58.216 104.304 62.12ZM134.832 74.216C136.848 74.216 138.384 73.832 139.44 73.064C140.496 72.296 141.024 71.144 141.024 69.608C141.024 68.68 140.832 67.896 140.448 67.256C140.064 66.584 139.552 66.008 138.912 65.528C138.272 65.016 137.552 64.584 136.752 64.232C135.952 63.848 135.136 63.496 134.304 63.176C133.344 62.792 132.416 62.36 131.52 61.88C130.656 61.4 129.872 60.84 129.168 60.2C128.496 59.56 127.952 58.808 127.536 57.944C127.152 57.08 126.96 56.056 126.96 54.872C126.96 52.28 127.776 50.264 129.408 48.824C131.04 47.352 133.312 46.616 136.224 46.616C137.024 46.616 137.808 46.68 138.576 46.808C139.376 46.904 140.112 47.032 140.784 47.192C141.456 47.352 142.048 47.544 142.56 47.768C143.104 47.992 143.536 48.216 143.856 48.44L142.608 51.752C141.968 51.368 141.088 50.984 139.968 50.6C138.848 50.216 137.6 50.024 136.224 50.024C134.784 50.024 133.536 50.392 132.48 51.128C131.424 51.832 130.896 52.904 130.896 54.344C130.896 55.176 131.04 55.88 131.328 56.456C131.648 57.032 132.064 57.544 132.576 57.992C133.12 58.408 133.744 58.792 134.448 59.144C135.152 59.496 135.92 59.848 136.752 60.2C137.968 60.712 139.072 61.224 140.064 61.736C141.088 62.248 141.952 62.856 142.656 63.56C143.392 64.264 143.952 65.096 144.336 66.056C144.752 67.016 144.96 68.184 144.96 69.56C144.96 72.152 144.08 74.152 142.32 75.56C140.592 76.936 138.096 77.624 134.832 77.624C133.776 77.624 132.784 77.544 131.856 77.384C130.928 77.256 130.096 77.08 129.36 76.856C128.656 76.632 128.032 76.408 127.488 76.184C126.944 75.96 126.528 75.752 126.24 75.56L127.44 72.296C128.08 72.648 129.024 73.064 130.272 73.544C131.52 73.992 133.04 74.216 134.832 74.216ZM152.688 77V47.288H169.344V50.648H156.624V59.768H167.76V63.128H156.624V73.64H170.4V77H152.688Z" fill="black"/>
  <path d="M11.232 33.216C13.248 33.216 14.784 32.832 15.84 32.064C16.896 31.296 17.424 30.144 17.424 28.608C17.424 27.68 17.232 26.896 16.848 26.256C16.464 25.584 15.952 25.008 15.312 24.528C14.672 24.016 13.952 23.584 13.152 23.232C12.352 22.848 11.536 22.496 10.704 22.176C9.744 21.792 8.816 21.36 7.92 20.88C7.056 20.4 6.272 19.84 5.568 19.2C4.896 18.56 4.352 17.808 3.936 16.944C3.552 16.08 3.36 15.056 3.36 13.872C3.36 11.28 4.176 9.264 5.808 7.824C7.44 6.352 9.712 5.616 12.624 5.616C13.424 5.616 14.208 5.68 14.976 5.808C15.776 5.904 16.512 6.032 17.184 6.192C17.856 6.352 18.448 6.544 18.96 6.768C19.504 6.992 19.936 7.216 20.256 7.44L19.008 10.752C18.368 10.368 17.488 9.984 16.368 9.6C15.248 9.216 14 9.024 12.624 9.024C11.184 9.024 9.936 9.392 8.88 10.128C7.824 10.832 7.296 11.904 7.296 13.344C7.296 14.176 7.44 14.88 7.728 15.456C8.048 16.032 8.464 16.544 8.976 16.992C9.52 17.408 10.144 17.792 10.848 18.144C11.552 18.496 12.32 18.848 13.152 19.2C14.368 19.712 15.472 20.224 16.464 20.736C17.488 21.248 18.352 21.856 19.056 22.56C19.792 23.264 20.352 24.096 20.736 25.056C21.152 26.016 21.36 27.184 21.36 28.56C21.36 31.152 20.48 33.152 18.72 34.56C16.992 35.936 14.496 36.624 11.232 36.624C10.176 36.624 9.184 36.544 8.256 36.384C7.328 36.256 6.496 36.08 5.76 35.856C5.056 35.632 4.432 35.408 3.888 35.184C3.344 34.96 2.928 34.752 2.64 34.56L3.84 31.296C4.48 31.648 5.424 32.064 6.672 32.544C7.92 32.992 9.44 33.216 11.232 33.216ZM36.72 36.624C34.96 36.624 33.456 36.368 32.208 35.856C30.992 35.344 30 34.624 29.232 33.696C28.464 32.768 27.904 31.632 27.552 30.288C27.2 28.944 27.024 27.44 27.024 25.776V6.288H30.96V25.344C30.96 26.848 31.088 28.112 31.344 29.136C31.632 30.128 32.016 30.928 32.496 31.536C33.008 32.144 33.616 32.576 34.32 32.832C35.024 33.088 35.824 33.216 36.72 33.216C37.616 33.216 38.416 33.088 39.12 32.832C39.824 32.576 40.416 32.144 40.896 31.536C41.408 30.928 41.792 30.128 42.048 29.136C42.336 28.112 42.48 26.848 42.48 25.344V6.288H46.416V25.776C46.416 27.44 46.24 28.944 45.888 30.288C45.536 31.632 44.976 32.768 44.208 33.696C43.44 34.624 42.432 35.344 41.184 35.856C39.968 36.368 38.48 36.624 36.72 36.624ZM60.72 6C62.48 6 64.016 6.224 65.328 6.672C66.672 7.12 67.776 7.76 68.64 8.592C69.536 9.392 70.192 10.352 70.608 11.472C71.056 12.592 71.28 13.84 71.28 15.216C71.28 18.32 70.368 20.72 68.544 22.416C66.72 24.08 63.984 24.912 60.336 24.912H56.88V36H52.944V6.72C53.52 6.592 54.144 6.48 54.816 6.384C55.52 6.288 56.208 6.208 56.88 6.144C57.584 6.08 58.256 6.048 58.896 6.048C59.568 6.016 60.176 6 60.72 6ZM61.008 9.408C60.176 9.408 59.376 9.424 58.608 9.456C57.84 9.456 57.264 9.488 56.88 9.552V21.552H60.144C62.544 21.552 64.32 21.072 65.472 20.112C66.656 19.152 67.248 17.568 67.248 15.36C67.248 11.392 65.168 9.408 61.008 9.408ZM78.528 36V6.288H95.184V9.648H82.464V18.768H93.6V22.128H82.464V32.64H96.24V36H78.528ZM119.568 15.36C119.568 17.184 119.088 18.8 118.128 20.208C117.168 21.584 115.872 22.656 114.24 23.424C114.72 24.192 115.248 25.072 115.824 26.064C116.432 27.024 117.04 28.064 117.648 29.184C118.256 30.272 118.848 31.408 119.424 32.592C120.032 33.744 120.592 34.88 121.104 36H116.88C115.92 33.696 114.864 31.488 113.712 29.376C112.592 27.264 111.504 25.552 110.448 24.24C110.256 24.272 109.968 24.288 109.584 24.288C109.232 24.288 108.992 24.288 108.864 24.288H105.504V36H101.52V6.72C102 6.592 102.544 6.48 103.152 6.384C103.792 6.288 104.432 6.224 105.072 6.192C105.744 6.128 106.4 6.08 107.04 6.048C107.68 6.016 108.256 6 108.768 6C112.352 6 115.04 6.784 116.832 8.352C118.656 9.92 119.568 12.256 119.568 15.36ZM109.104 9.408C108.368 9.408 107.648 9.424 106.944 9.456C106.272 9.456 105.792 9.488 105.504 9.552V21.024H108.048C109.2 21.024 110.224 20.944 111.12 20.784C112.048 20.624 112.832 20.336 113.472 19.92C114.144 19.472 114.656 18.88 115.008 18.144C115.36 17.376 115.536 16.384 115.536 15.168C115.536 14.016 115.36 13.072 115.008 12.336C114.656 11.6 114.192 11.024 113.616 10.608C113.04 10.16 112.352 9.856 111.552 9.696C110.784 9.504 109.968 9.408 109.104 9.408ZM22.08 75.752C20.96 76.392 19.76 76.856 18.48 77.144C17.232 77.464 15.888 77.624 14.448 77.624C12.688 77.624 11.056 77.32 9.552 76.712C8.08 76.072 6.8 75.128 5.712 73.88C4.624 72.6 3.76 70.984 3.12 69.032C2.512 67.08 2.208 64.776 2.208 62.12C2.208 59.592 2.528 57.368 3.168 55.448C3.84 53.528 4.736 51.912 5.856 50.6C6.976 49.288 8.288 48.296 9.792 47.624C11.296 46.952 12.896 46.616 14.592 46.616C15.776 46.616 16.976 46.776 18.192 47.096C19.44 47.416 20.656 47.944 21.84 48.68L20.688 51.944C18.576 50.728 16.592 50.12 14.736 50.12C13.424 50.12 12.24 50.408 11.184 50.984C10.16 51.528 9.28 52.328 8.544 53.384C7.808 54.44 7.232 55.704 6.816 57.176C6.432 58.648 6.24 60.296 6.24 62.12C6.24 64.168 6.448 65.944 6.864 67.448C7.312 68.952 7.92 70.2 8.688 71.192C9.456 72.184 10.368 72.92 11.424 73.4C12.512 73.88 13.68 74.12 14.928 74.12C15.856 74.12 16.832 74.008 17.856 73.784C18.88 73.528 19.936 73.096 21.024 72.488L22.08 75.752ZM26.112 62.12C26.112 59.464 26.368 57.16 26.88 55.208C27.392 53.256 28.112 51.656 29.04 50.408C29.968 49.128 31.072 48.184 32.352 47.576C33.664 46.936 35.12 46.616 36.72 46.616C38.288 46.616 39.728 46.936 41.04 47.576C42.352 48.184 43.472 49.128 44.4 50.408C45.328 51.656 46.048 53.256 46.56 55.208C47.104 57.16 47.376 59.464 47.376 62.12C47.376 64.776 47.104 67.08 46.56 69.032C46.048 70.984 45.328 72.6 44.4 73.88C43.472 75.16 42.352 76.104 41.04 76.712C39.728 77.32 38.288 77.624 36.72 77.624C35.12 77.624 33.664 77.32 32.352 76.712C31.072 76.104 29.968 75.16 29.04 73.88C28.112 72.6 27.392 70.984 26.88 69.032C26.368 67.08 26.112 64.776 26.112 62.12ZM30.144 62.12C30.144 66.024 30.672 69.016 31.728 71.096C32.784 73.176 34.416 74.216 36.624 74.216C38.864 74.216 40.544 73.176 41.664 71.096C42.784 69.016 43.344 66.024 43.344 62.12C43.344 58.216 42.784 55.224 41.664 53.144C40.544 51.064 38.864 50.024 36.624 50.024C34.416 50.024 32.784 51.064 31.728 53.144C30.672 55.224 30.144 58.216 30.144 62.12ZM61.488 62.072L66.096 47.288H69.792C70.432 51.96 70.88 56.744 71.136 61.64C71.424 66.536 71.68 71.656 71.904 77H68.064C68.032 75.272 68 73.4 67.968 71.384C67.936 69.368 67.888 67.288 67.824 65.144C67.792 63 67.744 60.824 67.68 58.616C67.648 56.408 67.6 54.264 67.536 52.184L63.216 65.72H59.76L55.344 52.184C55.312 54.264 55.264 56.408 55.2 58.616C55.168 60.792 55.12 62.968 55.056 65.144C55.024 67.288 54.976 69.368 54.912 71.384C54.88 73.4 54.848 75.272 54.816 77H50.976C51.072 74.568 51.184 72.072 51.312 69.512C51.44 66.952 51.584 64.408 51.744 61.88C51.936 59.352 52.144 56.856 52.368 54.392C52.624 51.928 52.896 49.56 53.184 47.288H56.832L61.488 62.072ZM85.44 47C87.2 47 88.736 47.224 90.048 47.672C91.392 48.12 92.496 48.76 93.36 49.592C94.256 50.392 94.912 51.352 95.328 52.472C95.776 53.592 96 54.84 96 56.216C96 59.32 95.088 61.72 93.264 63.416C91.44 65.08 88.704 65.912 85.056 65.912H81.6V77H77.664V47.72C78.24 47.592 78.864 47.48 79.536 47.384C80.24 47.288 80.928 47.208 81.6 47.144C82.304 47.08 82.976 47.048 83.616 47.048C84.288 47.016 84.896 47 85.44 47ZM85.728 50.408C84.896 50.408 84.096 50.424 83.328 50.456C82.56 50.456 81.984 50.488 81.6 50.552V62.552H84.864C87.264 62.552 89.04 62.072 90.192 61.112C91.376 60.152 91.968 58.568 91.968 56.36C91.968 52.392 89.888 50.408 85.728 50.408ZM100.272 62.12C100.272 59.464 100.528 57.16 101.04 55.208C101.552 53.256 102.272 51.656 103.2 50.408C104.128 49.128 105.232 48.184 106.512 47.576C107.824 46.936 109.28 46.616 110.88 46.616C112.448 46.616 113.888 46.936 115.2 47.576C116.512 48.184 117.632 49.128 118.56 50.408C119.488 51.656 120.208 53.256 120.72 55.208C121.264 57.16 121.536 59.464 121.536 62.12C121.536 64.776 121.264 67.08 120.72 69.032C120.208 70.984 119.488 72.6 118.56 73.88C117.632 75.16 116.512 76.104 115.2 76.712C113.888 77.32 112.448 77.624 110.88 77.624C109.28 77.624 107.824 77.32 106.512 76.712C105.232 76.104 104.128 75.16 103.2 73.88C102.272 72.6 101.552 70.984 101.04 69.032C100.528 67.08 100.272 64.776 100.272 62.12ZM104.304 62.12C104.304 66.024 104.832 69.016 105.888 71.096C106.944 73.176 108.576 74.216 110.784 74.216C113.024 74.216 114.704 73.176 115.824 71.096C116.944 69.016 117.504 66.024 117.504 62.12C117.504 58.216 116.944 55.224 115.824 53.144C114.704 51.064 113.024 50.024 110.784 50.024C108.576 50.024 106.944 51.064 105.888 53.144C104.832 55.224 104.304 58.216 104.304 62.12ZM134.832 74.216C136.848 74.216 138.384 73.832 139.44 73.064C140.496 72.296 141.024 71.144 141.024 69.608C141.024 68.68 140.832 67.896 140.448 67.256C140.064 66.584 139.552 66.008 138.912 65.528C138.272 65.016 137.552 64.584 136.752 64.232C135.952 63.848 135.136 63.496 134.304 63.176C133.344 62.792 132.416 62.36 131.52 61.88C130.656 61.4 129.872 60.84 129.168 60.2C128.496 59.56 127.952 58.808 127.536 57.944C127.152 57.08 126.96 56.056 126.96 54.872C126.96 52.28 127.776 50.264 129.408 48.824C131.04 47.352 133.312 46.616 136.224 46.616C137.024 46.616 137.808 46.68 138.576 46.808C139.376 46.904 140.112 47.032 140.784 47.192C141.456 47.352 142.048 47.544 142.56 47.768C143.104 47.992 143.536 48.216 143.856 48.44L142.608 51.752C141.968 51.368 141.088 50.984 139.968 50.6C138.848 50.216 137.6 50.024 136.224 50.024C134.784 50.024 133.536 50.392 132.48 51.128C131.424 51.832 130.896 52.904 130.896 54.344C130.896 55.176 131.04 55.88 131.328 56.456C131.648 57.032 132.064 57.544 132.576 57.992C133.12 58.408 133.744 58.792 134.448 59.144C135.152 59.496 135.92 59.848 136.752 60.2C137.968 60.712 139.072 61.224 140.064 61.736C141.088 62.248 141.952 62.856 142.656 63.56C143.392 64.264 143.952 65.096 144.336 66.056C144.752 67.016 144.96 68.184 144.96 69.56C144.96 72.152 144.08 74.152 142.32 75.56C140.592 76.936 138.096 77.624 134.832 77.624C133.776 77.624 132.784 77.544 131.856 77.384C130.928 77.256 130.096 77.08 129.36 76.856C128.656 76.632 128.032 76.408 127.488 76.184C126.944 75.96 126.528 75.752 126.24 75.56L127.44 72.296C128.08 72.648 129.024 73.064 130.272 73.544C131.52 73.992 133.04 74.216 134.832 74.216ZM152.688 77V47.288H169.344V50.648H156.624V59.768H167.76V63.128H156.624V73.64H170.4V77H152.688Z" fill="#4F46E5" fill-opacity="0.34"/>
</svg>
