<svg viewBox="0 0 466 92" fill="none"
  xmlns="http://www.w3.org/2000/svg">
  <path fill-rule="evenodd" clip-rule="evenodd" d="M13 0C5.8203 0 0 5.8203 0 13V71C0 78.1797 5.8203 84 13 84H71C78.1797 84 84 78.1797 84 71V13C84 5.8203 78.1797 0 71 0H13ZM14 4C8.47715 4 4 8.47715 4 14V70C4 75.5228 8.47715 80 14 80H70C75.5228 80 80 75.5228 80 70V14C80 8.47715 75.5228 4 70 4H14Z" fill="#4F46E5"/>
  <rect x="12" y="12" width="80" height="80" rx="10" fill="#4F46E5"/>
  <rect x="23" y="59" width="10.1538" height="10.1538" rx="3" fill="white"/>
  <rect x="35" y="59" width="10.1538" height="10.1538" rx="3" fill="white"/>
  <rect x="47" y="59" width="10.1538" height="10.1538" rx="3" fill="white"/>
  <rect x="59" y="59" width="10.1538" height="10.1538" rx="3" fill="white"/>
  <rect x="71" y="59" width="10.1538" height="10.1538" rx="3" fill="white"/>
  <rect x="59" y="47" width="10.1538" height="10.1538" rx="3" fill="white"/>
  <rect x="47" y="47" width="10.1538" height="10.1538" rx="3" fill="white"/>
  <rect x="35" y="47" width="10.1538" height="10.1538" rx="3" fill="white"/>
  <rect x="59" y="35" width="10.1538" height="10.1538" rx="3" fill="white"/>
  <path d="M133.296 59.024C133.296 52.64 128.592 50.624 123.744 49.28C117.168 47.408 115.008 45.824 115.008 42.752C115.008 39.104 118.272 37.376 122.064 37.376C124.896 37.376 127.728 38.288 130.128 40.448L132.24 38.192C129.504 35.888 126.432 34.544 122.064 34.544C115.92 34.544 111.936 38.096 111.936 42.752C111.936 48.032 116.352 50.288 122.544 52.064C128.544 53.792 130.128 55.52 130.128 58.928C130.128 63.584 126.048 65.696 121.824 65.696C117.648 65.696 114.816 64.256 112.56 62.096L110.544 64.448C113.328 67.088 117.264 68.48 121.68 68.48C129.12 68.48 133.296 64.544 133.296 59.024ZM161.693 35.024H158.573V58.496C158.573 63.248 155.597 65.552 151.133 65.552C146.717 65.552 143.741 63.248 143.741 58.496V35.024H140.669V57.44C140.669 63.968 144.749 68.48 151.133 68.48C157.325 68.48 161.693 64.112 161.693 57.44V35.024ZM192.01 44.96C192.01 38.144 187.259 35.024 179.674 35.024H171.898V68H174.923V55.376H179.387C186.683 55.376 192.01 52.688 192.01 44.96ZM188.651 45.008C188.651 51.2 184.907 52.736 180.011 52.736H174.923V37.616H180.347C184.955 37.616 188.651 39.44 188.651 45.008ZM203.896 37.76H218.344L218.728 35.024H200.824V68H219.304V65.312H203.896V52.64H216.376V49.856H203.896V37.76ZM248.565 44.048C248.565 38.144 244.389 35.024 236.517 35.024H228.645V68H231.669V53.408H236.805L246.405 68H250.245L240.069 53.168C244.869 52.16 248.565 49.04 248.565 44.048ZM245.205 44.048C245.205 48.944 242.229 50.768 237.045 50.768H231.669V37.664H237.141C242.661 37.664 245.205 39.488 245.205 44.048ZM269.09 34.544C261.794 34.544 255.362 40.352 255.362 51.488C255.362 62.528 261.602 68.48 269.33 68.48C273.938 68.48 276.962 66.944 278.834 65.12L277.106 62.96C275.378 64.352 273.074 65.648 269.282 65.648C263.33 65.648 258.578 61.904 258.578 51.488C258.578 40.832 263.666 37.376 269.426 37.376C271.922 37.376 274.274 37.952 276.482 39.824L278.354 37.664C275.762 35.648 273.266 34.544 269.09 34.544ZM306.896 51.536C306.896 41.504 302.912 34.544 295.088 34.544C287.264 34.544 283.28 41.744 283.28 51.632C283.28 61.664 287.264 68.48 295.088 68.48C302.912 68.48 306.896 61.424 306.896 51.536ZM303.68 51.536C303.68 60.56 301.184 65.648 295.088 65.648C289.136 65.648 286.496 60.608 286.496 51.632C286.496 42.608 288.992 37.376 295.088 37.376C301.184 37.376 303.68 42.56 303.68 51.536ZM334.765 35.024H329.581L323.965 57.968L318.109 35.024H312.973L311.101 68H314.173L315.277 49.76C315.517 45.968 315.517 39.056 315.469 37.952L322.045 62H325.693L331.789 37.952C331.885 38.768 331.981 45.44 332.269 49.808L333.469 68H336.637L334.765 35.024ZM364.698 44.96C364.698 38.144 359.946 35.024 352.362 35.024H344.586V68H347.61V55.376H352.074C359.37 55.376 364.698 52.688 364.698 44.96ZM361.338 45.008C361.338 51.2 357.594 52.736 352.698 52.736H347.61V37.616H353.034C357.642 37.616 361.338 39.44 361.338 45.008ZM393.239 51.536C393.239 41.504 389.255 34.544 381.431 34.544C373.607 34.544 369.623 41.744 369.623 51.632C369.623 61.664 373.607 68.48 381.431 68.48C389.255 68.48 393.239 61.424 393.239 51.536ZM390.023 51.536C390.023 60.56 387.527 65.648 381.431 65.648C375.479 65.648 372.839 60.608 372.839 51.632C372.839 42.608 375.335 37.376 381.431 37.376C387.527 37.376 390.023 42.56 390.023 51.536ZM421.109 59.024C421.109 52.64 416.405 50.624 411.557 49.28C404.981 47.408 402.821 45.824 402.821 42.752C402.821 39.104 406.085 37.376 409.877 37.376C412.709 37.376 415.541 38.288 417.941 40.448L420.052 38.192C417.317 35.888 414.245 34.544 409.877 34.544C403.733 34.544 399.749 38.096 399.749 42.752C399.749 48.032 404.165 50.288 410.357 52.064C416.357 53.792 417.941 55.52 417.941 58.928C417.941 63.584 413.861 65.696 409.637 65.696C405.461 65.696 402.629 64.256 400.373 62.096L398.357 64.448C401.141 67.088 405.077 68.48 409.493 68.48C416.933 68.48 421.109 64.544 421.109 59.024ZM434.146 37.76H448.594L448.978 35.024H431.074V68H449.554V65.312H434.146V52.64H446.626V49.856H434.146V37.76Z" fill="black"/>
</svg>
