<svg viewBox="0 0 368 92" fill="none"
  xmlns="http://www.w3.org/2000/svg">
  <path fill-rule="evenodd" clip-rule="evenodd" d="M13 0C5.8203 0 0 5.8203 0 13V71C0 78.1797 5.8203 84 13 84H71C78.1797 84 84 78.1797 84 71V13C84 5.8203 78.1797 0 71 0H13ZM14 4C8.47715 4 4 8.47715 4 14V70C4 75.5228 8.47715 80 14 80H70C75.5228 80 80 75.5228 80 70V14C80 8.47715 75.5228 4 70 4H14Z" fill="black"/>
  <rect x="12" y="12" width="80" height="80" rx="10" fill="black"/>
  <rect x="23" y="59" width="10.1538" height="10.1538" rx="3" fill="white"/>
  <rect x="35" y="59" width="10.1538" height="10.1538" rx="3" fill="white"/>
  <rect x="47" y="59" width="10.1538" height="10.1538" rx="3" fill="white"/>
  <rect x="59" y="59" width="10.1538" height="10.1538" rx="3" fill="white"/>
  <rect x="71" y="59" width="10.1538" height="10.1538" rx="3" fill="white"/>
  <rect x="59" y="47" width="10.1538" height="10.1538" rx="3" fill="white"/>
  <rect x="47" y="47" width="10.1538" height="10.1538" rx="3" fill="white"/>
  <rect x="35" y="47" width="10.1538" height="10.1538" rx="3" fill="white"/>
  <rect x="59" y="35" width="10.1538" height="10.1538" rx="3" fill="white"/>
  <path d="M126.972 57.268C126.972 52.48 123.444 50.968 119.808 49.96C114.876 48.556 113.256 47.368 113.256 45.064C113.256 42.328 115.704 41.032 118.548 41.032C120.672 41.032 122.796 41.716 124.596 43.336L126.18 41.644C124.128 39.916 121.824 38.908 118.548 38.908C113.94 38.908 110.952 41.572 110.952 45.064C110.952 49.024 114.264 50.716 118.908 52.048C123.408 53.344 124.596 54.64 124.596 57.196C124.596 60.688 121.536 62.272 118.368 62.272C115.236 62.272 113.112 61.192 111.42 59.572L109.908 61.336C111.996 63.316 114.948 64.36 118.26 64.36C123.84 64.36 126.972 61.408 126.972 57.268ZM148.27 39.268H145.93V56.872C145.93 60.436 143.698 62.164 140.35 62.164C137.038 62.164 134.806 60.436 134.806 56.872V39.268H132.502V56.08C132.502 60.976 135.562 64.36 140.35 64.36C144.994 64.36 148.27 61.084 148.27 56.08V39.268ZM171.008 46.72C171.008 41.608 167.444 39.268 161.756 39.268H155.924V64H158.192V54.532H161.54C167.012 54.532 171.008 52.516 171.008 46.72ZM168.488 46.756C168.488 51.4 165.68 52.552 162.008 52.552H158.192V41.212H162.26C165.716 41.212 168.488 42.58 168.488 46.756ZM179.922 41.32H190.758L191.046 39.268H177.618V64H191.478V61.984H179.922V52.48H189.282V50.392H179.922V41.32ZM213.424 46.036C213.424 41.608 210.292 39.268 204.388 39.268H198.484V64H200.752V53.056H204.604L211.804 64H214.684L207.052 52.876C210.652 52.12 213.424 49.78 213.424 46.036ZM210.904 46.036C210.904 49.708 208.672 51.076 204.784 51.076H200.752V41.248H204.856C208.996 41.248 210.904 42.616 210.904 46.036ZM228.818 38.908C223.346 38.908 218.522 43.264 218.522 51.616C218.522 59.896 223.202 64.36 228.998 64.36C232.454 64.36 234.722 63.208 236.126 61.84L234.83 60.22C233.534 61.264 231.806 62.236 228.962 62.236C224.498 62.236 220.934 59.428 220.934 51.616C220.934 43.624 224.75 41.032 229.07 41.032C230.942 41.032 232.706 41.464 234.362 42.868L235.766 41.248C233.822 39.736 231.95 38.908 228.818 38.908ZM257.172 51.652C257.172 44.128 254.184 38.908 248.316 38.908C242.448 38.908 239.46 44.308 239.46 51.724C239.46 59.248 242.448 64.36 248.316 64.36C254.184 64.36 257.172 59.068 257.172 51.652ZM254.76 51.652C254.76 58.42 252.888 62.236 248.316 62.236C243.852 62.236 241.872 58.456 241.872 51.724C241.872 44.956 243.744 41.032 248.316 41.032C252.888 41.032 254.76 44.92 254.76 51.652ZM278.074 39.268H274.186L269.974 56.476L265.582 39.268H261.73L260.326 64H262.63L263.458 50.32C263.638 47.476 263.638 42.292 263.602 41.464L268.534 59.5H271.27L275.842 41.464C275.914 42.076 275.986 47.08 276.202 50.356L277.102 64H279.478L278.074 39.268ZM300.523 46.72C300.523 41.608 296.96 39.268 291.271 39.268H285.439V64H287.708V54.532H291.056C296.528 54.532 300.523 52.516 300.523 46.72ZM298.004 46.756C298.004 51.4 295.196 52.552 291.524 52.552H287.708V41.212H291.776C295.232 41.212 298.004 42.58 298.004 46.756ZM321.929 51.652C321.929 44.128 318.941 38.908 313.073 38.908C307.205 38.908 304.217 44.308 304.217 51.724C304.217 59.248 307.205 64.36 313.073 64.36C318.941 64.36 321.929 59.068 321.929 51.652ZM319.517 51.652C319.517 58.42 317.645 62.236 313.073 62.236C308.609 62.236 306.629 58.456 306.629 51.724C306.629 44.956 308.501 41.032 313.073 41.032C317.645 41.032 319.517 44.92 319.517 51.652ZM342.831 57.268C342.831 52.48 339.303 50.968 335.667 49.96C330.735 48.556 329.115 47.368 329.115 45.064C329.115 42.328 331.563 41.032 334.407 41.032C336.531 41.032 338.655 41.716 340.455 43.336L342.039 41.644C339.987 39.916 337.683 38.908 334.407 38.908C329.799 38.908 326.811 41.572 326.811 45.064C326.811 49.024 330.123 50.716 334.767 52.048C339.267 53.344 340.455 54.64 340.455 57.196C340.455 60.688 337.395 62.272 334.227 62.272C331.095 62.272 328.971 61.192 327.279 59.572L325.767 61.336C327.855 63.316 330.807 64.36 334.119 64.36C339.699 64.36 342.831 61.408 342.831 57.268ZM352.609 41.32H363.445L363.733 39.268H350.305V64H364.165V61.984H352.609V52.48H361.969V50.392H352.609V41.32Z" fill="black"/>
</svg>
