<svg width="390" height="510" viewBox="0 0 390 510" fill="none"
  xmlns="http://www.w3.org/2000/svg">
  <g clip-path="url(#clip0)">
    <path d="M0.867798 0H4.8678V4H0.867798V0Z" fill="#E5E7EB"/>
    <path d="M20.8678 0H24.8678V4H20.8678V0Z" fill="#E5E7EB"/>
    <path d="M40.8678 0H44.8678V4H40.8678V0Z" fill="#E5E7EB"/>
    <path d="M60.8678 0H64.8678V4H60.8678V0Z" fill="#E5E7EB"/>
    <path d="M80.8678 0H84.8678V4H80.8678V0Z" fill="#E5E7EB"/>
    <path d="M100.868 0H104.868V4H100.868V0Z" fill="#E5E7EB"/>
    <path d="M120.868 0H124.868V4H120.868V0Z" fill="#E5E7EB"/>
    <path d="M140.868 0H144.868V4H140.868V0Z" fill="#E5E7EB"/>
    <path d="M160.868 0H164.868V4H160.868V0Z" fill="#E5E7EB"/>
    <path d="M180.868 0H184.868V4H180.868V0Z" fill="#E5E7EB"/>
    <path d="M200.868 0H204.868V4H200.868V0Z" fill="#E5E7EB"/>
    <path d="M220.868 0H224.868V4H220.868V0Z" fill="#E5E7EB"/>
    <path d="M240.868 0H244.868V4H240.868V0Z" fill="#E5E7EB"/>
    <path d="M260.868 0H264.868V4H260.868V0Z" fill="#E5E7EB"/>
    <path d="M280.868 0H284.868V4H280.868V0Z" fill="#E5E7EB"/>
    <path d="M300.868 0H304.868V4H300.868V0Z" fill="#E5E7EB"/>
    <path d="M320.868 0H324.868V4H320.868V0Z" fill="#E5E7EB"/>
    <path d="M340.868 0H344.868V4H340.868V0Z" fill="#E5E7EB"/>
    <path d="M360.868 0H364.868V4H360.868V0Z" fill="#E5E7EB"/>
    <path d="M380.868 0H384.868V4H380.868V0Z" fill="#E5E7EB"/>
    <path d="M400.868 0H404.868V4H400.868V0Z" fill="#E5E7EB"/>
    <path d="M0.867798 20H4.8678V24H0.867798V20Z" fill="#E5E7EB"/>
    <path d="M20.8678 20H24.8678V24H20.8678V20Z" fill="#E5E7EB"/>
    <path d="M40.8678 20H44.8678V24H40.8678V20Z" fill="#E5E7EB"/>
    <path d="M60.8678 20H64.8678V24H60.8678V20Z" fill="#E5E7EB"/>
    <path d="M80.8678 20H84.8678V24H80.8678V20Z" fill="#E5E7EB"/>
    <path d="M100.868 20H104.868V24H100.868V20Z" fill="#E5E7EB"/>
    <path d="M120.868 20H124.868V24H120.868V20Z" fill="#E5E7EB"/>
    <path d="M140.868 20H144.868V24H140.868V20Z" fill="#E5E7EB"/>
    <path d="M160.868 20H164.868V24H160.868V20Z" fill="#E5E7EB"/>
    <path d="M180.868 20H184.868V24H180.868V20Z" fill="#E5E7EB"/>
    <path d="M200.868 20H204.868V24H200.868V20Z" fill="#E5E7EB"/>
    <path d="M220.868 20H224.868V24H220.868V20Z" fill="#E5E7EB"/>
    <path d="M240.868 20H244.868V24H240.868V20Z" fill="#E5E7EB"/>
    <path d="M260.868 20H264.868V24H260.868V20Z" fill="#E5E7EB"/>
    <path d="M280.868 20H284.868V24H280.868V20Z" fill="#E5E7EB"/>
    <path d="M300.868 20H304.868V24H300.868V20Z" fill="#E5E7EB"/>
    <path d="M320.868 20H324.868V24H320.868V20Z" fill="#E5E7EB"/>
    <path d="M340.868 20H344.868V24H340.868V20Z" fill="#E5E7EB"/>
    <path d="M360.868 20H364.868V24H360.868V20Z" fill="#E5E7EB"/>
    <path d="M380.868 20H384.868V24H380.868V20Z" fill="#E5E7EB"/>
    <path d="M400.868 20H404.868V24H400.868V20Z" fill="#E5E7EB"/>
    <path d="M0.867798 40H4.8678V44H0.867798V40Z" fill="#E5E7EB"/>
    <path d="M20.8678 40H24.8678V44H20.8678V40Z" fill="#E5E7EB"/>
    <path d="M40.8678 40H44.8678V44H40.8678V40Z" fill="#E5E7EB"/>
    <path d="M60.8678 40H64.8678V44H60.8678V40Z" fill="#E5E7EB"/>
    <path d="M80.8678 40H84.8678V44H80.8678V40Z" fill="#E5E7EB"/>
    <path d="M100.868 40H104.868V44H100.868V40Z" fill="#E5E7EB"/>
    <path d="M120.868 40H124.868V44H120.868V40Z" fill="#E5E7EB"/>
    <path d="M140.868 40H144.868V44H140.868V40Z" fill="#E5E7EB"/>
    <path d="M160.868 40H164.868V44H160.868V40Z" fill="#E5E7EB"/>
    <path d="M180.868 40H184.868V44H180.868V40Z" fill="#E5E7EB"/>
    <path d="M200.868 40H204.868V44H200.868V40Z" fill="#E5E7EB"/>
    <path d="M220.868 40H224.868V44H220.868V40Z" fill="#E5E7EB"/>
    <path d="M240.868 40H244.868V44H240.868V40Z" fill="#E5E7EB"/>
    <path d="M260.868 40H264.868V44H260.868V40Z" fill="#E5E7EB"/>
    <path d="M280.868 40H284.868V44H280.868V40Z" fill="#E5E7EB"/>
    <path d="M300.868 40H304.868V44H300.868V40Z" fill="#E5E7EB"/>
    <path d="M320.868 40H324.868V44H320.868V40Z" fill="#E5E7EB"/>
    <path d="M340.868 40H344.868V44H340.868V40Z" fill="#E5E7EB"/>
    <path d="M360.868 40H364.868V44H360.868V40Z" fill="#E5E7EB"/>
    <path d="M380.868 40H384.868V44H380.868V40Z" fill="#E5E7EB"/>
    <path d="M400.868 40H404.868V44H400.868V40Z" fill="#E5E7EB"/>
    <path d="M0.867798 60H4.8678V64H0.867798V60Z" fill="#E5E7EB"/>
    <path d="M20.8678 60H24.8678V64H20.8678V60Z" fill="#E5E7EB"/>
    <path d="M40.8678 60H44.8678V64H40.8678V60Z" fill="#E5E7EB"/>
    <path d="M60.8678 60H64.8678V64H60.8678V60Z" fill="#E5E7EB"/>
    <path d="M80.8678 60H84.8678V64H80.8678V60Z" fill="#E5E7EB"/>
    <path d="M100.868 60H104.868V64H100.868V60Z" fill="#E5E7EB"/>
    <path d="M120.868 60H124.868V64H120.868V60Z" fill="#E5E7EB"/>
    <path d="M140.868 60H144.868V64H140.868V60Z" fill="#E5E7EB"/>
    <path d="M160.868 60H164.868V64H160.868V60Z" fill="#E5E7EB"/>
    <path d="M180.868 60H184.868V64H180.868V60Z" fill="#E5E7EB"/>
    <path d="M200.868 60H204.868V64H200.868V60Z" fill="#E5E7EB"/>
    <path d="M220.868 60H224.868V64H220.868V60Z" fill="#E5E7EB"/>
    <path d="M240.868 60H244.868V64H240.868V60Z" fill="#E5E7EB"/>
    <path d="M260.868 60H264.868V64H260.868V60Z" fill="#E5E7EB"/>
    <path d="M280.868 60H284.868V64H280.868V60Z" fill="#E5E7EB"/>
    <path d="M300.868 60H304.868V64H300.868V60Z" fill="#E5E7EB"/>
    <path d="M320.868 60H324.868V64H320.868V60Z" fill="#E5E7EB"/>
    <path d="M340.868 60H344.868V64H340.868V60Z" fill="#E5E7EB"/>
    <path d="M360.868 60H364.868V64H360.868V60Z" fill="#E5E7EB"/>
    <path d="M380.868 60H384.868V64H380.868V60Z" fill="#E5E7EB"/>
    <path d="M400.868 60H404.868V64H400.868V60Z" fill="#E5E7EB"/>
    <path d="M0.867798 80H4.8678V84H0.867798V80Z" fill="#E5E7EB"/>
    <path d="M20.8678 80H24.8678V84H20.8678V80Z" fill="#E5E7EB"/>
    <path d="M40.8678 80H44.8678V84H40.8678V80Z" fill="#E5E7EB"/>
    <path d="M60.8678 80H64.8678V84H60.8678V80Z" fill="#E5E7EB"/>
    <path d="M80.8678 80H84.8678V84H80.8678V80Z" fill="#E5E7EB"/>
    <path d="M100.868 80H104.868V84H100.868V80Z" fill="#E5E7EB"/>
    <path d="M120.868 80H124.868V84H120.868V80Z" fill="#E5E7EB"/>
    <path d="M140.868 80H144.868V84H140.868V80Z" fill="#E5E7EB"/>
    <path d="M160.868 80H164.868V84H160.868V80Z" fill="#E5E7EB"/>
    <path d="M180.868 80H184.868V84H180.868V80Z" fill="#E5E7EB"/>
    <path d="M200.868 80H204.868V84H200.868V80Z" fill="#E5E7EB"/>
    <path d="M220.868 80H224.868V84H220.868V80Z" fill="#E5E7EB"/>
    <path d="M240.868 80H244.868V84H240.868V80Z" fill="#E5E7EB"/>
    <path d="M260.868 80H264.868V84H260.868V80Z" fill="#E5E7EB"/>
    <path d="M280.868 80H284.868V84H280.868V80Z" fill="#E5E7EB"/>
    <path d="M300.868 80H304.868V84H300.868V80Z" fill="#E5E7EB"/>
    <path d="M320.868 80H324.868V84H320.868V80Z" fill="#E5E7EB"/>
    <path d="M340.868 80H344.868V84H340.868V80Z" fill="#E5E7EB"/>
    <path d="M360.868 80H364.868V84H360.868V80Z" fill="#E5E7EB"/>
    <path d="M380.868 80H384.868V84H380.868V80Z" fill="#E5E7EB"/>
    <path d="M400.868 80H404.868V84H400.868V80Z" fill="#E5E7EB"/>
    <path d="M0.867798 100H4.8678V104H0.867798V100Z" fill="#E5E7EB"/>
    <path d="M20.8678 100H24.8678V104H20.8678V100Z" fill="#E5E7EB"/>
    <path d="M40.8678 100H44.8678V104H40.8678V100Z" fill="#E5E7EB"/>
    <path d="M60.8678 100H64.8678V104H60.8678V100Z" fill="#E5E7EB"/>
    <path d="M80.8678 100H84.8678V104H80.8678V100Z" fill="#E5E7EB"/>
    <path d="M100.868 100H104.868V104H100.868V100Z" fill="#E5E7EB"/>
    <path d="M120.868 100H124.868V104H120.868V100Z" fill="#E5E7EB"/>
    <path d="M140.868 100H144.868V104H140.868V100Z" fill="#E5E7EB"/>
    <path d="M160.868 100H164.868V104H160.868V100Z" fill="#E5E7EB"/>
    <path d="M180.868 100H184.868V104H180.868V100Z" fill="#E5E7EB"/>
    <path d="M200.868 100H204.868V104H200.868V100Z" fill="#E5E7EB"/>
    <path d="M220.868 100H224.868V104H220.868V100Z" fill="#E5E7EB"/>
    <path d="M240.868 100H244.868V104H240.868V100Z" fill="#E5E7EB"/>
    <path d="M260.868 100H264.868V104H260.868V100Z" fill="#E5E7EB"/>
    <path d="M280.868 100H284.868V104H280.868V100Z" fill="#E5E7EB"/>
    <path d="M300.868 100H304.868V104H300.868V100Z" fill="#E5E7EB"/>
    <path d="M320.868 100H324.868V104H320.868V100Z" fill="#E5E7EB"/>
    <path d="M340.868 100H344.868V104H340.868V100Z" fill="#E5E7EB"/>
    <path d="M360.868 100H364.868V104H360.868V100Z" fill="#E5E7EB"/>
    <path d="M380.868 100H384.868V104H380.868V100Z" fill="#E5E7EB"/>
    <path d="M400.868 100H404.868V104H400.868V100Z" fill="#E5E7EB"/>
    <path d="M0.867798 120H4.8678V124H0.867798V120Z" fill="#E5E7EB"/>
    <path d="M20.8678 120H24.8678V124H20.8678V120Z" fill="#E5E7EB"/>
    <path d="M40.8678 120H44.8678V124H40.8678V120Z" fill="#E5E7EB"/>
    <path d="M60.8678 120H64.8678V124H60.8678V120Z" fill="#E5E7EB"/>
    <path d="M80.8678 120H84.8678V124H80.8678V120Z" fill="#E5E7EB"/>
    <path d="M100.868 120H104.868V124H100.868V120Z" fill="#E5E7EB"/>
    <path d="M120.868 120H124.868V124H120.868V120Z" fill="#E5E7EB"/>
    <path d="M140.868 120H144.868V124H140.868V120Z" fill="#E5E7EB"/>
    <path d="M160.868 120H164.868V124H160.868V120Z" fill="#E5E7EB"/>
    <path d="M180.868 120H184.868V124H180.868V120Z" fill="#E5E7EB"/>
    <path d="M200.868 120H204.868V124H200.868V120Z" fill="#E5E7EB"/>
    <path d="M220.868 120H224.868V124H220.868V120Z" fill="#E5E7EB"/>
    <path d="M240.868 120H244.868V124H240.868V120Z" fill="#E5E7EB"/>
    <path d="M260.868 120H264.868V124H260.868V120Z" fill="#E5E7EB"/>
    <path d="M280.868 120H284.868V124H280.868V120Z" fill="#E5E7EB"/>
    <path d="M300.868 120H304.868V124H300.868V120Z" fill="#E5E7EB"/>
    <path d="M320.868 120H324.868V124H320.868V120Z" fill="#E5E7EB"/>
    <path d="M340.868 120H344.868V124H340.868V120Z" fill="#E5E7EB"/>
    <path d="M360.868 120H364.868V124H360.868V120Z" fill="#E5E7EB"/>
    <path d="M380.868 120H384.868V124H380.868V120Z" fill="#E5E7EB"/>
    <path d="M400.868 120H404.868V124H400.868V120Z" fill="#E5E7EB"/>
    <path d="M0.867798 140H4.8678V144H0.867798V140Z" fill="#E5E7EB"/>
    <path d="M20.8678 140H24.8678V144H20.8678V140Z" fill="#E5E7EB"/>
    <path d="M40.8678 140H44.8678V144H40.8678V140Z" fill="#E5E7EB"/>
    <path d="M60.8678 140H64.8678V144H60.8678V140Z" fill="#E5E7EB"/>
    <path d="M80.8678 140H84.8678V144H80.8678V140Z" fill="#E5E7EB"/>
    <path d="M100.868 140H104.868V144H100.868V140Z" fill="#E5E7EB"/>
    <path d="M120.868 140H124.868V144H120.868V140Z" fill="#E5E7EB"/>
    <path d="M140.868 140H144.868V144H140.868V140Z" fill="#E5E7EB"/>
    <path d="M160.868 140H164.868V144H160.868V140Z" fill="#E5E7EB"/>
    <path d="M180.868 140H184.868V144H180.868V140Z" fill="#E5E7EB"/>
    <path d="M200.868 140H204.868V144H200.868V140Z" fill="#E5E7EB"/>
    <path d="M220.868 140H224.868V144H220.868V140Z" fill="#E5E7EB"/>
    <path d="M240.868 140H244.868V144H240.868V140Z" fill="#E5E7EB"/>
    <path d="M260.868 140H264.868V144H260.868V140Z" fill="#E5E7EB"/>
    <path d="M280.868 140H284.868V144H280.868V140Z" fill="#E5E7EB"/>
    <path d="M300.868 140H304.868V144H300.868V140Z" fill="#E5E7EB"/>
    <path d="M320.868 140H324.868V144H320.868V140Z" fill="#E5E7EB"/>
    <path d="M340.868 140H344.868V144H340.868V140Z" fill="#E5E7EB"/>
    <path d="M360.868 140H364.868V144H360.868V140Z" fill="#E5E7EB"/>
    <path d="M380.868 140H384.868V144H380.868V140Z" fill="#E5E7EB"/>
    <path d="M400.868 140H404.868V144H400.868V140Z" fill="#E5E7EB"/>
    <path d="M0.867798 160H4.8678V164H0.867798V160Z" fill="#E5E7EB"/>
    <path d="M20.8678 160H24.8678V164H20.8678V160Z" fill="#E5E7EB"/>
    <path d="M40.8678 160H44.8678V164H40.8678V160Z" fill="#E5E7EB"/>
    <path d="M60.8678 160H64.8678V164H60.8678V160Z" fill="#E5E7EB"/>
    <path d="M80.8678 160H84.8678V164H80.8678V160Z" fill="#E5E7EB"/>
    <path d="M100.868 160H104.868V164H100.868V160Z" fill="#E5E7EB"/>
    <path d="M120.868 160H124.868V164H120.868V160Z" fill="#E5E7EB"/>
    <path d="M140.868 160H144.868V164H140.868V160Z" fill="#E5E7EB"/>
    <path d="M160.868 160H164.868V164H160.868V160Z" fill="#E5E7EB"/>
    <path d="M180.868 160H184.868V164H180.868V160Z" fill="#E5E7EB"/>
    <path d="M200.868 160H204.868V164H200.868V160Z" fill="#E5E7EB"/>
    <path d="M220.868 160H224.868V164H220.868V160Z" fill="#E5E7EB"/>
    <path d="M240.868 160H244.868V164H240.868V160Z" fill="#E5E7EB"/>
    <path d="M260.868 160H264.868V164H260.868V160Z" fill="#E5E7EB"/>
    <path d="M280.868 160H284.868V164H280.868V160Z" fill="#E5E7EB"/>
    <path d="M300.868 160H304.868V164H300.868V160Z" fill="#E5E7EB"/>
    <path d="M320.868 160H324.868V164H320.868V160Z" fill="#E5E7EB"/>
    <path d="M340.868 160H344.868V164H340.868V160Z" fill="#E5E7EB"/>
    <path d="M360.868 160H364.868V164H360.868V160Z" fill="#E5E7EB"/>
    <path d="M380.868 160H384.868V164H380.868V160Z" fill="#E5E7EB"/>
    <path d="M400.868 160H404.868V164H400.868V160Z" fill="#E5E7EB"/>
    <path d="M0.867798 180H4.8678V184H0.867798V180Z" fill="#E5E7EB"/>
    <path d="M20.8678 180H24.8678V184H20.8678V180Z" fill="#E5E7EB"/>
    <path d="M40.8678 180H44.8678V184H40.8678V180Z" fill="#E5E7EB"/>
    <path d="M60.8678 180H64.8678V184H60.8678V180Z" fill="#E5E7EB"/>
    <path d="M80.8678 180H84.8678V184H80.8678V180Z" fill="#E5E7EB"/>
    <path d="M100.868 180H104.868V184H100.868V180Z" fill="#E5E7EB"/>
    <path d="M120.868 180H124.868V184H120.868V180Z" fill="#E5E7EB"/>
    <path d="M140.868 180H144.868V184H140.868V180Z" fill="#E5E7EB"/>
    <path d="M160.868 180H164.868V184H160.868V180Z" fill="#E5E7EB"/>
    <path d="M180.868 180H184.868V184H180.868V180Z" fill="#E5E7EB"/>
    <path d="M200.868 180H204.868V184H200.868V180Z" fill="#E5E7EB"/>
    <path d="M220.868 180H224.868V184H220.868V180Z" fill="#E5E7EB"/>
    <path d="M240.868 180H244.868V184H240.868V180Z" fill="#E5E7EB"/>
    <path d="M260.868 180H264.868V184H260.868V180Z" fill="#E5E7EB"/>
    <path d="M280.868 180H284.868V184H280.868V180Z" fill="#E5E7EB"/>
    <path d="M300.868 180H304.868V184H300.868V180Z" fill="#E5E7EB"/>
    <path d="M320.868 180H324.868V184H320.868V180Z" fill="#E5E7EB"/>
    <path d="M340.868 180H344.868V184H340.868V180Z" fill="#E5E7EB"/>
    <path d="M360.868 180H364.868V184H360.868V180Z" fill="#E5E7EB"/>
    <path d="M380.868 180H384.868V184H380.868V180Z" fill="#E5E7EB"/>
    <path d="M400.868 180H404.868V184H400.868V180Z" fill="#E5E7EB"/>
    <path d="M0.867798 200H4.8678V204H0.867798V200Z" fill="#E5E7EB"/>
    <path d="M20.8678 200H24.8678V204H20.8678V200Z" fill="#E5E7EB"/>
    <path d="M40.8678 200H44.8678V204H40.8678V200Z" fill="#E5E7EB"/>
    <path d="M60.8678 200H64.8678V204H60.8678V200Z" fill="#E5E7EB"/>
    <path d="M80.8678 200H84.8678V204H80.8678V200Z" fill="#E5E7EB"/>
    <path d="M100.868 200H104.868V204H100.868V200Z" fill="#E5E7EB"/>
    <path d="M120.868 200H124.868V204H120.868V200Z" fill="#E5E7EB"/>
    <path d="M140.868 200H144.868V204H140.868V200Z" fill="#E5E7EB"/>
    <path d="M160.868 200H164.868V204H160.868V200Z" fill="#E5E7EB"/>
    <path d="M180.868 200H184.868V204H180.868V200Z" fill="#E5E7EB"/>
    <path d="M200.868 200H204.868V204H200.868V200Z" fill="#E5E7EB"/>
    <path d="M220.868 200H224.868V204H220.868V200Z" fill="#E5E7EB"/>
    <path d="M240.868 200H244.868V204H240.868V200Z" fill="#E5E7EB"/>
    <path d="M260.868 200H264.868V204H260.868V200Z" fill="#E5E7EB"/>
    <path d="M280.868 200H284.868V204H280.868V200Z" fill="#E5E7EB"/>
    <path d="M300.868 200H304.868V204H300.868V200Z" fill="#E5E7EB"/>
    <path d="M320.868 200H324.868V204H320.868V200Z" fill="#E5E7EB"/>
    <path d="M340.868 200H344.868V204H340.868V200Z" fill="#E5E7EB"/>
    <path d="M360.868 200H364.868V204H360.868V200Z" fill="#E5E7EB"/>
    <path d="M380.868 200H384.868V204H380.868V200Z" fill="#E5E7EB"/>
    <path d="M400.868 200H404.868V204H400.868V200Z" fill="#E5E7EB"/>
    <path d="M0.867798 220H4.8678V224H0.867798V220Z" fill="#E5E7EB"/>
    <path d="M20.8678 220H24.8678V224H20.8678V220Z" fill="#E5E7EB"/>
    <path d="M40.8678 220H44.8678V224H40.8678V220Z" fill="#E5E7EB"/>
    <path d="M60.8678 220H64.8678V224H60.8678V220Z" fill="#E5E7EB"/>
    <path d="M80.8678 220H84.8678V224H80.8678V220Z" fill="#E5E7EB"/>
    <path d="M100.868 220H104.868V224H100.868V220Z" fill="#E5E7EB"/>
    <path d="M120.868 220H124.868V224H120.868V220Z" fill="#E5E7EB"/>
    <path d="M140.868 220H144.868V224H140.868V220Z" fill="#E5E7EB"/>
    <path d="M160.868 220H164.868V224H160.868V220Z" fill="#E5E7EB"/>
    <path d="M180.868 220H184.868V224H180.868V220Z" fill="#E5E7EB"/>
    <path d="M200.868 220H204.868V224H200.868V220Z" fill="#E5E7EB"/>
    <path d="M220.868 220H224.868V224H220.868V220Z" fill="#E5E7EB"/>
    <path d="M240.868 220H244.868V224H240.868V220Z" fill="#E5E7EB"/>
    <path d="M260.868 220H264.868V224H260.868V220Z" fill="#E5E7EB"/>
    <path d="M280.868 220H284.868V224H280.868V220Z" fill="#E5E7EB"/>
    <path d="M300.868 220H304.868V224H300.868V220Z" fill="#E5E7EB"/>
    <path d="M320.868 220H324.868V224H320.868V220Z" fill="#E5E7EB"/>
    <path d="M340.868 220H344.868V224H340.868V220Z" fill="#E5E7EB"/>
    <path d="M360.868 220H364.868V224H360.868V220Z" fill="#E5E7EB"/>
    <path d="M380.868 220H384.868V224H380.868V220Z" fill="#E5E7EB"/>
    <path d="M400.868 220H404.868V224H400.868V220Z" fill="#E5E7EB"/>
    <path d="M0.867798 240H4.8678V244H0.867798V240Z" fill="#E5E7EB"/>
    <path d="M20.8678 240H24.8678V244H20.8678V240Z" fill="#E5E7EB"/>
    <path d="M40.8678 240H44.8678V244H40.8678V240Z" fill="#E5E7EB"/>
    <path d="M60.8678 240H64.8678V244H60.8678V240Z" fill="#E5E7EB"/>
    <path d="M80.8678 240H84.8678V244H80.8678V240Z" fill="#E5E7EB"/>
    <path d="M100.868 240H104.868V244H100.868V240Z" fill="#E5E7EB"/>
    <path d="M120.868 240H124.868V244H120.868V240Z" fill="#E5E7EB"/>
    <path d="M140.868 240H144.868V244H140.868V240Z" fill="#E5E7EB"/>
    <path d="M160.868 240H164.868V244H160.868V240Z" fill="#E5E7EB"/>
    <path d="M180.868 240H184.868V244H180.868V240Z" fill="#E5E7EB"/>
    <path d="M200.868 240H204.868V244H200.868V240Z" fill="#E5E7EB"/>
    <path d="M220.868 240H224.868V244H220.868V240Z" fill="#E5E7EB"/>
    <path d="M240.868 240H244.868V244H240.868V240Z" fill="#E5E7EB"/>
    <path d="M260.868 240H264.868V244H260.868V240Z" fill="#E5E7EB"/>
    <path d="M280.868 240H284.868V244H280.868V240Z" fill="#E5E7EB"/>
    <path d="M300.868 240H304.868V244H300.868V240Z" fill="#E5E7EB"/>
    <path d="M320.868 240H324.868V244H320.868V240Z" fill="#E5E7EB"/>
    <path d="M340.868 240H344.868V244H340.868V240Z" fill="#E5E7EB"/>
    <path d="M360.868 240H364.868V244H360.868V240Z" fill="#E5E7EB"/>
    <path d="M380.868 240H384.868V244H380.868V240Z" fill="#E5E7EB"/>
    <path d="M400.868 240H404.868V244H400.868V240Z" fill="#E5E7EB"/>
    <path d="M0.867798 260H4.8678V264H0.867798V260Z" fill="#E5E7EB"/>
    <path d="M20.8678 260H24.8678V264H20.8678V260Z" fill="#E5E7EB"/>
    <path d="M40.8678 260H44.8678V264H40.8678V260Z" fill="#E5E7EB"/>
    <path d="M60.8678 260H64.8678V264H60.8678V260Z" fill="#E5E7EB"/>
    <path d="M80.8678 260H84.8678V264H80.8678V260Z" fill="#E5E7EB"/>
    <path d="M100.868 260H104.868V264H100.868V260Z" fill="#E5E7EB"/>
    <path d="M120.868 260H124.868V264H120.868V260Z" fill="#E5E7EB"/>
    <path d="M140.868 260H144.868V264H140.868V260Z" fill="#E5E7EB"/>
    <path d="M160.868 260H164.868V264H160.868V260Z" fill="#E5E7EB"/>
    <path d="M180.868 260H184.868V264H180.868V260Z" fill="#E5E7EB"/>
    <path d="M200.868 260H204.868V264H200.868V260Z" fill="#E5E7EB"/>
    <path d="M220.868 260H224.868V264H220.868V260Z" fill="#E5E7EB"/>
    <path d="M240.868 260H244.868V264H240.868V260Z" fill="#E5E7EB"/>
    <path d="M260.868 260H264.868V264H260.868V260Z" fill="#E5E7EB"/>
    <path d="M280.868 260H284.868V264H280.868V260Z" fill="#E5E7EB"/>
    <path d="M300.868 260H304.868V264H300.868V260Z" fill="#E5E7EB"/>
    <path d="M320.868 260H324.868V264H320.868V260Z" fill="#E5E7EB"/>
    <path d="M340.868 260H344.868V264H340.868V260Z" fill="#E5E7EB"/>
    <path d="M360.868 260H364.868V264H360.868V260Z" fill="#E5E7EB"/>
    <path d="M380.868 260H384.868V264H380.868V260Z" fill="#E5E7EB"/>
    <path d="M400.868 260H404.868V264H400.868V260Z" fill="#E5E7EB"/>
    <path d="M0.867798 280H4.8678V284H0.867798V280Z" fill="#E5E7EB"/>
    <path d="M20.8678 280H24.8678V284H20.8678V280Z" fill="#E5E7EB"/>
    <path d="M40.8678 280H44.8678V284H40.8678V280Z" fill="#E5E7EB"/>
    <path d="M60.8678 280H64.8678V284H60.8678V280Z" fill="#E5E7EB"/>
    <path d="M80.8678 280H84.8678V284H80.8678V280Z" fill="#E5E7EB"/>
    <path d="M100.868 280H104.868V284H100.868V280Z" fill="#E5E7EB"/>
    <path d="M120.868 280H124.868V284H120.868V280Z" fill="#E5E7EB"/>
    <path d="M140.868 280H144.868V284H140.868V280Z" fill="#E5E7EB"/>
    <path d="M160.868 280H164.868V284H160.868V280Z" fill="#E5E7EB"/>
    <path d="M180.868 280H184.868V284H180.868V280Z" fill="#E5E7EB"/>
    <path d="M200.868 280H204.868V284H200.868V280Z" fill="#E5E7EB"/>
    <path d="M220.868 280H224.868V284H220.868V280Z" fill="#E5E7EB"/>
    <path d="M240.868 280H244.868V284H240.868V280Z" fill="#E5E7EB"/>
    <path d="M260.868 280H264.868V284H260.868V280Z" fill="#E5E7EB"/>
    <path d="M280.868 280H284.868V284H280.868V280Z" fill="#E5E7EB"/>
    <path d="M300.868 280H304.868V284H300.868V280Z" fill="#E5E7EB"/>
    <path d="M320.868 280H324.868V284H320.868V280Z" fill="#E5E7EB"/>
    <path d="M340.868 280H344.868V284H340.868V280Z" fill="#E5E7EB"/>
    <path d="M360.868 280H364.868V284H360.868V280Z" fill="#E5E7EB"/>
    <path d="M380.868 280H384.868V284H380.868V280Z" fill="#E5E7EB"/>
    <path d="M400.868 280H404.868V284H400.868V280Z" fill="#E5E7EB"/>
    <path d="M0.867798 300H4.8678V304H0.867798V300Z" fill="#E5E7EB"/>
    <path d="M20.8678 300H24.8678V304H20.8678V300Z" fill="#E5E7EB"/>
    <path d="M40.8678 300H44.8678V304H40.8678V300Z" fill="#E5E7EB"/>
    <path d="M60.8678 300H64.8678V304H60.8678V300Z" fill="#E5E7EB"/>
    <path d="M80.8678 300H84.8678V304H80.8678V300Z" fill="#E5E7EB"/>
    <path d="M100.868 300H104.868V304H100.868V300Z" fill="#E5E7EB"/>
    <path d="M120.868 300H124.868V304H120.868V300Z" fill="#E5E7EB"/>
    <path d="M140.868 300H144.868V304H140.868V300Z" fill="#E5E7EB"/>
    <path d="M160.868 300H164.868V304H160.868V300Z" fill="#E5E7EB"/>
    <path d="M180.868 300H184.868V304H180.868V300Z" fill="#E5E7EB"/>
    <path d="M200.868 300H204.868V304H200.868V300Z" fill="#E5E7EB"/>
    <path d="M220.868 300H224.868V304H220.868V300Z" fill="#E5E7EB"/>
    <path d="M240.868 300H244.868V304H240.868V300Z" fill="#E5E7EB"/>
    <path d="M260.868 300H264.868V304H260.868V300Z" fill="#E5E7EB"/>
    <path d="M280.868 300H284.868V304H280.868V300Z" fill="#E5E7EB"/>
    <path d="M300.868 300H304.868V304H300.868V300Z" fill="#E5E7EB"/>
    <path d="M320.868 300H324.868V304H320.868V300Z" fill="#E5E7EB"/>
    <path d="M340.868 300H344.868V304H340.868V300Z" fill="#E5E7EB"/>
    <path d="M360.868 300H364.868V304H360.868V300Z" fill="#E5E7EB"/>
    <path d="M380.868 300H384.868V304H380.868V300Z" fill="#E5E7EB"/>
    <path d="M400.868 300H404.868V304H400.868V300Z" fill="#E5E7EB"/>
    <path d="M0.867798 320H4.8678V324H0.867798V320Z" fill="#E5E7EB"/>
    <path d="M20.8678 320H24.8678V324H20.8678V320Z" fill="#E5E7EB"/>
    <path d="M40.8678 320H44.8678V324H40.8678V320Z" fill="#E5E7EB"/>
    <path d="M60.8678 320H64.8678V324H60.8678V320Z" fill="#E5E7EB"/>
    <path d="M80.8678 320H84.8678V324H80.8678V320Z" fill="#E5E7EB"/>
    <path d="M100.868 320H104.868V324H100.868V320Z" fill="#E5E7EB"/>
    <path d="M120.868 320H124.868V324H120.868V320Z" fill="#E5E7EB"/>
    <path d="M140.868 320H144.868V324H140.868V320Z" fill="#E5E7EB"/>
    <path d="M160.868 320H164.868V324H160.868V320Z" fill="#E5E7EB"/>
    <path d="M180.868 320H184.868V324H180.868V320Z" fill="#E5E7EB"/>
    <path d="M200.868 320H204.868V324H200.868V320Z" fill="#E5E7EB"/>
    <path d="M220.868 320H224.868V324H220.868V320Z" fill="#E5E7EB"/>
    <path d="M240.868 320H244.868V324H240.868V320Z" fill="#E5E7EB"/>
    <path d="M260.868 320H264.868V324H260.868V320Z" fill="#E5E7EB"/>
    <path d="M280.868 320H284.868V324H280.868V320Z" fill="#E5E7EB"/>
    <path d="M300.868 320H304.868V324H300.868V320Z" fill="#E5E7EB"/>
    <path d="M320.868 320H324.868V324H320.868V320Z" fill="#E5E7EB"/>
    <path d="M340.868 320H344.868V324H340.868V320Z" fill="#E5E7EB"/>
    <path d="M360.868 320H364.868V324H360.868V320Z" fill="#E5E7EB"/>
    <path d="M380.868 320H384.868V324H380.868V320Z" fill="#E5E7EB"/>
    <path d="M400.868 320H404.868V324H400.868V320Z" fill="#E5E7EB"/>
    <path d="M0.867798 340H4.8678V344H0.867798V340Z" fill="#E5E7EB"/>
    <path d="M20.8678 340H24.8678V344H20.8678V340Z" fill="#E5E7EB"/>
    <path d="M40.8678 340H44.8678V344H40.8678V340Z" fill="#E5E7EB"/>
    <path d="M60.8678 340H64.8678V344H60.8678V340Z" fill="#E5E7EB"/>
    <path d="M80.8678 340H84.8678V344H80.8678V340Z" fill="#E5E7EB"/>
    <path d="M100.868 340H104.868V344H100.868V340Z" fill="#E5E7EB"/>
    <path d="M120.868 340H124.868V344H120.868V340Z" fill="#E5E7EB"/>
    <path d="M140.868 340H144.868V344H140.868V340Z" fill="#E5E7EB"/>
    <path d="M160.868 340H164.868V344H160.868V340Z" fill="#E5E7EB"/>
    <path d="M180.868 340H184.868V344H180.868V340Z" fill="#E5E7EB"/>
    <path d="M200.868 340H204.868V344H200.868V340Z" fill="#E5E7EB"/>
    <path d="M220.868 340H224.868V344H220.868V340Z" fill="#E5E7EB"/>
    <path d="M240.868 340H244.868V344H240.868V340Z" fill="#E5E7EB"/>
    <path d="M260.868 340H264.868V344H260.868V340Z" fill="#E5E7EB"/>
    <path d="M280.868 340H284.868V344H280.868V340Z" fill="#E5E7EB"/>
    <path d="M300.868 340H304.868V344H300.868V340Z" fill="#E5E7EB"/>
    <path d="M320.868 340H324.868V344H320.868V340Z" fill="#E5E7EB"/>
    <path d="M340.868 340H344.868V344H340.868V340Z" fill="#E5E7EB"/>
    <path d="M360.868 340H364.868V344H360.868V340Z" fill="#E5E7EB"/>
    <path d="M380.868 340H384.868V344H380.868V340Z" fill="#E5E7EB"/>
    <path d="M400.868 340H404.868V344H400.868V340Z" fill="#E5E7EB"/>
    <path d="M0.867798 360H4.8678V364H0.867798V360Z" fill="#E5E7EB"/>
    <path d="M20.8678 360H24.8678V364H20.8678V360Z" fill="#E5E7EB"/>
    <path d="M40.8678 360H44.8678V364H40.8678V360Z" fill="#E5E7EB"/>
    <path d="M60.8678 360H64.8678V364H60.8678V360Z" fill="#E5E7EB"/>
    <path d="M80.8678 360H84.8678V364H80.8678V360Z" fill="#E5E7EB"/>
    <path d="M100.868 360H104.868V364H100.868V360Z" fill="#E5E7EB"/>
    <path d="M120.868 360H124.868V364H120.868V360Z" fill="#E5E7EB"/>
    <path d="M140.868 360H144.868V364H140.868V360Z" fill="#E5E7EB"/>
    <path d="M160.868 360H164.868V364H160.868V360Z" fill="#E5E7EB"/>
    <path d="M180.868 360H184.868V364H180.868V360Z" fill="#E5E7EB"/>
    <path d="M200.868 360H204.868V364H200.868V360Z" fill="#E5E7EB"/>
    <path d="M220.868 360H224.868V364H220.868V360Z" fill="#E5E7EB"/>
    <path d="M240.868 360H244.868V364H240.868V360Z" fill="#E5E7EB"/>
    <path d="M260.868 360H264.868V364H260.868V360Z" fill="#E5E7EB"/>
    <path d="M280.868 360H284.868V364H280.868V360Z" fill="#E5E7EB"/>
    <path d="M300.868 360H304.868V364H300.868V360Z" fill="#E5E7EB"/>
    <path d="M320.868 360H324.868V364H320.868V360Z" fill="#E5E7EB"/>
    <path d="M340.868 360H344.868V364H340.868V360Z" fill="#E5E7EB"/>
    <path d="M360.868 360H364.868V364H360.868V360Z" fill="#E5E7EB"/>
    <path d="M380.868 360H384.868V364H380.868V360Z" fill="#E5E7EB"/>
    <path d="M400.868 360H404.868V364H400.868V360Z" fill="#E5E7EB"/>
    <path d="M0.867798 380H4.8678V384H0.867798V380Z" fill="#E5E7EB"/>
    <path d="M20.8678 380H24.8678V384H20.8678V380Z" fill="#E5E7EB"/>
    <path d="M40.8678 380H44.8678V384H40.8678V380Z" fill="#E5E7EB"/>
    <path d="M60.8678 380H64.8678V384H60.8678V380Z" fill="#E5E7EB"/>
    <path d="M80.8678 380H84.8678V384H80.8678V380Z" fill="#E5E7EB"/>
    <path d="M100.868 380H104.868V384H100.868V380Z" fill="#E5E7EB"/>
    <path d="M120.868 380H124.868V384H120.868V380Z" fill="#E5E7EB"/>
    <path d="M140.868 380H144.868V384H140.868V380Z" fill="#E5E7EB"/>
    <path d="M160.868 380H164.868V384H160.868V380Z" fill="#E5E7EB"/>
    <path d="M180.868 380H184.868V384H180.868V380Z" fill="#E5E7EB"/>
    <path d="M200.868 380H204.868V384H200.868V380Z" fill="#E5E7EB"/>
    <path d="M220.868 380H224.868V384H220.868V380Z" fill="#E5E7EB"/>
    <path d="M240.868 380H244.868V384H240.868V380Z" fill="#E5E7EB"/>
    <path d="M260.868 380H264.868V384H260.868V380Z" fill="#E5E7EB"/>
    <path d="M280.868 380H284.868V384H280.868V380Z" fill="#E5E7EB"/>
    <path d="M300.868 380H304.868V384H300.868V380Z" fill="#E5E7EB"/>
    <path d="M320.868 380H324.868V384H320.868V380Z" fill="#E5E7EB"/>
    <path d="M340.868 380H344.868V384H340.868V380Z" fill="#E5E7EB"/>
    <path d="M360.868 380H364.868V384H360.868V380Z" fill="#E5E7EB"/>
    <path d="M380.868 380H384.868V384H380.868V380Z" fill="#E5E7EB"/>
    <path d="M400.868 380H404.868V384H400.868V380Z" fill="#E5E7EB"/>
    <path d="M0.867798 400H4.8678V404H0.867798V400Z" fill="#E5E7EB"/>
    <path d="M20.8678 400H24.8678V404H20.8678V400Z" fill="#E5E7EB"/>
    <path d="M40.8678 400H44.8678V404H40.8678V400Z" fill="#E5E7EB"/>
    <path d="M60.8678 400H64.8678V404H60.8678V400Z" fill="#E5E7EB"/>
    <path d="M80.8678 400H84.8678V404H80.8678V400Z" fill="#E5E7EB"/>
    <path d="M100.868 400H104.868V404H100.868V400Z" fill="#E5E7EB"/>
    <path d="M120.868 400H124.868V404H120.868V400Z" fill="#E5E7EB"/>
    <path d="M140.868 400H144.868V404H140.868V400Z" fill="#E5E7EB"/>
    <path d="M160.868 400H164.868V404H160.868V400Z" fill="#E5E7EB"/>
    <path d="M180.868 400H184.868V404H180.868V400Z" fill="#E5E7EB"/>
    <path d="M200.868 400H204.868V404H200.868V400Z" fill="#E5E7EB"/>
    <path d="M220.868 400H224.868V404H220.868V400Z" fill="#E5E7EB"/>
    <path d="M240.868 400H244.868V404H240.868V400Z" fill="#E5E7EB"/>
    <path d="M260.868 400H264.868V404H260.868V400Z" fill="#E5E7EB"/>
    <path d="M280.868 400H284.868V404H280.868V400Z" fill="#E5E7EB"/>
    <path d="M300.868 400H304.868V404H300.868V400Z" fill="#E5E7EB"/>
    <path d="M320.868 400H324.868V404H320.868V400Z" fill="#E5E7EB"/>
    <path d="M340.868 400H344.868V404H340.868V400Z" fill="#E5E7EB"/>
    <path d="M360.868 400H364.868V404H360.868V400Z" fill="#E5E7EB"/>
    <path d="M380.868 400H384.868V404H380.868V400Z" fill="#E5E7EB"/>
    <path d="M400.868 400H404.868V404H400.868V400Z" fill="#E5E7EB"/>
    <path d="M0.867798 420H4.8678V424H0.867798V420Z" fill="#E5E7EB"/>
    <path d="M20.8678 420H24.8678V424H20.8678V420Z" fill="#E5E7EB"/>
    <path d="M40.8678 420H44.8678V424H40.8678V420Z" fill="#E5E7EB"/>
    <path d="M60.8678 420H64.8678V424H60.8678V420Z" fill="#E5E7EB"/>
    <path d="M80.8678 420H84.8678V424H80.8678V420Z" fill="#E5E7EB"/>
    <path d="M100.868 420H104.868V424H100.868V420Z" fill="#E5E7EB"/>
    <path d="M120.868 420H124.868V424H120.868V420Z" fill="#E5E7EB"/>
    <path d="M140.868 420H144.868V424H140.868V420Z" fill="#E5E7EB"/>
    <path d="M160.868 420H164.868V424H160.868V420Z" fill="#E5E7EB"/>
    <path d="M180.868 420H184.868V424H180.868V420Z" fill="#E5E7EB"/>
    <path d="M200.868 420H204.868V424H200.868V420Z" fill="#E5E7EB"/>
    <path d="M220.868 420H224.868V424H220.868V420Z" fill="#E5E7EB"/>
    <path d="M240.868 420H244.868V424H240.868V420Z" fill="#E5E7EB"/>
    <path d="M260.868 420H264.868V424H260.868V420Z" fill="#E5E7EB"/>
    <path d="M280.868 420H284.868V424H280.868V420Z" fill="#E5E7EB"/>
    <path d="M300.868 420H304.868V424H300.868V420Z" fill="#E5E7EB"/>
    <path d="M320.868 420H324.868V424H320.868V420Z" fill="#E5E7EB"/>
    <path d="M340.868 420H344.868V424H340.868V420Z" fill="#E5E7EB"/>
    <path d="M360.868 420H364.868V424H360.868V420Z" fill="#E5E7EB"/>
    <path d="M380.868 420H384.868V424H380.868V420Z" fill="#E5E7EB"/>
    <path d="M400.868 420H404.868V424H400.868V420Z" fill="#E5E7EB"/>
    <path d="M0.867798 440H4.8678V444H0.867798V440Z" fill="#E5E7EB"/>
    <path d="M20.8678 440H24.8678V444H20.8678V440Z" fill="#E5E7EB"/>
    <path d="M40.8678 440H44.8678V444H40.8678V440Z" fill="#E5E7EB"/>
    <path d="M60.8678 440H64.8678V444H60.8678V440Z" fill="#E5E7EB"/>
    <path d="M80.8678 440H84.8678V444H80.8678V440Z" fill="#E5E7EB"/>
    <path d="M100.868 440H104.868V444H100.868V440Z" fill="#E5E7EB"/>
    <path d="M120.868 440H124.868V444H120.868V440Z" fill="#E5E7EB"/>
    <path d="M140.868 440H144.868V444H140.868V440Z" fill="#E5E7EB"/>
    <path d="M160.868 440H164.868V444H160.868V440Z" fill="#E5E7EB"/>
    <path d="M180.868 440H184.868V444H180.868V440Z" fill="#E5E7EB"/>
    <path d="M200.868 440H204.868V444H200.868V440Z" fill="#E5E7EB"/>
    <path d="M220.868 440H224.868V444H220.868V440Z" fill="#E5E7EB"/>
    <path d="M240.868 440H244.868V444H240.868V440Z" fill="#E5E7EB"/>
    <path d="M260.868 440H264.868V444H260.868V440Z" fill="#E5E7EB"/>
    <path d="M280.868 440H284.868V444H280.868V440Z" fill="#E5E7EB"/>
    <path d="M300.868 440H304.868V444H300.868V440Z" fill="#E5E7EB"/>
    <path d="M320.868 440H324.868V444H320.868V440Z" fill="#E5E7EB"/>
    <path d="M340.868 440H344.868V444H340.868V440Z" fill="#E5E7EB"/>
    <path d="M360.868 440H364.868V444H360.868V440Z" fill="#E5E7EB"/>
    <path d="M380.868 440H384.868V444H380.868V440Z" fill="#E5E7EB"/>
    <path d="M400.868 440H404.868V444H400.868V440Z" fill="#E5E7EB"/>
    <path d="M0.867798 460H4.8678V464H0.867798V460Z" fill="#E5E7EB"/>
    <path d="M20.8678 460H24.8678V464H20.8678V460Z" fill="#E5E7EB"/>
    <path d="M40.8678 460H44.8678V464H40.8678V460Z" fill="#E5E7EB"/>
    <path d="M60.8678 460H64.8678V464H60.8678V460Z" fill="#E5E7EB"/>
    <path d="M80.8678 460H84.8678V464H80.8678V460Z" fill="#E5E7EB"/>
    <path d="M100.868 460H104.868V464H100.868V460Z" fill="#E5E7EB"/>
    <path d="M120.868 460H124.868V464H120.868V460Z" fill="#E5E7EB"/>
    <path d="M140.868 460H144.868V464H140.868V460Z" fill="#E5E7EB"/>
    <path d="M160.868 460H164.868V464H160.868V460Z" fill="#E5E7EB"/>
    <path d="M180.868 460H184.868V464H180.868V460Z" fill="#E5E7EB"/>
    <path d="M200.868 460H204.868V464H200.868V460Z" fill="#E5E7EB"/>
    <path d="M220.868 460H224.868V464H220.868V460Z" fill="#E5E7EB"/>
    <path d="M240.868 460H244.868V464H240.868V460Z" fill="#E5E7EB"/>
    <path d="M260.868 460H264.868V464H260.868V460Z" fill="#E5E7EB"/>
    <path d="M280.868 460H284.868V464H280.868V460Z" fill="#E5E7EB"/>
    <path d="M300.868 460H304.868V464H300.868V460Z" fill="#E5E7EB"/>
    <path d="M320.868 460H324.868V464H320.868V460Z" fill="#E5E7EB"/>
    <path d="M340.868 460H344.868V464H340.868V460Z" fill="#E5E7EB"/>
    <path d="M360.868 460H364.868V464H360.868V460Z" fill="#E5E7EB"/>
    <path d="M380.868 460H384.868V464H380.868V460Z" fill="#E5E7EB"/>
    <path d="M400.868 460H404.868V464H400.868V460Z" fill="#E5E7EB"/>
    <path d="M0.867798 480H4.8678V484H0.867798V480Z" fill="#E5E7EB"/>
    <path d="M20.8678 480H24.8678V484H20.8678V480Z" fill="#E5E7EB"/>
    <path d="M40.8678 480H44.8678V484H40.8678V480Z" fill="#E5E7EB"/>
    <path d="M60.8678 480H64.8678V484H60.8678V480Z" fill="#E5E7EB"/>
    <path d="M80.8678 480H84.8678V484H80.8678V480Z" fill="#E5E7EB"/>
    <path d="M100.868 480H104.868V484H100.868V480Z" fill="#E5E7EB"/>
    <path d="M120.868 480H124.868V484H120.868V480Z" fill="#E5E7EB"/>
    <path d="M140.868 480H144.868V484H140.868V480Z" fill="#E5E7EB"/>
    <path d="M160.868 480H164.868V484H160.868V480Z" fill="#E5E7EB"/>
    <path d="M180.868 480H184.868V484H180.868V480Z" fill="#E5E7EB"/>
    <path d="M200.868 480H204.868V484H200.868V480Z" fill="#E5E7EB"/>
    <path d="M220.868 480H224.868V484H220.868V480Z" fill="#E5E7EB"/>
    <path d="M240.868 480H244.868V484H240.868V480Z" fill="#E5E7EB"/>
    <path d="M260.868 480H264.868V484H260.868V480Z" fill="#E5E7EB"/>
    <path d="M280.868 480H284.868V484H280.868V480Z" fill="#E5E7EB"/>
    <path d="M300.868 480H304.868V484H300.868V480Z" fill="#E5E7EB"/>
    <path d="M320.868 480H324.868V484H320.868V480Z" fill="#E5E7EB"/>
    <path d="M340.868 480H344.868V484H340.868V480Z" fill="#E5E7EB"/>
    <path d="M360.868 480H364.868V484H360.868V480Z" fill="#E5E7EB"/>
    <path d="M380.868 480H384.868V484H380.868V480Z" fill="#E5E7EB"/>
    <path d="M400.868 480H404.868V484H400.868V480Z" fill="#E5E7EB"/>
    <path d="M0.867798 500H4.8678V504H0.867798V500Z" fill="#E5E7EB"/>
    <path d="M20.8678 500H24.8678V504H20.8678V500Z" fill="#E5E7EB"/>
    <path d="M40.8678 500H44.8678V504H40.8678V500Z" fill="#E5E7EB"/>
    <path d="M60.8678 500H64.8678V504H60.8678V500Z" fill="#E5E7EB"/>
    <path d="M80.8678 500H84.8678V504H80.8678V500Z" fill="#E5E7EB"/>
    <path d="M100.868 500H104.868V504H100.868V500Z" fill="#E5E7EB"/>
    <path d="M120.868 500H124.868V504H120.868V500Z" fill="#E5E7EB"/>
    <path d="M140.868 500H144.868V504H140.868V500Z" fill="#E5E7EB"/>
    <path d="M160.868 500H164.868V504H160.868V500Z" fill="#E5E7EB"/>
    <path d="M180.868 500H184.868V504H180.868V500Z" fill="#E5E7EB"/>
    <path d="M200.868 500H204.868V504H200.868V500Z" fill="#E5E7EB"/>
    <path d="M220.868 500H224.868V504H220.868V500Z" fill="#E5E7EB"/>
    <path d="M240.868 500H244.868V504H240.868V500Z" fill="#E5E7EB"/>
    <path d="M260.868 500H264.868V504H260.868V500Z" fill="#E5E7EB"/>
    <path d="M280.868 500H284.868V504H280.868V500Z" fill="#E5E7EB"/>
    <path d="M300.868 500H304.868V504H300.868V500Z" fill="#E5E7EB"/>
    <path d="M320.868 500H324.868V504H320.868V500Z" fill="#E5E7EB"/>
    <path d="M340.868 500H344.868V504H340.868V500Z" fill="#E5E7EB"/>
    <path d="M360.868 500H364.868V504H360.868V500Z" fill="#E5E7EB"/>
    <path d="M380.868 500H384.868V504H380.868V500Z" fill="#E5E7EB"/>
    <path d="M400.868 500H404.868V504H400.868V500Z" fill="#E5E7EB"/>
    <path d="M0.867798 520H4.8678V524H0.867798V520Z" fill="#E5E7EB"/>
    <path d="M20.8678 520H24.8678V524H20.8678V520Z" fill="#E5E7EB"/>
    <path d="M40.8678 520H44.8678V524H40.8678V520Z" fill="#E5E7EB"/>
    <path d="M60.8678 520H64.8678V524H60.8678V520Z" fill="#E5E7EB"/>
    <path d="M80.8678 520H84.8678V524H80.8678V520Z" fill="#E5E7EB"/>
    <path d="M100.868 520H104.868V524H100.868V520Z" fill="#E5E7EB"/>
    <path d="M120.868 520H124.868V524H120.868V520Z" fill="#E5E7EB"/>
    <path d="M140.868 520H144.868V524H140.868V520Z" fill="#E5E7EB"/>
    <path d="M160.868 520H164.868V524H160.868V520Z" fill="#E5E7EB"/>
    <path d="M180.868 520H184.868V524H180.868V520Z" fill="#E5E7EB"/>
    <path d="M200.868 520H204.868V524H200.868V520Z" fill="#E5E7EB"/>
    <path d="M220.868 520H224.868V524H220.868V520Z" fill="#E5E7EB"/>
    <path d="M240.868 520H244.868V524H240.868V520Z" fill="#E5E7EB"/>
    <path d="M260.868 520H264.868V524H260.868V520Z" fill="#E5E7EB"/>
    <path d="M280.868 520H284.868V524H280.868V520Z" fill="#E5E7EB"/>
    <path d="M300.868 520H304.868V524H300.868V520Z" fill="#E5E7EB"/>
    <path d="M320.868 520H324.868V524H320.868V520Z" fill="#E5E7EB"/>
    <path d="M340.868 520H344.868V524H340.868V520Z" fill="#E5E7EB"/>
    <path d="M360.868 520H364.868V524H360.868V520Z" fill="#E5E7EB"/>
    <path d="M380.868 520H384.868V524H380.868V520Z" fill="#E5E7EB"/>
    <path d="M400.868 520H404.868V524H400.868V520Z" fill="#E5E7EB"/>
    <path d="M0.867798 540H4.8678V544H0.867798V540Z" fill="#E5E7EB"/>
    <path d="M20.8678 540H24.8678V544H20.8678V540Z" fill="#E5E7EB"/>
    <path d="M40.8678 540H44.8678V544H40.8678V540Z" fill="#E5E7EB"/>
    <path d="M60.8678 540H64.8678V544H60.8678V540Z" fill="#E5E7EB"/>
    <path d="M80.8678 540H84.8678V544H80.8678V540Z" fill="#E5E7EB"/>
    <path d="M100.868 540H104.868V544H100.868V540Z" fill="#E5E7EB"/>
    <path d="M120.868 540H124.868V544H120.868V540Z" fill="#E5E7EB"/>
    <path d="M140.868 540H144.868V544H140.868V540Z" fill="#E5E7EB"/>
    <path d="M160.868 540H164.868V544H160.868V540Z" fill="#E5E7EB"/>
    <path d="M180.868 540H184.868V544H180.868V540Z" fill="#E5E7EB"/>
    <path d="M200.868 540H204.868V544H200.868V540Z" fill="#E5E7EB"/>
    <path d="M220.868 540H224.868V544H220.868V540Z" fill="#E5E7EB"/>
    <path d="M240.868 540H244.868V544H240.868V540Z" fill="#E5E7EB"/>
    <path d="M260.868 540H264.868V544H260.868V540Z" fill="#E5E7EB"/>
    <path d="M280.868 540H284.868V544H280.868V540Z" fill="#E5E7EB"/>
    <path d="M300.868 540H304.868V544H300.868V540Z" fill="#E5E7EB"/>
    <path d="M320.868 540H324.868V544H320.868V540Z" fill="#E5E7EB"/>
    <path d="M340.868 540H344.868V544H340.868V540Z" fill="#E5E7EB"/>
    <path d="M360.868 540H364.868V544H360.868V540Z" fill="#E5E7EB"/>
    <path d="M380.868 540H384.868V544H380.868V540Z" fill="#E5E7EB"/>
    <path d="M400.868 540H404.868V544H400.868V540Z" fill="#E5E7EB"/>
    <path d="M0.867798 560H4.8678V564H0.867798V560Z" fill="#E5E7EB"/>
    <path d="M20.8678 560H24.8678V564H20.8678V560Z" fill="#E5E7EB"/>
    <path d="M40.8678 560H44.8678V564H40.8678V560Z" fill="#E5E7EB"/>
    <path d="M60.8678 560H64.8678V564H60.8678V560Z" fill="#E5E7EB"/>
    <path d="M80.8678 560H84.8678V564H80.8678V560Z" fill="#E5E7EB"/>
    <path d="M100.868 560H104.868V564H100.868V560Z" fill="#E5E7EB"/>
    <path d="M120.868 560H124.868V564H120.868V560Z" fill="#E5E7EB"/>
    <path d="M140.868 560H144.868V564H140.868V560Z" fill="#E5E7EB"/>
    <path d="M160.868 560H164.868V564H160.868V560Z" fill="#E5E7EB"/>
    <path d="M180.868 560H184.868V564H180.868V560Z" fill="#E5E7EB"/>
    <path d="M200.868 560H204.868V564H200.868V560Z" fill="#E5E7EB"/>
    <path d="M220.868 560H224.868V564H220.868V560Z" fill="#E5E7EB"/>
    <path d="M240.868 560H244.868V564H240.868V560Z" fill="#E5E7EB"/>
    <path d="M260.868 560H264.868V564H260.868V560Z" fill="#E5E7EB"/>
    <path d="M280.868 560H284.868V564H280.868V560Z" fill="#E5E7EB"/>
    <path d="M300.868 560H304.868V564H300.868V560Z" fill="#E5E7EB"/>
    <path d="M320.868 560H324.868V564H320.868V560Z" fill="#E5E7EB"/>
    <path d="M340.868 560H344.868V564H340.868V560Z" fill="#E5E7EB"/>
    <path d="M360.868 560H364.868V564H360.868V560Z" fill="#E5E7EB"/>
    <path d="M380.868 560H384.868V564H380.868V560Z" fill="#E5E7EB"/>
    <path d="M400.868 560H404.868V564H400.868V560Z" fill="#E5E7EB"/>
    <path d="M0.867798 580H4.8678V584H0.867798V580Z" fill="#E5E7EB"/>
    <path d="M20.8678 580H24.8678V584H20.8678V580Z" fill="#E5E7EB"/>
    <path d="M40.8678 580H44.8678V584H40.8678V580Z" fill="#E5E7EB"/>
    <path d="M60.8678 580H64.8678V584H60.8678V580Z" fill="#E5E7EB"/>
    <path d="M80.8678 580H84.8678V584H80.8678V580Z" fill="#E5E7EB"/>
    <path d="M100.868 580H104.868V584H100.868V580Z" fill="#E5E7EB"/>
    <path d="M120.868 580H124.868V584H120.868V580Z" fill="#E5E7EB"/>
    <path d="M140.868 580H144.868V584H140.868V580Z" fill="#E5E7EB"/>
    <path d="M160.868 580H164.868V584H160.868V580Z" fill="#E5E7EB"/>
    <path d="M180.868 580H184.868V584H180.868V580Z" fill="#E5E7EB"/>
    <path d="M200.868 580H204.868V584H200.868V580Z" fill="#E5E7EB"/>
    <path d="M220.868 580H224.868V584H220.868V580Z" fill="#E5E7EB"/>
    <path d="M240.868 580H244.868V584H240.868V580Z" fill="#E5E7EB"/>
    <path d="M260.868 580H264.868V584H260.868V580Z" fill="#E5E7EB"/>
    <path d="M280.868 580H284.868V584H280.868V580Z" fill="#E5E7EB"/>
    <path d="M300.868 580H304.868V584H300.868V580Z" fill="#E5E7EB"/>
    <path d="M320.868 580H324.868V584H320.868V580Z" fill="#E5E7EB"/>
    <path d="M340.868 580H344.868V584H340.868V580Z" fill="#E5E7EB"/>
    <path d="M360.868 580H364.868V584H360.868V580Z" fill="#E5E7EB"/>
    <path d="M380.868 580H384.868V584H380.868V580Z" fill="#E5E7EB"/>
    <path d="M400.868 580H404.868V584H400.868V580Z" fill="#E5E7EB"/>
    <path d="M0.867798 600H4.8678V604H0.867798V600Z" fill="#E5E7EB"/>
    <path d="M20.8678 600H24.8678V604H20.8678V600Z" fill="#E5E7EB"/>
    <path d="M40.8678 600H44.8678V604H40.8678V600Z" fill="#E5E7EB"/>
    <path d="M60.8678 600H64.8678V604H60.8678V600Z" fill="#E5E7EB"/>
    <path d="M80.8678 600H84.8678V604H80.8678V600Z" fill="#E5E7EB"/>
    <path d="M100.868 600H104.868V604H100.868V600Z" fill="#E5E7EB"/>
    <path d="M120.868 600H124.868V604H120.868V600Z" fill="#E5E7EB"/>
    <path d="M140.868 600H144.868V604H140.868V600Z" fill="#E5E7EB"/>
    <path d="M160.868 600H164.868V604H160.868V600Z" fill="#E5E7EB"/>
    <path d="M180.868 600H184.868V604H180.868V600Z" fill="#E5E7EB"/>
    <path d="M200.868 600H204.868V604H200.868V600Z" fill="#E5E7EB"/>
    <path d="M220.868 600H224.868V604H220.868V600Z" fill="#E5E7EB"/>
    <path d="M240.868 600H244.868V604H240.868V600Z" fill="#E5E7EB"/>
    <path d="M260.868 600H264.868V604H260.868V600Z" fill="#E5E7EB"/>
    <path d="M280.868 600H284.868V604H280.868V600Z" fill="#E5E7EB"/>
    <path d="M300.868 600H304.868V604H300.868V600Z" fill="#E5E7EB"/>
    <path d="M320.868 600H324.868V604H320.868V600Z" fill="#E5E7EB"/>
    <path d="M340.868 600H344.868V604H340.868V600Z" fill="#E5E7EB"/>
    <path d="M360.868 600H364.868V604H360.868V600Z" fill="#E5E7EB"/>
    <path d="M380.868 600H384.868V604H380.868V600Z" fill="#E5E7EB"/>
    <path d="M400.868 600H404.868V604H400.868V600Z" fill="#E5E7EB"/>
    <path d="M0.867798 620H4.8678V624H0.867798V620Z" fill="#E5E7EB"/>
    <path d="M20.8678 620H24.8678V624H20.8678V620Z" fill="#E5E7EB"/>
    <path d="M40.8678 620H44.8678V624H40.8678V620Z" fill="#E5E7EB"/>
    <path d="M60.8678 620H64.8678V624H60.8678V620Z" fill="#E5E7EB"/>
    <path d="M80.8678 620H84.8678V624H80.8678V620Z" fill="#E5E7EB"/>
    <path d="M100.868 620H104.868V624H100.868V620Z" fill="#E5E7EB"/>
    <path d="M120.868 620H124.868V624H120.868V620Z" fill="#E5E7EB"/>
    <path d="M140.868 620H144.868V624H140.868V620Z" fill="#E5E7EB"/>
    <path d="M160.868 620H164.868V624H160.868V620Z" fill="#E5E7EB"/>
    <path d="M180.868 620H184.868V624H180.868V620Z" fill="#E5E7EB"/>
    <path d="M200.868 620H204.868V624H200.868V620Z" fill="#E5E7EB"/>
    <path d="M220.868 620H224.868V624H220.868V620Z" fill="#E5E7EB"/>
    <path d="M240.868 620H244.868V624H240.868V620Z" fill="#E5E7EB"/>
    <path d="M260.868 620H264.868V624H260.868V620Z" fill="#E5E7EB"/>
    <path d="M280.868 620H284.868V624H280.868V620Z" fill="#E5E7EB"/>
    <path d="M300.868 620H304.868V624H300.868V620Z" fill="#E5E7EB"/>
    <path d="M320.868 620H324.868V624H320.868V620Z" fill="#E5E7EB"/>
    <path d="M340.868 620H344.868V624H340.868V620Z" fill="#E5E7EB"/>
    <path d="M360.868 620H364.868V624H360.868V620Z" fill="#E5E7EB"/>
    <path d="M380.868 620H384.868V624H380.868V620Z" fill="#E5E7EB"/>
    <path d="M400.868 620H404.868V624H400.868V620Z" fill="#E5E7EB"/>
    <path d="M0.867798 640H4.8678V644H0.867798V640Z" fill="#E5E7EB"/>
    <path d="M20.8678 640H24.8678V644H20.8678V640Z" fill="#E5E7EB"/>
    <path d="M40.8678 640H44.8678V644H40.8678V640Z" fill="#E5E7EB"/>
    <path d="M60.8678 640H64.8678V644H60.8678V640Z" fill="#E5E7EB"/>
    <path d="M80.8678 640H84.8678V644H80.8678V640Z" fill="#E5E7EB"/>
    <path d="M100.868 640H104.868V644H100.868V640Z" fill="#E5E7EB"/>
    <path d="M120.868 640H124.868V644H120.868V640Z" fill="#E5E7EB"/>
    <path d="M140.868 640H144.868V644H140.868V640Z" fill="#E5E7EB"/>
    <path d="M160.868 640H164.868V644H160.868V640Z" fill="#E5E7EB"/>
    <path d="M180.868 640H184.868V644H180.868V640Z" fill="#E5E7EB"/>
    <path d="M200.868 640H204.868V644H200.868V640Z" fill="#E5E7EB"/>
    <path d="M220.868 640H224.868V644H220.868V640Z" fill="#E5E7EB"/>
    <path d="M240.868 640H244.868V644H240.868V640Z" fill="#E5E7EB"/>
    <path d="M260.868 640H264.868V644H260.868V640Z" fill="#E5E7EB"/>
    <path d="M280.868 640H284.868V644H280.868V640Z" fill="#E5E7EB"/>
    <path d="M300.868 640H304.868V644H300.868V640Z" fill="#E5E7EB"/>
    <path d="M320.868 640H324.868V644H320.868V640Z" fill="#E5E7EB"/>
    <path d="M340.868 640H344.868V644H340.868V640Z" fill="#E5E7EB"/>
    <path d="M360.868 640H364.868V644H360.868V640Z" fill="#E5E7EB"/>
    <path d="M380.868 640H384.868V644H380.868V640Z" fill="#E5E7EB"/>
    <path d="M400.868 640H404.868V644H400.868V640Z" fill="#E5E7EB"/>
    <path d="M0.867798 660H4.8678V664H0.867798V660Z" fill="#E5E7EB"/>
    <path d="M20.8678 660H24.8678V664H20.8678V660Z" fill="#E5E7EB"/>
    <path d="M40.8678 660H44.8678V664H40.8678V660Z" fill="#E5E7EB"/>
    <path d="M60.8678 660H64.8678V664H60.8678V660Z" fill="#E5E7EB"/>
    <path d="M80.8678 660H84.8678V664H80.8678V660Z" fill="#E5E7EB"/>
    <path d="M100.868 660H104.868V664H100.868V660Z" fill="#E5E7EB"/>
    <path d="M120.868 660H124.868V664H120.868V660Z" fill="#E5E7EB"/>
    <path d="M140.868 660H144.868V664H140.868V660Z" fill="#E5E7EB"/>
    <path d="M160.868 660H164.868V664H160.868V660Z" fill="#E5E7EB"/>
    <path d="M180.868 660H184.868V664H180.868V660Z" fill="#E5E7EB"/>
    <path d="M200.868 660H204.868V664H200.868V660Z" fill="#E5E7EB"/>
    <path d="M220.868 660H224.868V664H220.868V660Z" fill="#E5E7EB"/>
    <path d="M240.868 660H244.868V664H240.868V660Z" fill="#E5E7EB"/>
    <path d="M260.868 660H264.868V664H260.868V660Z" fill="#E5E7EB"/>
    <path d="M280.868 660H284.868V664H280.868V660Z" fill="#E5E7EB"/>
    <path d="M300.868 660H304.868V664H300.868V660Z" fill="#E5E7EB"/>
    <path d="M320.868 660H324.868V664H320.868V660Z" fill="#E5E7EB"/>
    <path d="M340.868 660H344.868V664H340.868V660Z" fill="#E5E7EB"/>
    <path d="M360.868 660H364.868V664H360.868V660Z" fill="#E5E7EB"/>
    <path d="M380.868 660H384.868V664H380.868V660Z" fill="#E5E7EB"/>
    <path d="M400.868 660H404.868V664H400.868V660Z" fill="#E5E7EB"/>
    <path d="M0.867798 680H4.8678V684H0.867798V680Z" fill="#E5E7EB"/>
    <path d="M20.8678 680H24.8678V684H20.8678V680Z" fill="#E5E7EB"/>
    <path d="M40.8678 680H44.8678V684H40.8678V680Z" fill="#E5E7EB"/>
    <path d="M60.8678 680H64.8678V684H60.8678V680Z" fill="#E5E7EB"/>
    <path d="M80.8678 680H84.8678V684H80.8678V680Z" fill="#E5E7EB"/>
    <path d="M100.868 680H104.868V684H100.868V680Z" fill="#E5E7EB"/>
    <path d="M120.868 680H124.868V684H120.868V680Z" fill="#E5E7EB"/>
    <path d="M140.868 680H144.868V684H140.868V680Z" fill="#E5E7EB"/>
    <path d="M160.868 680H164.868V684H160.868V680Z" fill="#E5E7EB"/>
    <path d="M180.868 680H184.868V684H180.868V680Z" fill="#E5E7EB"/>
    <path d="M200.868 680H204.868V684H200.868V680Z" fill="#E5E7EB"/>
    <path d="M220.868 680H224.868V684H220.868V680Z" fill="#E5E7EB"/>
    <path d="M240.868 680H244.868V684H240.868V680Z" fill="#E5E7EB"/>
    <path d="M260.868 680H264.868V684H260.868V680Z" fill="#E5E7EB"/>
    <path d="M280.868 680H284.868V684H280.868V680Z" fill="#E5E7EB"/>
    <path d="M300.868 680H304.868V684H300.868V680Z" fill="#E5E7EB"/>
    <path d="M320.868 680H324.868V684H320.868V680Z" fill="#E5E7EB"/>
    <path d="M340.868 680H344.868V684H340.868V680Z" fill="#E5E7EB"/>
    <path d="M360.868 680H364.868V684H360.868V680Z" fill="#E5E7EB"/>
    <path d="M380.868 680H384.868V684H380.868V680Z" fill="#E5E7EB"/>
    <path d="M400.868 680H404.868V684H400.868V680Z" fill="#E5E7EB"/>
    <path d="M0.867798 700H4.8678V704H0.867798V700Z" fill="#E5E7EB"/>
    <path d="M20.8678 700H24.8678V704H20.8678V700Z" fill="#E5E7EB"/>
    <path d="M40.8678 700H44.8678V704H40.8678V700Z" fill="#E5E7EB"/>
    <path d="M60.8678 700H64.8678V704H60.8678V700Z" fill="#E5E7EB"/>
    <path d="M80.8678 700H84.8678V704H80.8678V700Z" fill="#E5E7EB"/>
    <path d="M100.868 700H104.868V704H100.868V700Z" fill="#E5E7EB"/>
    <path d="M120.868 700H124.868V704H120.868V700Z" fill="#E5E7EB"/>
    <path d="M140.868 700H144.868V704H140.868V700Z" fill="#E5E7EB"/>
    <path d="M160.868 700H164.868V704H160.868V700Z" fill="#E5E7EB"/>
    <path d="M180.868 700H184.868V704H180.868V700Z" fill="#E5E7EB"/>
    <path d="M200.868 700H204.868V704H200.868V700Z" fill="#E5E7EB"/>
    <path d="M220.868 700H224.868V704H220.868V700Z" fill="#E5E7EB"/>
    <path d="M240.868 700H244.868V704H240.868V700Z" fill="#E5E7EB"/>
    <path d="M260.868 700H264.868V704H260.868V700Z" fill="#E5E7EB"/>
    <path d="M280.868 700H284.868V704H280.868V700Z" fill="#E5E7EB"/>
    <path d="M300.868 700H304.868V704H300.868V700Z" fill="#E5E7EB"/>
    <path d="M320.868 700H324.868V704H320.868V700Z" fill="#E5E7EB"/>
    <path d="M340.868 700H344.868V704H340.868V700Z" fill="#E5E7EB"/>
    <path d="M360.868 700H364.868V704H360.868V700Z" fill="#E5E7EB"/>
    <path d="M380.868 700H384.868V704H380.868V700Z" fill="#E5E7EB"/>
    <path d="M400.868 700H404.868V704H400.868V700Z" fill="#E5E7EB"/>
    <path d="M0.867798 720H4.8678V724H0.867798V720Z" fill="#E5E7EB"/>
    <path d="M20.8678 720H24.8678V724H20.8678V720Z" fill="#E5E7EB"/>
    <path d="M40.8678 720H44.8678V724H40.8678V720Z" fill="#E5E7EB"/>
    <path d="M60.8678 720H64.8678V724H60.8678V720Z" fill="#E5E7EB"/>
    <path d="M80.8678 720H84.8678V724H80.8678V720Z" fill="#E5E7EB"/>
    <path d="M100.868 720H104.868V724H100.868V720Z" fill="#E5E7EB"/>
    <path d="M120.868 720H124.868V724H120.868V720Z" fill="#E5E7EB"/>
    <path d="M140.868 720H144.868V724H140.868V720Z" fill="#E5E7EB"/>
    <path d="M160.868 720H164.868V724H160.868V720Z" fill="#E5E7EB"/>
    <path d="M180.868 720H184.868V724H180.868V720Z" fill="#E5E7EB"/>
    <path d="M200.868 720H204.868V724H200.868V720Z" fill="#E5E7EB"/>
    <path d="M220.868 720H224.868V724H220.868V720Z" fill="#E5E7EB"/>
    <path d="M240.868 720H244.868V724H240.868V720Z" fill="#E5E7EB"/>
    <path d="M260.868 720H264.868V724H260.868V720Z" fill="#E5E7EB"/>
    <path d="M280.868 720H284.868V724H280.868V720Z" fill="#E5E7EB"/>
    <path d="M300.868 720H304.868V724H300.868V720Z" fill="#E5E7EB"/>
    <path d="M320.868 720H324.868V724H320.868V720Z" fill="#E5E7EB"/>
    <path d="M340.868 720H344.868V724H340.868V720Z" fill="#E5E7EB"/>
    <path d="M360.868 720H364.868V724H360.868V720Z" fill="#E5E7EB"/>
    <path d="M380.868 720H384.868V724H380.868V720Z" fill="#E5E7EB"/>
    <path d="M400.868 720H404.868V724H400.868V720Z" fill="#E5E7EB"/>
    <path d="M0.867798 740H4.8678V744H0.867798V740Z" fill="#E5E7EB"/>
    <path d="M20.8678 740H24.8678V744H20.8678V740Z" fill="#E5E7EB"/>
    <path d="M40.8678 740H44.8678V744H40.8678V740Z" fill="#E5E7EB"/>
    <path d="M60.8678 740H64.8678V744H60.8678V740Z" fill="#E5E7EB"/>
    <path d="M80.8678 740H84.8678V744H80.8678V740Z" fill="#E5E7EB"/>
    <path d="M100.868 740H104.868V744H100.868V740Z" fill="#E5E7EB"/>
    <path d="M120.868 740H124.868V744H120.868V740Z" fill="#E5E7EB"/>
    <path d="M140.868 740H144.868V744H140.868V740Z" fill="#E5E7EB"/>
    <path d="M160.868 740H164.868V744H160.868V740Z" fill="#E5E7EB"/>
    <path d="M180.868 740H184.868V744H180.868V740Z" fill="#E5E7EB"/>
    <path d="M200.868 740H204.868V744H200.868V740Z" fill="#E5E7EB"/>
    <path d="M220.868 740H224.868V744H220.868V740Z" fill="#E5E7EB"/>
    <path d="M240.868 740H244.868V744H240.868V740Z" fill="#E5E7EB"/>
    <path d="M260.868 740H264.868V744H260.868V740Z" fill="#E5E7EB"/>
    <path d="M280.868 740H284.868V744H280.868V740Z" fill="#E5E7EB"/>
    <path d="M300.868 740H304.868V744H300.868V740Z" fill="#E5E7EB"/>
    <path d="M320.868 740H324.868V744H320.868V740Z" fill="#E5E7EB"/>
    <path d="M340.868 740H344.868V744H340.868V740Z" fill="#E5E7EB"/>
    <path d="M360.868 740H364.868V744H360.868V740Z" fill="#E5E7EB"/>
    <path d="M380.868 740H384.868V744H380.868V740Z" fill="#E5E7EB"/>
    <path d="M400.868 740H404.868V744H400.868V740Z" fill="#E5E7EB"/>
    <path d="M0.867798 760H4.8678V764H0.867798V760Z" fill="#E5E7EB"/>
    <path d="M20.8678 760H24.8678V764H20.8678V760Z" fill="#E5E7EB"/>
    <path d="M40.8678 760H44.8678V764H40.8678V760Z" fill="#E5E7EB"/>
    <path d="M60.8678 760H64.8678V764H60.8678V760Z" fill="#E5E7EB"/>
    <path d="M80.8678 760H84.8678V764H80.8678V760Z" fill="#E5E7EB"/>
    <path d="M100.868 760H104.868V764H100.868V760Z" fill="#E5E7EB"/>
    <path d="M120.868 760H124.868V764H120.868V760Z" fill="#E5E7EB"/>
    <path d="M140.868 760H144.868V764H140.868V760Z" fill="#E5E7EB"/>
    <path d="M160.868 760H164.868V764H160.868V760Z" fill="#E5E7EB"/>
    <path d="M180.868 760H184.868V764H180.868V760Z" fill="#E5E7EB"/>
    <path d="M200.868 760H204.868V764H200.868V760Z" fill="#E5E7EB"/>
    <path d="M220.868 760H224.868V764H220.868V760Z" fill="#E5E7EB"/>
    <path d="M240.868 760H244.868V764H240.868V760Z" fill="#E5E7EB"/>
    <path d="M260.868 760H264.868V764H260.868V760Z" fill="#E5E7EB"/>
    <path d="M280.868 760H284.868V764H280.868V760Z" fill="#E5E7EB"/>
    <path d="M300.868 760H304.868V764H300.868V760Z" fill="#E5E7EB"/>
    <path d="M320.868 760H324.868V764H320.868V760Z" fill="#E5E7EB"/>
    <path d="M340.868 760H344.868V764H340.868V760Z" fill="#E5E7EB"/>
    <path d="M360.868 760H364.868V764H360.868V760Z" fill="#E5E7EB"/>
    <path d="M380.868 760H384.868V764H380.868V760Z" fill="#E5E7EB"/>
    <path d="M400.868 760H404.868V764H400.868V760Z" fill="#E5E7EB"/>
    <path d="M0.867798 780H4.8678V784H0.867798V780Z" fill="#E5E7EB"/>
    <path d="M20.8678 780H24.8678V784H20.8678V780Z" fill="#E5E7EB"/>
    <path d="M40.8678 780H44.8678V784H40.8678V780Z" fill="#E5E7EB"/>
    <path d="M60.8678 780H64.8678V784H60.8678V780Z" fill="#E5E7EB"/>
    <path d="M80.8678 780H84.8678V784H80.8678V780Z" fill="#E5E7EB"/>
    <path d="M100.868 780H104.868V784H100.868V780Z" fill="#E5E7EB"/>
    <path d="M120.868 780H124.868V784H120.868V780Z" fill="#E5E7EB"/>
    <path d="M140.868 780H144.868V784H140.868V780Z" fill="#E5E7EB"/>
    <path d="M160.868 780H164.868V784H160.868V780Z" fill="#E5E7EB"/>
    <path d="M180.868 780H184.868V784H180.868V780Z" fill="#E5E7EB"/>
    <path d="M200.868 780H204.868V784H200.868V780Z" fill="#E5E7EB"/>
    <path d="M220.868 780H224.868V784H220.868V780Z" fill="#E5E7EB"/>
    <path d="M240.868 780H244.868V784H240.868V780Z" fill="#E5E7EB"/>
    <path d="M260.868 780H264.868V784H260.868V780Z" fill="#E5E7EB"/>
    <path d="M280.868 780H284.868V784H280.868V780Z" fill="#E5E7EB"/>
    <path d="M300.868 780H304.868V784H300.868V780Z" fill="#E5E7EB"/>
    <path d="M320.868 780H324.868V784H320.868V780Z" fill="#E5E7EB"/>
    <path d="M340.868 780H344.868V784H340.868V780Z" fill="#E5E7EB"/>
    <path d="M360.868 780H364.868V784H360.868V780Z" fill="#E5E7EB"/>
    <path d="M380.868 780H384.868V784H380.868V780Z" fill="#E5E7EB"/>
    <path d="M400.868 780H404.868V784H400.868V780Z" fill="#E5E7EB"/>
    <path d="M0.867798 800H4.8678V804H0.867798V800Z" fill="#E5E7EB"/>
    <path d="M20.8678 800H24.8678V804H20.8678V800Z" fill="#E5E7EB"/>
    <path d="M40.8678 800H44.8678V804H40.8678V800Z" fill="#E5E7EB"/>
    <path d="M60.8678 800H64.8678V804H60.8678V800Z" fill="#E5E7EB"/>
    <path d="M80.8678 800H84.8678V804H80.8678V800Z" fill="#E5E7EB"/>
    <path d="M100.868 800H104.868V804H100.868V800Z" fill="#E5E7EB"/>
    <path d="M120.868 800H124.868V804H120.868V800Z" fill="#E5E7EB"/>
    <path d="M140.868 800H144.868V804H140.868V800Z" fill="#E5E7EB"/>
    <path d="M160.868 800H164.868V804H160.868V800Z" fill="#E5E7EB"/>
    <path d="M180.868 800H184.868V804H180.868V800Z" fill="#E5E7EB"/>
    <path d="M200.868 800H204.868V804H200.868V800Z" fill="#E5E7EB"/>
    <path d="M220.868 800H224.868V804H220.868V800Z" fill="#E5E7EB"/>
    <path d="M240.868 800H244.868V804H240.868V800Z" fill="#E5E7EB"/>
    <path d="M260.868 800H264.868V804H260.868V800Z" fill="#E5E7EB"/>
    <path d="M280.868 800H284.868V804H280.868V800Z" fill="#E5E7EB"/>
    <path d="M300.868 800H304.868V804H300.868V800Z" fill="#E5E7EB"/>
    <path d="M320.868 800H324.868V804H320.868V800Z" fill="#E5E7EB"/>
    <path d="M340.868 800H344.868V804H340.868V800Z" fill="#E5E7EB"/>
    <path d="M360.868 800H364.868V804H360.868V800Z" fill="#E5E7EB"/>
    <path d="M380.868 800H384.868V804H380.868V800Z" fill="#E5E7EB"/>
    <path d="M400.868 800H404.868V804H400.868V800Z" fill="#E5E7EB"/>
    <path d="M0.867798 820H4.8678V824H0.867798V820Z" fill="#E5E7EB"/>
    <path d="M20.8678 820H24.8678V824H20.8678V820Z" fill="#E5E7EB"/>
    <path d="M40.8678 820H44.8678V824H40.8678V820Z" fill="#E5E7EB"/>
    <path d="M60.8678 820H64.8678V824H60.8678V820Z" fill="#E5E7EB"/>
    <path d="M80.8678 820H84.8678V824H80.8678V820Z" fill="#E5E7EB"/>
    <path d="M100.868 820H104.868V824H100.868V820Z" fill="#E5E7EB"/>
    <path d="M120.868 820H124.868V824H120.868V820Z" fill="#E5E7EB"/>
    <path d="M140.868 820H144.868V824H140.868V820Z" fill="#E5E7EB"/>
    <path d="M160.868 820H164.868V824H160.868V820Z" fill="#E5E7EB"/>
    <path d="M180.868 820H184.868V824H180.868V820Z" fill="#E5E7EB"/>
    <path d="M200.868 820H204.868V824H200.868V820Z" fill="#E5E7EB"/>
    <path d="M220.868 820H224.868V824H220.868V820Z" fill="#E5E7EB"/>
    <path d="M240.868 820H244.868V824H240.868V820Z" fill="#E5E7EB"/>
    <path d="M260.868 820H264.868V824H260.868V820Z" fill="#E5E7EB"/>
    <path d="M280.868 820H284.868V824H280.868V820Z" fill="#E5E7EB"/>
    <path d="M300.868 820H304.868V824H300.868V820Z" fill="#E5E7EB"/>
    <path d="M320.868 820H324.868V824H320.868V820Z" fill="#E5E7EB"/>
    <path d="M340.868 820H344.868V824H340.868V820Z" fill="#E5E7EB"/>
    <path d="M360.868 820H364.868V824H360.868V820Z" fill="#E5E7EB"/>
    <path d="M380.868 820H384.868V824H380.868V820Z" fill="#E5E7EB"/>
    <path d="M400.868 820H404.868V824H400.868V820Z" fill="#E5E7EB"/>
  </g>
  <defs>
    <clipPath id="clip0">
      <rect width="389.132" height="509.5" fill="white" transform="translate(0.867798)"/>
    </clipPath>
  </defs>
</svg>
