<svg width="158" height="47" viewBox="0 0 158 47" fill="none"
  xmlns="http://www.w3.org/2000/svg">
  <path fill-rule="evenodd" clip-rule="evenodd" d="M6 0C2.68629 0 0 2.68629 0 6V36C0 39.3137 2.68629 42 6 42H37C40.3137 42 43 39.3137 43 36V6C43 2.68629 40.3137 0 37 0H6ZM6 2C3.79086 2 2 3.79086 2 6V36C2 38.2091 3.79086 40 6 40H37C39.2091 40 41 38.2091 41 36V6C41 3.79086 39.2091 2 37 2H6Z" fill="#4F46E5"/>
  <rect x="4" y="4" width="41" height="40" rx="4" fill="#4F46E5"/>
  <rect x="8" y="28" width="5.20306" height="5.20306" rx="2.60153" fill="white"/>
  <rect x="15" y="28" width="5.20306" height="5.20306" rx="2.60153" fill="white"/>
  <rect x="22" y="28" width="5.20306" height="5.20306" rx="2.60153" fill="white"/>
  <rect x="29" y="28" width="5.20306" height="5.20306" rx="2.60153" fill="white"/>
  <rect x="36" y="28" width="5.20306" height="5.20306" rx="2.60153" fill="white"/>
  <rect x="29" y="21" width="5.20306" height="5.20306" rx="2.60153" fill="white"/>
  <rect x="22" y="21" width="5.20306" height="5.20306" rx="2.60153" fill="white"/>
  <rect x="15" y="21" width="5.20306" height="5.20306" rx="2.60153" fill="white"/>
  <rect x="29" y="14" width="5.20306" height="5.20306" rx="2.60153" fill="white"/>
  <path d="M63.4375 8.13068H65.9773C65.9006 5.33523 63.429 3.30682 59.8835 3.30682C56.3807 3.30682 53.696 5.30966 53.696 8.31818C53.696 10.7472 55.4347 12.1705 58.2386 12.929L60.3011 13.4915C62.1676 13.9858 63.608 14.5994 63.608 16.1506C63.608 17.8551 61.9801 18.9801 59.7386 18.9801C57.7102 18.9801 56.0227 18.0767 55.8693 16.1761H53.2273C53.3977 19.3381 55.8438 21.2898 59.7557 21.2898C63.8551 21.2898 66.2159 19.1335 66.2159 16.1761C66.2159 13.0312 63.4119 11.8125 61.196 11.267L59.4915 10.8239C58.1278 10.4744 56.3125 9.83523 56.321 8.16477C56.321 6.68182 57.6761 5.58239 59.8239 5.58239C61.8267 5.58239 63.25 6.51989 63.4375 8.13068ZM76.851 15.571C76.8595 17.7955 75.2061 18.8523 73.7743 18.8523C72.1976 18.8523 71.1067 17.7102 71.1067 15.929V7.90909H68.5584V16.2358C68.5584 19.483 70.3396 21.1705 72.8538 21.1705C74.8226 21.1705 76.1607 20.1307 76.7658 18.733H76.9021V21H79.4078V7.90909H76.851V15.571ZM82.2318 25.9091H84.7801V18.9631H84.9335C85.3937 19.7983 86.3312 21.2557 88.7176 21.2557C91.8881 21.2557 94.1892 18.7159 94.1892 14.4801C94.1892 10.2358 91.854 7.73864 88.692 7.73864C86.2631 7.73864 85.3852 9.22159 84.9335 10.0312H84.7205V7.90909H82.2318V25.9091ZM84.729 14.4545C84.729 11.7188 85.9222 9.90341 88.1466 9.90341C90.4562 9.90341 91.6153 11.8551 91.6153 14.4545C91.6153 17.0795 90.4222 19.0824 88.1466 19.0824C85.9562 19.0824 84.729 17.2074 84.729 14.4545ZM102.086 21.2642C104.941 21.2642 106.961 19.858 107.541 17.7273L105.129 17.2926C104.669 18.5284 103.561 19.1591 102.112 19.1591C99.9301 19.1591 98.4642 17.7443 98.396 15.2216H107.703V14.3182C107.703 9.58807 104.873 7.73864 101.907 7.73864C98.2597 7.73864 95.8563 10.517 95.8563 14.5398C95.8563 18.6051 98.2256 21.2642 102.086 21.2642ZM98.4045 13.3125C98.5068 11.4545 99.8534 9.84375 101.924 9.84375C103.902 9.84375 105.197 11.3097 105.206 13.3125H98.4045ZM109.93 21H112.479V13.0057C112.479 11.2926 113.8 10.0568 115.606 10.0568C116.135 10.0568 116.731 10.1506 116.936 10.2102V7.77273C116.68 7.73864 116.177 7.71307 115.854 7.71307C114.319 7.71307 113.007 8.58239 112.53 9.98864H112.393V7.90909H109.93V21ZM68.4148 30.2216C67.8182 26.4886 64.8949 24.3068 61.2045 24.3068C56.6875 24.3068 53.3551 27.6903 53.3551 33.2727C53.3551 38.8551 56.6705 42.2386 61.2045 42.2386C65.0398 42.2386 67.8438 39.8352 68.4148 36.3835L65.7557 36.375C65.304 38.608 63.429 39.8352 61.2216 39.8352C58.2301 39.8352 55.9716 37.5426 55.9716 33.2727C55.9716 29.0369 58.2216 26.7102 61.2301 26.7102C63.4545 26.7102 65.321 27.9631 65.7557 30.2216H68.4148ZM76.2757 42.2642C79.9661 42.2642 82.378 39.5625 82.378 35.5142C82.378 31.4403 79.9661 28.7386 76.2757 28.7386C72.5854 28.7386 70.1734 31.4403 70.1734 35.5142C70.1734 39.5625 72.5854 42.2642 76.2757 42.2642ZM76.2842 40.125C73.8723 40.125 72.7473 38.0199 72.7473 35.5057C72.7473 33 73.8723 30.8693 76.2842 30.8693C78.6791 30.8693 79.8041 33 79.8041 35.5057C79.8041 38.0199 78.6791 40.125 76.2842 40.125ZM84.6224 42H87.1707V33.929C87.1707 32.1648 88.4065 30.9375 89.8554 30.9375C91.2702 30.9375 92.2503 31.875 92.2503 33.2983V42H94.7901V33.6562C94.7901 32.0795 95.7531 30.9375 97.4151 30.9375C98.7616 30.9375 99.8696 31.6875 99.8696 33.4602V42H102.418V33.2216C102.418 30.2301 100.747 28.7386 98.3781 28.7386C96.4946 28.7386 95.0798 29.642 94.4491 31.0398H94.3128C93.7418 29.608 92.5401 28.7386 90.7929 28.7386C89.0628 28.7386 87.7759 29.5994 87.2304 31.0398H87.0685V28.9091H84.6224V42ZM105.233 46.9091H107.782V39.9631H107.935C108.395 40.7983 109.333 42.2557 111.719 42.2557C114.89 42.2557 117.191 39.7159 117.191 35.4801C117.191 31.2358 114.856 28.7386 111.694 28.7386C109.265 28.7386 108.387 30.2216 107.935 31.0312H107.722V28.9091H105.233V46.9091ZM107.731 35.4545C107.731 32.7188 108.924 30.9034 111.148 30.9034C113.458 30.9034 114.617 32.8551 114.617 35.4545C114.617 38.0795 113.424 40.0824 111.148 40.0824C108.958 40.0824 107.731 38.2074 107.731 35.4545ZM124.96 42.2642C128.65 42.2642 131.062 39.5625 131.062 35.5142C131.062 31.4403 128.65 28.7386 124.96 28.7386C121.27 28.7386 118.858 31.4403 118.858 35.5142C118.858 39.5625 121.27 42.2642 124.96 42.2642ZM124.969 40.125C122.557 40.125 121.432 38.0199 121.432 35.5057C121.432 33 122.557 30.8693 124.969 30.8693C127.363 30.8693 128.488 33 128.488 35.5057C128.488 38.0199 127.363 40.125 124.969 40.125ZM143.116 32.1051C142.588 30.0682 140.994 28.7386 138.165 28.7386C135.207 28.7386 133.111 30.2983 133.111 32.6165C133.111 34.4744 134.236 35.7102 136.69 36.2557L138.906 36.7415C140.168 37.0227 140.756 37.5852 140.756 38.4034C140.756 39.4176 139.673 40.2102 138.003 40.2102C136.477 40.2102 135.497 39.554 135.19 38.267L132.727 38.642C133.153 40.9602 135.08 42.2642 138.02 42.2642C141.182 42.2642 143.372 40.5852 143.372 38.2159C143.372 36.3665 142.196 35.2244 139.793 34.6705L137.713 34.1932C136.273 33.8523 135.651 33.3665 135.659 32.4801C135.651 31.4744 136.741 30.7585 138.19 30.7585C139.776 30.7585 140.509 31.6364 140.807 32.5142L143.116 32.1051ZM151.216 42.2642C154.071 42.2642 156.091 40.858 156.671 38.7273L154.259 38.2926C153.798 39.5284 152.69 40.1591 151.242 40.1591C149.06 40.1591 147.594 38.7443 147.526 36.2216H156.833V35.3182C156.833 30.5881 154.003 28.7386 151.037 28.7386C147.389 28.7386 144.986 31.517 144.986 35.5398C144.986 39.6051 147.355 42.2642 151.216 42.2642ZM147.534 34.3125C147.637 32.4545 148.983 30.8438 151.054 30.8438C153.031 30.8438 154.327 32.3097 154.335 34.3125H147.534Z" fill="black"/>
  <path d="M63.4375 8.13068H65.9773C65.9006 5.33523 63.429 3.30682 59.8835 3.30682C56.3807 3.30682 53.696 5.30966 53.696 8.31818C53.696 10.7472 55.4347 12.1705 58.2386 12.929L60.3011 13.4915C62.1676 13.9858 63.608 14.5994 63.608 16.1506C63.608 17.8551 61.9801 18.9801 59.7386 18.9801C57.7102 18.9801 56.0227 18.0767 55.8693 16.1761H53.2273C53.3977 19.3381 55.8438 21.2898 59.7557 21.2898C63.8551 21.2898 66.2159 19.1335 66.2159 16.1761C66.2159 13.0312 63.4119 11.8125 61.196 11.267L59.4915 10.8239C58.1278 10.4744 56.3125 9.83523 56.321 8.16477C56.321 6.68182 57.6761 5.58239 59.8239 5.58239C61.8267 5.58239 63.25 6.51989 63.4375 8.13068ZM76.851 15.571C76.8595 17.7955 75.2061 18.8523 73.7743 18.8523C72.1976 18.8523 71.1067 17.7102 71.1067 15.929V7.90909H68.5584V16.2358C68.5584 19.483 70.3396 21.1705 72.8538 21.1705C74.8226 21.1705 76.1607 20.1307 76.7658 18.733H76.9021V21H79.4078V7.90909H76.851V15.571ZM82.2318 25.9091H84.7801V18.9631H84.9335C85.3937 19.7983 86.3312 21.2557 88.7176 21.2557C91.8881 21.2557 94.1892 18.7159 94.1892 14.4801C94.1892 10.2358 91.854 7.73864 88.692 7.73864C86.2631 7.73864 85.3852 9.22159 84.9335 10.0312H84.7205V7.90909H82.2318V25.9091ZM84.729 14.4545C84.729 11.7188 85.9222 9.90341 88.1466 9.90341C90.4562 9.90341 91.6153 11.8551 91.6153 14.4545C91.6153 17.0795 90.4222 19.0824 88.1466 19.0824C85.9562 19.0824 84.729 17.2074 84.729 14.4545ZM102.086 21.2642C104.941 21.2642 106.961 19.858 107.541 17.7273L105.129 17.2926C104.669 18.5284 103.561 19.1591 102.112 19.1591C99.9301 19.1591 98.4642 17.7443 98.396 15.2216H107.703V14.3182C107.703 9.58807 104.873 7.73864 101.907 7.73864C98.2597 7.73864 95.8563 10.517 95.8563 14.5398C95.8563 18.6051 98.2256 21.2642 102.086 21.2642ZM98.4045 13.3125C98.5068 11.4545 99.8534 9.84375 101.924 9.84375C103.902 9.84375 105.197 11.3097 105.206 13.3125H98.4045ZM109.93 21H112.479V13.0057C112.479 11.2926 113.8 10.0568 115.606 10.0568C116.135 10.0568 116.731 10.1506 116.936 10.2102V7.77273C116.68 7.73864 116.177 7.71307 115.854 7.71307C114.319 7.71307 113.007 8.58239 112.53 9.98864H112.393V7.90909H109.93V21ZM68.4148 30.2216C67.8182 26.4886 64.8949 24.3068 61.2045 24.3068C56.6875 24.3068 53.3551 27.6903 53.3551 33.2727C53.3551 38.8551 56.6705 42.2386 61.2045 42.2386C65.0398 42.2386 67.8438 39.8352 68.4148 36.3835L65.7557 36.375C65.304 38.608 63.429 39.8352 61.2216 39.8352C58.2301 39.8352 55.9716 37.5426 55.9716 33.2727C55.9716 29.0369 58.2216 26.7102 61.2301 26.7102C63.4545 26.7102 65.321 27.9631 65.7557 30.2216H68.4148ZM76.2757 42.2642C79.9661 42.2642 82.378 39.5625 82.378 35.5142C82.378 31.4403 79.9661 28.7386 76.2757 28.7386C72.5854 28.7386 70.1734 31.4403 70.1734 35.5142C70.1734 39.5625 72.5854 42.2642 76.2757 42.2642ZM76.2842 40.125C73.8723 40.125 72.7473 38.0199 72.7473 35.5057C72.7473 33 73.8723 30.8693 76.2842 30.8693C78.6791 30.8693 79.8041 33 79.8041 35.5057C79.8041 38.0199 78.6791 40.125 76.2842 40.125ZM84.6224 42H87.1707V33.929C87.1707 32.1648 88.4065 30.9375 89.8554 30.9375C91.2702 30.9375 92.2503 31.875 92.2503 33.2983V42H94.7901V33.6562C94.7901 32.0795 95.7531 30.9375 97.4151 30.9375C98.7616 30.9375 99.8696 31.6875 99.8696 33.4602V42H102.418V33.2216C102.418 30.2301 100.747 28.7386 98.3781 28.7386C96.4946 28.7386 95.0798 29.642 94.4491 31.0398H94.3128C93.7418 29.608 92.5401 28.7386 90.7929 28.7386C89.0628 28.7386 87.7759 29.5994 87.2304 31.0398H87.0685V28.9091H84.6224V42ZM105.233 46.9091H107.782V39.9631H107.935C108.395 40.7983 109.333 42.2557 111.719 42.2557C114.89 42.2557 117.191 39.7159 117.191 35.4801C117.191 31.2358 114.856 28.7386 111.694 28.7386C109.265 28.7386 108.387 30.2216 107.935 31.0312H107.722V28.9091H105.233V46.9091ZM107.731 35.4545C107.731 32.7188 108.924 30.9034 111.148 30.9034C113.458 30.9034 114.617 32.8551 114.617 35.4545C114.617 38.0795 113.424 40.0824 111.148 40.0824C108.958 40.0824 107.731 38.2074 107.731 35.4545ZM124.96 42.2642C128.65 42.2642 131.062 39.5625 131.062 35.5142C131.062 31.4403 128.65 28.7386 124.96 28.7386C121.27 28.7386 118.858 31.4403 118.858 35.5142C118.858 39.5625 121.27 42.2642 124.96 42.2642ZM124.969 40.125C122.557 40.125 121.432 38.0199 121.432 35.5057C121.432 33 122.557 30.8693 124.969 30.8693C127.363 30.8693 128.488 33 128.488 35.5057C128.488 38.0199 127.363 40.125 124.969 40.125ZM143.116 32.1051C142.588 30.0682 140.994 28.7386 138.165 28.7386C135.207 28.7386 133.111 30.2983 133.111 32.6165C133.111 34.4744 134.236 35.7102 136.69 36.2557L138.906 36.7415C140.168 37.0227 140.756 37.5852 140.756 38.4034C140.756 39.4176 139.673 40.2102 138.003 40.2102C136.477 40.2102 135.497 39.554 135.19 38.267L132.727 38.642C133.153 40.9602 135.08 42.2642 138.02 42.2642C141.182 42.2642 143.372 40.5852 143.372 38.2159C143.372 36.3665 142.196 35.2244 139.793 34.6705L137.713 34.1932C136.273 33.8523 135.651 33.3665 135.659 32.4801C135.651 31.4744 136.741 30.7585 138.19 30.7585C139.776 30.7585 140.509 31.6364 140.807 32.5142L143.116 32.1051ZM151.216 42.2642C154.071 42.2642 156.091 40.858 156.671 38.7273L154.259 38.2926C153.798 39.5284 152.69 40.1591 151.242 40.1591C149.06 40.1591 147.594 38.7443 147.526 36.2216H156.833V35.3182C156.833 30.5881 154.003 28.7386 151.037 28.7386C147.389 28.7386 144.986 31.517 144.986 35.5398C144.986 39.6051 147.355 42.2642 151.216 42.2642ZM147.534 34.3125C147.637 32.4545 148.983 30.8438 151.054 30.8438C153.031 30.8438 154.327 32.3097 154.335 34.3125H147.534Z" fill="#4F46E5" fill-opacity="0.34"/>
</svg>
