<svg width="150" height="47" viewBox="0 0 150 47" fill="none"
  xmlns="http://www.w3.org/2000/svg">
  <path fill-rule="evenodd" clip-rule="evenodd" d="M6 0C2.68629 0 0 2.68629 0 6V36C0 39.3137 2.68629 42 6 42H37C40.3137 42 43 39.3137 43 36V6C43 2.68629 40.3137 0 37 0H6ZM6 2C3.79086 2 2 3.79086 2 6V36C2 38.2091 3.79086 40 6 40H37C39.2091 40 41 38.2091 41 36V6C41 3.79086 39.2091 2 37 2H6Z" fill="#4F46E5"/>
  <rect x="4" y="4" width="41" height="40" rx="4" fill="#4F46E5"/>
  <path d="M7.99994 30.6015C7.99994 29.1647 9.16468 28 10.6015 28C12.0383 28 13.203 29.1647 13.203 30.6015C13.203 32.0383 12.0383 33.2031 10.6015 33.2031C9.16468 33.2031 7.99994 32.0383 7.99994 30.6015Z" fill="white"/>
  <path d="M14.9999 30.6015C14.9999 29.1647 16.1647 28 17.6015 28C19.0383 28 20.203 29.1647 20.203 30.6015C20.203 32.0383 19.0383 33.2031 17.6015 33.2031C16.1647 33.2031 14.9999 32.0383 14.9999 30.6015Z" fill="white"/>
  <path d="M21.9999 30.6015C21.9999 29.1647 23.1647 28 24.6015 28C26.0383 28 27.203 29.1647 27.203 30.6015C27.203 32.0383 26.0383 33.2031 24.6015 33.2031C23.1647 33.2031 21.9999 32.0383 21.9999 30.6015Z" fill="white"/>
  <path d="M28.9999 30.6015C28.9999 29.1647 30.1647 28 31.6015 28C33.0383 28 34.203 29.1647 34.203 30.6015C34.203 32.0383 33.0383 33.2031 31.6015 33.2031C30.1647 33.2031 28.9999 32.0383 28.9999 30.6015Z" fill="white"/>
  <path d="M35.9999 30.6015C35.9999 29.1647 37.1647 28 38.6015 28C40.0383 28 41.203 29.1647 41.203 30.6015C41.203 32.0383 40.0383 33.2031 38.6015 33.2031C37.1647 33.2031 35.9999 32.0383 35.9999 30.6015Z" fill="white"/>
  <path d="M28.9999 23.6015C28.9999 22.1647 30.1647 21 31.6015 21C33.0383 21 34.203 22.1647 34.203 23.6015C34.203 25.0383 33.0383 26.2031 31.6015 26.2031C30.1647 26.2031 28.9999 25.0383 28.9999 23.6015Z" fill="white"/>
  <path d="M21.9999 23.6015C21.9999 22.1647 23.1647 21 24.6015 21C26.0383 21 27.203 22.1647 27.203 23.6015C27.203 25.0383 26.0383 26.2031 24.6015 26.2031C23.1647 26.2031 21.9999 25.0383 21.9999 23.6015Z" fill="white"/>
  <path d="M14.9999 23.6015C14.9999 22.1647 16.1647 21 17.6015 21C19.0383 21 20.203 22.1647 20.203 23.6015C20.203 25.0383 19.0383 26.2031 17.6015 26.2031C16.1647 26.2031 14.9999 25.0383 14.9999 23.6015Z" fill="white"/>
  <path d="M28.9999 16.6015C28.9999 15.1647 30.1647 14 31.6015 14C33.0383 14 34.203 15.1647 34.203 16.6015C34.203 18.0383 33.0383 19.2031 31.6015 19.2031C30.1647 19.2031 28.9999 18.0383 28.9999 16.6015Z" fill="white"/>
  <path d="M58.7955 7.90907H60.3381C60.2188 5.25851 57.9261 3.29828 54.679 3.29828C51.4574 3.29828 48.9773 5.23294 48.9773 8.04544C48.9773 10.2869 50.5625 11.6932 53.2983 12.5028L55.3864 13.1165C57.5511 13.7471 59.0341 14.5568 59.0341 16.3381C59.0341 18.4346 57.1335 19.8409 54.5256 19.8409C52.1733 19.8409 50.3324 18.7074 50.1619 16.6363H48.5256C48.7131 19.3977 50.9631 21.2983 54.5256 21.2983C58.3097 21.2983 60.5767 19.1591 60.5767 16.3636C60.5767 13.4659 58.054 12.3068 55.8381 11.6846L53.9972 11.1562C52.3011 10.679 50.5199 9.81817 50.5199 7.97726C50.5199 6.10226 52.1989 4.7301 54.6364 4.7301C56.946 4.7301 58.5994 5.96589 58.7955 7.90907Z" fill="black"/>
  <path d="M58.7955 7.90907H60.3381C60.2188 5.25851 57.9261 3.29828 54.679 3.29828C51.4574 3.29828 48.9773 5.23294 48.9773 8.04544C48.9773 10.2869 50.5625 11.6932 53.2983 12.5028L55.3864 13.1165C57.5511 13.7471 59.0341 14.5568 59.0341 16.3381C59.0341 18.4346 57.1335 19.8409 54.5256 19.8409C52.1733 19.8409 50.3324 18.7074 50.1619 16.6363H48.5256C48.7131 19.3977 50.9631 21.2983 54.5256 21.2983C58.3097 21.2983 60.5767 19.1591 60.5767 16.3636C60.5767 13.4659 58.054 12.3068 55.8381 11.6846L53.9972 11.1562C52.3011 10.679 50.5199 9.81817 50.5199 7.97726C50.5199 6.10226 52.1989 4.7301 54.6364 4.7301C56.946 4.7301 58.5994 5.96589 58.7955 7.90907Z" fill="#4F46E5" fill-opacity="0.34"/>
  <path d="M71.8148 15.9971C71.8148 18.4006 70.008 19.696 68.2352 19.696C66.3432 19.696 65.0136 18.3409 65.0136 16.2954V7.90907H63.4966V16.3892C63.4966 19.4915 65.2864 21.1704 67.8006 21.1704C69.7182 21.1704 71.0818 20.1733 71.6955 18.8267H71.8148V21H73.3318V7.90907H71.8148V15.9971Z" fill="black"/>
  <path d="M71.8148 15.9971C71.8148 18.4006 70.008 19.696 68.2352 19.696C66.3432 19.696 65.0136 18.3409 65.0136 16.2954V7.90907H63.4966V16.3892C63.4966 19.4915 65.2864 21.1704 67.8006 21.1704C69.7182 21.1704 71.0818 20.1733 71.6955 18.8267H71.8148V21H73.3318V7.90907H71.8148V15.9971Z" fill="#4F46E5" fill-opacity="0.34"/>
  <path d="M76.7226 25.9091H78.2482V18.571H78.3845C78.9044 19.7727 80.0294 21.2727 82.4072 21.2727C85.6118 21.2727 87.7936 18.5454 87.7936 14.4886C87.7936 10.4488 85.6203 7.7301 82.3817 7.7301C79.9783 7.7301 78.9129 9.2301 78.3845 10.4062H78.197V7.90907H76.7226V25.9091ZM78.2226 14.4631C78.2226 11.3267 79.6629 9.11078 82.2197 9.11078C84.8533 9.11078 86.268 11.446 86.268 14.4631C86.268 17.5142 84.8277 19.8835 82.2197 19.8835C79.6885 19.8835 78.2226 17.625 78.2226 14.4631Z" fill="black"/>
  <path d="M76.7226 25.9091H78.2482V18.571H78.3845C78.9044 19.7727 80.0294 21.2727 82.4072 21.2727C85.6118 21.2727 87.7936 18.5454 87.7936 14.4886C87.7936 10.4488 85.6203 7.7301 82.3817 7.7301C79.9783 7.7301 78.9129 9.2301 78.3845 10.4062H78.197V7.90907H76.7226V25.9091ZM78.2226 14.4631C78.2226 11.3267 79.6629 9.11078 82.2197 9.11078C84.8533 9.11078 86.268 11.446 86.268 14.4631C86.268 17.5142 84.8277 19.8835 82.2197 19.8835C79.6885 19.8835 78.2226 17.625 78.2226 14.4631Z" fill="#4F46E5" fill-opacity="0.34"/>
  <path d="M95.808 21.2727C98.433 21.2727 100.197 19.8494 100.794 18.2045L99.3534 17.7358C98.8506 18.9119 97.6659 19.8835 95.808 19.8835C93.1318 19.8835 91.4358 17.9318 91.3676 14.9062H101.118V14.1562C101.118 9.78408 98.4159 7.7301 95.5778 7.7301C92.1858 7.7301 89.8421 10.5682 89.8421 14.5312C89.8421 18.5028 92.1432 21.2727 95.808 21.2727ZM91.3761 13.5682C91.5381 11.1307 93.183 9.11078 95.5778 9.11078C97.9216 9.11078 99.5665 11.0454 99.5665 13.5682H91.3761Z" fill="black"/>
  <path d="M95.808 21.2727C98.433 21.2727 100.197 19.8494 100.794 18.2045L99.3534 17.7358C98.8506 18.9119 97.6659 19.8835 95.808 19.8835C93.1318 19.8835 91.4358 17.9318 91.3676 14.9062H101.118V14.1562C101.118 9.78408 98.4159 7.7301 95.5778 7.7301C92.1858 7.7301 89.8421 10.5682 89.8421 14.5312C89.8421 18.5028 92.1432 21.2727 95.808 21.2727ZM91.3761 13.5682C91.5381 11.1307 93.183 9.11078 95.5778 9.11078C97.9216 9.11078 99.5665 11.0454 99.5665 13.5682H91.3761Z" fill="#4F46E5" fill-opacity="0.34"/>
  <path d="M103.861 21H105.378V12.5454C105.378 10.6023 106.869 9.19601 108.915 9.19601C109.315 9.19601 109.69 9.26419 109.827 9.28123V7.73862C109.622 7.7301 109.273 7.71305 109.025 7.71305C107.381 7.71305 105.974 8.59942 105.446 9.92044H105.335V7.90907H103.861V21Z" fill="black"/>
  <path d="M103.861 21H105.378V12.5454C105.378 10.6023 106.869 9.19601 108.915 9.19601C109.315 9.19601 109.69 9.26419 109.827 9.28123V7.73862C109.622 7.7301 109.273 7.71305 109.025 7.71305C107.381 7.71305 105.974 8.59942 105.446 9.92044H105.335V7.90907H103.861V21Z" fill="#4F46E5" fill-opacity="0.34"/>
  <path d="M62.9886 30C62.4176 26.7869 59.7926 24.3068 56.0767 24.3068C51.6705 24.3068 48.5341 27.8096 48.5341 33.2727C48.5341 38.7358 51.6705 42.2386 56.0767 42.2386C59.7926 42.2386 62.4176 39.75 62.9886 36.5454H61.3864C60.9006 38.9403 58.8125 40.7386 56.0767 40.7386C52.7699 40.7386 50.0767 38.1221 50.0767 33.2727C50.0767 28.4403 52.7699 25.8068 56.0767 25.8068C58.8125 25.8068 60.9006 27.6136 61.3864 30H62.9886Z" fill="black"/>
  <path d="M62.9886 30C62.4176 26.7869 59.7926 24.3068 56.0767 24.3068C51.6705 24.3068 48.5341 27.8096 48.5341 33.2727C48.5341 38.7358 51.6705 42.2386 56.0767 42.2386C59.7926 42.2386 62.4176 39.75 62.9886 36.5454H61.3864C60.9006 38.9403 58.8125 40.7386 56.0767 40.7386C52.7699 40.7386 50.0767 38.1221 50.0767 33.2727C50.0767 28.4403 52.7699 25.8068 56.0767 25.8068C58.8125 25.8068 60.9006 27.6136 61.3864 30H62.9886Z" fill="#4F46E5" fill-opacity="0.34"/>
  <path d="M70.905 42.2727C74.297 42.2727 76.6663 39.5028 76.6663 35.5142C76.6663 31.5 74.297 28.7301 70.905 28.7301C67.5129 28.7301 65.1436 31.5 65.1436 35.5142C65.1436 39.5028 67.5129 42.2727 70.905 42.2727ZM70.905 40.8835C68.1862 40.8835 66.6692 38.446 66.6692 35.5142C66.6692 32.5824 68.1862 30.1108 70.905 30.1108C73.6237 30.1108 75.1408 32.5824 75.1408 35.5142C75.1408 38.446 73.6237 40.8835 70.905 40.8835Z" fill="black"/>
  <path d="M70.905 42.2727C74.297 42.2727 76.6663 39.5028 76.6663 35.5142C76.6663 31.5 74.297 28.7301 70.905 28.7301C67.5129 28.7301 65.1436 31.5 65.1436 35.5142C65.1436 39.5028 67.5129 42.2727 70.905 42.2727ZM70.905 40.8835C68.1862 40.8835 66.6692 38.446 66.6692 35.5142C66.6692 32.5824 68.1862 30.1108 70.905 30.1108C73.6237 30.1108 75.1408 32.5824 75.1408 35.5142C75.1408 38.446 73.6237 40.8835 70.905 40.8835Z" fill="#4F46E5" fill-opacity="0.34"/>
  <path d="M79.3966 42H80.9136V33.6136C80.9136 31.5767 82.2688 30.1278 84.0841 30.1278C85.8739 30.1278 86.9136 31.321 86.9136 33.0937V42H88.4648V33.3835C88.4648 31.5 89.5898 30.1278 91.5841 30.1278C93.3142 30.1278 94.4648 31.1676 94.4648 33.2301V42H95.9818V33.2301C95.9818 30.2983 94.4733 28.7386 92.0443 28.7386C90.1352 28.7386 88.7545 29.6676 88.1665 31.1165H88.0557C87.4761 29.6335 86.3256 28.7386 84.5188 28.7386C82.8057 28.7386 81.5273 29.5653 81.0074 30.9204H80.871V28.9091H79.3966V42Z" fill="black"/>
  <path d="M79.3966 42H80.9136V33.6136C80.9136 31.5767 82.2688 30.1278 84.0841 30.1278C85.8739 30.1278 86.9136 31.321 86.9136 33.0937V42H88.4648V33.3835C88.4648 31.5 89.5898 30.1278 91.5841 30.1278C93.3142 30.1278 94.4648 31.1676 94.4648 33.2301V42H95.9818V33.2301C95.9818 30.2983 94.4733 28.7386 92.0443 28.7386C90.1352 28.7386 88.7545 29.6676 88.1665 31.1165H88.0557C87.4761 29.6335 86.3256 28.7386 84.5188 28.7386C82.8057 28.7386 81.5273 29.5653 81.0074 30.9204H80.871V28.9091H79.3966V42Z" fill="#4F46E5" fill-opacity="0.34"/>
  <path d="M99.3726 46.9091H100.898V39.571H101.035C101.554 40.7727 102.679 42.2727 105.057 42.2727C108.262 42.2727 110.444 39.5454 110.444 35.4886C110.444 31.4488 108.27 28.7301 105.032 28.7301C102.628 28.7301 101.563 30.2301 101.035 31.4062H100.847V28.9091H99.3726V46.9091ZM100.873 35.4631C100.873 32.3267 102.313 30.1108 104.87 30.1108C107.503 30.1108 108.918 32.446 108.918 35.4631C108.918 38.5142 107.478 40.8835 104.87 40.8835C102.339 40.8835 100.873 38.625 100.873 35.4631Z" fill="black"/>
  <path d="M99.3726 46.9091H100.898V39.571H101.035C101.554 40.7727 102.679 42.2727 105.057 42.2727C108.262 42.2727 110.444 39.5454 110.444 35.4886C110.444 31.4488 108.27 28.7301 105.032 28.7301C102.628 28.7301 101.563 30.2301 101.035 31.4062H100.847V28.9091H99.3726V46.9091ZM100.873 35.4631C100.873 32.3267 102.313 30.1108 104.87 30.1108C107.503 30.1108 108.918 32.446 108.918 35.4631C108.918 38.5142 107.478 40.8835 104.87 40.8835C102.339 40.8835 100.873 38.625 100.873 35.4631Z" fill="#4F46E5" fill-opacity="0.34"/>
  <path d="M118.253 42.2727C121.645 42.2727 124.015 39.5028 124.015 35.5142C124.015 31.5 121.645 28.7301 118.253 28.7301C114.861 28.7301 112.492 31.5 112.492 35.5142C112.492 39.5028 114.861 42.2727 118.253 42.2727ZM118.253 40.8835C115.535 40.8835 114.018 38.446 114.018 35.5142C114.018 32.5824 115.535 30.1108 118.253 30.1108C120.972 30.1108 122.489 32.5824 122.489 35.5142C122.489 38.446 120.972 40.8835 118.253 40.8835Z" fill="black"/>
  <path d="M118.253 42.2727C121.645 42.2727 124.015 39.5028 124.015 35.5142C124.015 31.5 121.645 28.7301 118.253 28.7301C114.861 28.7301 112.492 31.5 112.492 35.5142C112.492 39.5028 114.861 42.2727 118.253 42.2727ZM118.253 40.8835C115.535 40.8835 114.018 38.446 114.018 35.5142C114.018 32.5824 115.535 30.1108 118.253 30.1108C120.972 30.1108 122.489 32.5824 122.489 35.5142C122.489 38.446 120.972 40.8835 118.253 40.8835Z" fill="#4F46E5" fill-opacity="0.34"/>
  <path d="M135.54 31.7812C134.901 29.8892 133.504 28.7301 131.109 28.7301C128.467 28.7301 126.549 30.2386 126.549 32.3949C126.549 34.1506 127.614 35.3437 129.89 35.8892L132.029 36.4006C133.469 36.7415 134.16 37.4829 134.16 38.5312C134.16 39.8949 132.856 40.9091 130.844 40.9091C129.055 40.9091 127.938 40.0994 127.572 38.5483L126.114 38.9062C126.575 41.0881 128.305 42.2727 130.87 42.2727C133.751 42.2727 135.728 40.6875 135.728 38.4631C135.728 36.7159 134.629 35.5483 132.438 35.0113L130.461 34.5256C128.833 34.1165 128.075 33.4602 128.075 32.3267C128.075 30.9971 129.344 30.0682 131.109 30.0682C132.873 30.0682 133.742 30.9971 134.151 32.1733L135.54 31.7812Z" fill="black"/>
  <path d="M135.54 31.7812C134.901 29.8892 133.504 28.7301 131.109 28.7301C128.467 28.7301 126.549 30.2386 126.549 32.3949C126.549 34.1506 127.614 35.3437 129.89 35.8892L132.029 36.4006C133.469 36.7415 134.16 37.4829 134.16 38.5312C134.16 39.8949 132.856 40.9091 130.844 40.9091C129.055 40.9091 127.938 40.0994 127.572 38.5483L126.114 38.9062C126.575 41.0881 128.305 42.2727 130.87 42.2727C133.751 42.2727 135.728 40.6875 135.728 38.4631C135.728 36.7159 134.629 35.5483 132.438 35.0113L130.461 34.5256C128.833 34.1165 128.075 33.4602 128.075 32.3267C128.075 30.9971 129.344 30.0682 131.109 30.0682C132.873 30.0682 133.742 30.9971 134.151 32.1733L135.54 31.7812Z" fill="#4F46E5" fill-opacity="0.34"/>
  <path d="M143.742 42.2727C146.367 42.2727 148.132 40.8494 148.728 39.2045L147.288 38.7358C146.785 39.9119 145.6 40.8835 143.742 40.8835C141.066 40.8835 139.37 38.9318 139.302 35.9062H149.052V35.1562C149.052 30.7841 146.35 28.7301 143.512 28.7301C140.12 28.7301 137.776 31.5682 137.776 35.5312C137.776 39.5028 140.078 42.2727 143.742 42.2727ZM139.311 34.5682C139.472 32.1307 141.117 30.1108 143.512 30.1108C145.856 30.1108 147.501 32.0454 147.501 34.5682H139.311Z" fill="black"/>
  <path d="M143.742 42.2727C146.367 42.2727 148.132 40.8494 148.728 39.2045L147.288 38.7358C146.785 39.9119 145.6 40.8835 143.742 40.8835C141.066 40.8835 139.37 38.9318 139.302 35.9062H149.052V35.1562C149.052 30.7841 146.35 28.7301 143.512 28.7301C140.12 28.7301 137.776 31.5682 137.776 35.5312C137.776 39.5028 140.078 42.2727 143.742 42.2727ZM139.311 34.5682C139.472 32.1307 141.117 30.1108 143.512 30.1108C145.856 30.1108 147.501 32.0454 147.501 34.5682H139.311Z" fill="#4F46E5" fill-opacity="0.34"/>
</svg>
