<svg viewBox="0 0 101 45" fill="none"
  xmlns="http://www.w3.org/2000/svg">
  <path d="M73.5802 13.431C73.5802 12.7797 74.1082 12.2517 74.7594 12.2517H77.0427C77.6939 12.2517 78.2219 12.7797 78.2219 13.431V15.7142C78.2219 16.3655 77.6939 16.8934 77.0427 16.8934H74.7594C74.1082 16.8934 73.5802 16.3655 73.5802 15.7142V13.431Z" fill="#4F46E5"/>
  <path d="M79.2534 13.4254C79.2534 12.7741 79.7813 12.2461 80.4326 12.2461H82.7158C83.3671 12.2461 83.8951 12.7741 83.8951 13.4254V15.7086C83.8951 16.3599 83.3671 16.8878 82.7158 16.8878H80.4326C79.7813 16.8878 79.2534 16.3599 79.2534 15.7086V13.4254Z" fill="#4F46E5"/>
  <path d="M84.8032 13.4254C84.8032 12.7741 85.3312 12.2461 85.9825 12.2461H88.2657C88.917 12.2461 89.4449 12.7741 89.4449 13.4254V15.7086C89.4449 16.3599 88.917 16.8878 88.2657 16.8878H85.9825C85.3312 16.8878 84.8032 16.3599 84.8032 15.7086V13.4254Z" fill="#4F46E5"/>
  <path d="M90.5141 13.3805C90.5141 12.7292 91.042 12.2013 91.6933 12.2013H93.9765C94.6278 12.2013 95.1558 12.7292 95.1558 13.3805V15.6637C95.1558 16.315 94.6278 16.843 93.9765 16.843H91.6933C91.042 16.843 90.5141 16.315 90.5141 15.6637V13.3805Z" fill="#4F46E5"/>
  <path d="M96.0935 13.431C96.0935 12.7797 96.6215 12.2517 97.2728 12.2517H99.556C100.207 12.2517 100.735 12.7797 100.735 13.431V15.7142C100.735 16.3655 100.207 16.8934 99.556 16.8934H97.2728C96.6215 16.8934 96.0935 16.3655 96.0935 15.7142V13.431Z" fill="#4F46E5"/>
  <path d="M90.5213 7.75219C90.5213 7.10091 91.0492 6.57295 91.7005 6.57295H93.9837C94.635 6.57295 95.163 7.10091 95.163 7.75219V10.0354C95.163 10.6867 94.635 11.2146 93.9837 11.2146H91.7005C91.0492 11.2146 90.5213 10.6867 90.5213 10.0354V7.75219Z" fill="#4F46E5"/>
  <path d="M84.8481 7.79704C84.8481 7.14576 85.3761 6.6178 86.0273 6.6178H88.3105C88.9618 6.6178 89.4898 7.14576 89.4898 7.79704V10.0802C89.4898 10.7315 88.9618 11.2595 88.3105 11.2595H86.0273C85.3761 11.2595 84.8481 10.7315 84.8481 10.0802V7.79704Z" fill="#4F46E5"/>
  <path d="M79.2982 7.79704C79.2982 7.14576 79.8262 6.6178 80.4775 6.6178H82.7607C83.412 6.6178 83.9399 7.14576 83.9399 7.79704V10.0802C83.9399 10.7315 83.412 11.2595 82.7607 11.2595H80.4775C79.8262 11.2595 79.2982 10.7315 79.2982 10.0802V7.79704Z" fill="#4F46E5"/>
  <path d="M90.4876 2.12386C90.4876 1.47258 91.0156 0.944611 91.6669 0.944611H93.9501C94.6013 0.944611 95.1293 1.47258 95.1293 2.12386V4.40706C95.1293 5.05834 94.6013 5.58631 93.9501 5.58631H91.6669C91.0156 5.58631 90.4876 5.05834 90.4876 4.40706V2.12386Z" fill="#4F46E5"/>
  <path d="M73.5802 18.0437H100.703V20.4022H73.5802V18.0437Z" fill="#4F46E5"/>
  <path d="M5.32075 18.7606C6.50943 18.7606 7.41509 18.5342 8.03774 18.0814C8.66038 17.6286 8.9717 16.9493 8.9717 16.0437C8.9717 15.4965 8.85849 15.0342 8.63208 14.6569C8.40566 14.2606 8.10377 13.921 7.72641 13.638C7.34906 13.3361 6.92453 13.0814 6.45283 12.8739C5.98113 12.6474 5.5 12.4399 5.00943 12.2512C4.4434 12.0248 3.89623 11.7701 3.36792 11.4871C2.85849 11.204 2.39623 10.8739 1.98113 10.4965C1.58491 10.1191 1.26415 9.67574 1.01887 9.16631C0.792453 8.65687 0.679245 8.0531 0.679245 7.35499C0.679245 5.82668 1.16038 4.638 2.12264 3.78895C3.08491 2.92102 4.42453 2.48706 6.14151 2.48706C6.61321 2.48706 7.07547 2.5248 7.5283 2.60027C8 2.65687 8.43396 2.73234 8.83019 2.82668C9.22641 2.92102 9.57547 3.03423 9.87736 3.16631C10.1981 3.29838 10.4528 3.43046 10.6415 3.56253L9.90566 5.51536C9.5283 5.28895 9.00943 5.06253 8.34906 4.83612C7.68868 4.6097 6.95283 4.49649 6.14151 4.49649C5.29245 4.49649 4.5566 4.71348 3.93396 5.14744C3.31132 5.56253 3 6.19461 3 7.04366C3 7.53423 3.08491 7.94933 3.25472 8.28895C3.4434 8.62857 3.68868 8.93046 3.99057 9.19461C4.31132 9.43989 4.67925 9.66631 5.09434 9.87385C5.50943 10.0814 5.96226 10.2889 6.45283 10.4965C7.16981 10.7984 7.82075 11.1003 8.40566 11.4022C9.00943 11.704 9.51887 12.0625 9.93396 12.4776C10.3679 12.8927 10.6981 13.3833 10.9245 13.9493C11.1698 14.5154 11.2925 15.204 11.2925 16.0154C11.2925 17.5437 10.7736 18.7229 9.73585 19.5531C8.71698 20.3644 7.24528 20.7701 5.32075 20.7701C4.69811 20.7701 4.11321 20.7229 3.56604 20.6286C3.01887 20.5531 2.5283 20.4493 2.09434 20.3173C1.67925 20.1852 1.31132 20.0531 0.990566 19.921C0.669811 19.7889 0.424528 19.6663 0.254717 19.5531L0.962264 17.6286C1.33962 17.8361 1.89623 18.0814 2.63208 18.3644C3.36792 18.6286 4.26415 18.7606 5.32075 18.7606Z" fill="black"/>
  <path d="M5.32075 18.7606C6.50943 18.7606 7.41509 18.5342 8.03774 18.0814C8.66038 17.6286 8.9717 16.9493 8.9717 16.0437C8.9717 15.4965 8.85849 15.0342 8.63208 14.6569C8.40566 14.2606 8.10377 13.921 7.72641 13.638C7.34906 13.3361 6.92453 13.0814 6.45283 12.8739C5.98113 12.6474 5.5 12.4399 5.00943 12.2512C4.4434 12.0248 3.89623 11.7701 3.36792 11.4871C2.85849 11.204 2.39623 10.8739 1.98113 10.4965C1.58491 10.1191 1.26415 9.67574 1.01887 9.16631C0.792453 8.65687 0.679245 8.0531 0.679245 7.35499C0.679245 5.82668 1.16038 4.638 2.12264 3.78895C3.08491 2.92102 4.42453 2.48706 6.14151 2.48706C6.61321 2.48706 7.07547 2.5248 7.5283 2.60027C8 2.65687 8.43396 2.73234 8.83019 2.82668C9.22641 2.92102 9.57547 3.03423 9.87736 3.16631C10.1981 3.29838 10.4528 3.43046 10.6415 3.56253L9.90566 5.51536C9.5283 5.28895 9.00943 5.06253 8.34906 4.83612C7.68868 4.6097 6.95283 4.49649 6.14151 4.49649C5.29245 4.49649 4.5566 4.71348 3.93396 5.14744C3.31132 5.56253 3 6.19461 3 7.04366C3 7.53423 3.08491 7.94933 3.25472 8.28895C3.4434 8.62857 3.68868 8.93046 3.99057 9.19461C4.31132 9.43989 4.67925 9.66631 5.09434 9.87385C5.50943 10.0814 5.96226 10.2889 6.45283 10.4965C7.16981 10.7984 7.82075 11.1003 8.40566 11.4022C9.00943 11.704 9.51887 12.0625 9.93396 12.4776C10.3679 12.8927 10.6981 13.3833 10.9245 13.9493C11.1698 14.5154 11.2925 15.204 11.2925 16.0154C11.2925 17.5437 10.7736 18.7229 9.73585 19.5531C8.71698 20.3644 7.24528 20.7701 5.32075 20.7701C4.69811 20.7701 4.11321 20.7229 3.56604 20.6286C3.01887 20.5531 2.5283 20.4493 2.09434 20.3173C1.67925 20.1852 1.31132 20.0531 0.990566 19.921C0.669811 19.7889 0.424528 19.6663 0.254717 19.5531L0.962264 17.6286C1.33962 17.8361 1.89623 18.0814 2.63208 18.3644C3.36792 18.6286 4.26415 18.7606 5.32075 18.7606Z" fill="#4F46E5" fill-opacity="0.34"/>
  <path d="M20.3491 20.7701C19.3113 20.7701 18.4245 20.6191 17.6887 20.3173C16.9717 20.0154 16.3868 19.5908 15.934 19.0437C15.4811 18.4965 15.1509 17.8267 14.9434 17.0342C14.7358 16.2418 14.6321 15.355 14.6321 14.3739V2.88329H16.9528V14.1191C16.9528 15.0059 17.0283 15.7512 17.1792 16.355C17.3491 16.9399 17.5755 17.4116 17.8585 17.7701C18.1604 18.1286 18.5189 18.3833 18.934 18.5342C19.3491 18.6852 19.8208 18.7606 20.3491 18.7606C20.8774 18.7606 21.3491 18.6852 21.7641 18.5342C22.1792 18.3833 22.5283 18.1286 22.8113 17.7701C23.1132 17.4116 23.3396 16.9399 23.4906 16.355C23.6604 15.7512 23.7453 15.0059 23.7453 14.1191V2.88329H26.066V14.3739C26.066 15.355 25.9623 16.2418 25.7547 17.0342C25.5472 17.8267 25.217 18.4965 24.7642 19.0437C24.3113 19.5908 23.717 20.0154 22.9811 20.3173C22.2642 20.6191 21.3868 20.7701 20.3491 20.7701Z" fill="black"/>
  <path d="M20.3491 20.7701C19.3113 20.7701 18.4245 20.6191 17.6887 20.3173C16.9717 20.0154 16.3868 19.5908 15.934 19.0437C15.4811 18.4965 15.1509 17.8267 14.9434 17.0342C14.7358 16.2418 14.6321 15.355 14.6321 14.3739V2.88329H16.9528V14.1191C16.9528 15.0059 17.0283 15.7512 17.1792 16.355C17.3491 16.9399 17.5755 17.4116 17.8585 17.7701C18.1604 18.1286 18.5189 18.3833 18.934 18.5342C19.3491 18.6852 19.8208 18.7606 20.3491 18.7606C20.8774 18.7606 21.3491 18.6852 21.7641 18.5342C22.1792 18.3833 22.5283 18.1286 22.8113 17.7701C23.1132 17.4116 23.3396 16.9399 23.4906 16.355C23.6604 15.7512 23.7453 15.0059 23.7453 14.1191V2.88329H26.066V14.3739C26.066 15.355 25.9623 16.2418 25.7547 17.0342C25.5472 17.8267 25.217 18.4965 24.7642 19.0437C24.3113 19.5908 23.717 20.0154 22.9811 20.3173C22.2642 20.6191 21.3868 20.7701 20.3491 20.7701Z" fill="#4F46E5" fill-opacity="0.34"/>
  <path d="M34.5 2.71348C35.5377 2.71348 36.4434 2.84555 37.217 3.1097C38.0094 3.37385 38.6604 3.75121 39.1698 4.24178C39.6981 4.71348 40.0849 5.27951 40.3302 5.93989C40.5943 6.60027 40.7264 7.33612 40.7264 8.14744C40.7264 9.97763 40.1887 11.3927 39.1132 12.3927C38.0377 13.3739 36.4245 13.8644 34.2736 13.8644H32.2358V20.4022H29.9151V3.138C30.2547 3.06253 30.6226 2.99649 31.0189 2.93989C31.434 2.88329 31.8396 2.83612 32.2358 2.79838C32.6509 2.76065 33.0472 2.74178 33.4245 2.74178C33.8208 2.72291 34.1792 2.71348 34.5 2.71348ZM34.6698 4.72291C34.1792 4.72291 33.7075 4.73234 33.2547 4.75121C32.8019 4.75121 32.4623 4.77008 32.2358 4.80782V11.8833H34.1604C35.5755 11.8833 36.6226 11.6003 37.3019 11.0342C38 10.4682 38.3491 9.53423 38.3491 8.23234C38.3491 5.89272 37.1226 4.72291 34.6698 4.72291Z" fill="black"/>
  <path d="M34.5 2.71348C35.5377 2.71348 36.4434 2.84555 37.217 3.1097C38.0094 3.37385 38.6604 3.75121 39.1698 4.24178C39.6981 4.71348 40.0849 5.27951 40.3302 5.93989C40.5943 6.60027 40.7264 7.33612 40.7264 8.14744C40.7264 9.97763 40.1887 11.3927 39.1132 12.3927C38.0377 13.3739 36.4245 13.8644 34.2736 13.8644H32.2358V20.4022H29.9151V3.138C30.2547 3.06253 30.6226 2.99649 31.0189 2.93989C31.434 2.88329 31.8396 2.83612 32.2358 2.79838C32.6509 2.76065 33.0472 2.74178 33.4245 2.74178C33.8208 2.72291 34.1792 2.71348 34.5 2.71348ZM34.6698 4.72291C34.1792 4.72291 33.7075 4.73234 33.2547 4.75121C32.8019 4.75121 32.4623 4.77008 32.2358 4.80782V11.8833H34.1604C35.5755 11.8833 36.6226 11.6003 37.3019 11.0342C38 10.4682 38.3491 9.53423 38.3491 8.23234C38.3491 5.89272 37.1226 4.72291 34.6698 4.72291Z" fill="#4F46E5" fill-opacity="0.34"/>
  <path d="M45 20.4022V2.88329H54.8208V4.86442H47.3208V10.2418H53.8868V12.2229H47.3208V18.421H55.4434V20.4022H45Z" fill="black"/>
  <path d="M45 20.4022V2.88329H54.8208V4.86442H47.3208V10.2418H53.8868V12.2229H47.3208V18.421H55.4434V20.4022H45Z" fill="#4F46E5" fill-opacity="0.34"/>
  <path d="M69.1981 8.23234C69.1981 9.30782 68.9151 10.2606 68.3491 11.0908C67.783 11.9022 67.0189 12.5342 66.0566 12.9871C66.3396 13.4399 66.6509 13.9588 66.9906 14.5437C67.3491 15.1097 67.7075 15.7229 68.066 16.3833C68.4245 17.0248 68.7736 17.6946 69.1132 18.3927C69.4717 19.072 69.8019 19.7418 70.1038 20.4022H67.6132C67.0472 19.0437 66.4245 17.7418 65.7453 16.4965C65.0849 15.2512 64.4434 14.2418 63.8208 13.4682C63.7075 13.4871 63.5377 13.4965 63.3113 13.4965C63.1038 13.4965 62.9623 13.4965 62.8868 13.4965H60.9057V20.4022H58.5566V3.138C58.8396 3.06253 59.1604 2.99649 59.5189 2.93989C59.8962 2.88329 60.2736 2.84555 60.6509 2.82668C61.0472 2.78895 61.434 2.76065 61.8113 2.74178C62.1887 2.72291 62.5283 2.71348 62.8302 2.71348C64.9434 2.71348 66.5283 3.17574 67.5849 4.10027C68.6604 5.0248 69.1981 6.40216 69.1981 8.23234ZM63.0283 4.72291C62.5943 4.72291 62.1698 4.73234 61.7547 4.75121C61.3585 4.75121 61.0755 4.77008 60.9057 4.80782V11.572H62.4057C63.0849 11.572 63.6887 11.5248 64.217 11.4305C64.7641 11.3361 65.2264 11.1663 65.6038 10.921C66 10.6569 66.3019 10.3078 66.5094 9.87385C66.717 9.42102 66.8207 8.83612 66.8207 8.11914C66.8207 7.43989 66.717 6.88329 66.5094 6.44932C66.3019 6.01536 66.0283 5.67574 65.6887 5.43046C65.3491 5.16631 64.9434 4.98706 64.4717 4.89272C64.0189 4.77951 63.5377 4.72291 63.0283 4.72291Z" fill="black"/>
  <path d="M69.1981 8.23234C69.1981 9.30782 68.9151 10.2606 68.3491 11.0908C67.783 11.9022 67.0189 12.5342 66.0566 12.9871C66.3396 13.4399 66.6509 13.9588 66.9906 14.5437C67.3491 15.1097 67.7075 15.7229 68.066 16.3833C68.4245 17.0248 68.7736 17.6946 69.1132 18.3927C69.4717 19.072 69.8019 19.7418 70.1038 20.4022H67.6132C67.0472 19.0437 66.4245 17.7418 65.7453 16.4965C65.0849 15.2512 64.4434 14.2418 63.8208 13.4682C63.7075 13.4871 63.5377 13.4965 63.3113 13.4965C63.1038 13.4965 62.9623 13.4965 62.8868 13.4965H60.9057V20.4022H58.5566V3.138C58.8396 3.06253 59.1604 2.99649 59.5189 2.93989C59.8962 2.88329 60.2736 2.84555 60.6509 2.82668C61.0472 2.78895 61.434 2.76065 61.8113 2.74178C62.1887 2.72291 62.5283 2.71348 62.8302 2.71348C64.9434 2.71348 66.5283 3.17574 67.5849 4.10027C68.6604 5.0248 69.1981 6.40216 69.1981 8.23234ZM63.0283 4.72291C62.5943 4.72291 62.1698 4.73234 61.7547 4.75121C61.3585 4.75121 61.0755 4.77008 60.9057 4.80782V11.572H62.4057C63.0849 11.572 63.6887 11.5248 64.217 11.4305C64.7641 11.3361 65.2264 11.1663 65.6038 10.921C66 10.6569 66.3019 10.3078 66.5094 9.87385C66.717 9.42102 66.8207 8.83612 66.8207 8.11914C66.8207 7.43989 66.717 6.88329 66.5094 6.44932C66.3019 6.01536 66.0283 5.67574 65.6887 5.43046C65.3491 5.16631 64.9434 4.98706 64.4717 4.89272C64.0189 4.77951 63.5377 4.72291 63.0283 4.72291Z" fill="#4F46E5" fill-opacity="0.34"/>
  <path d="M11.717 43.8408C11.0566 44.2182 10.3491 44.4918 9.59434 44.6616C8.85849 44.8503 8.06604 44.9446 7.21698 44.9446C6.17925 44.9446 5.21698 44.7654 4.33019 44.4069C3.46226 44.0295 2.70755 43.4729 2.06604 42.7371C1.42453 41.9823 0.915094 41.0295 0.537736 39.8786C0.179245 38.7276 0 37.3691 0 35.8031C0 34.3125 0.188679 33.0012 0.566038 31.8691C0.962264 30.7371 1.49057 29.7842 2.15094 29.0106C2.81132 28.2371 3.58491 27.6522 4.4717 27.2559C5.35849 26.8597 6.30189 26.6616 7.30189 26.6616C8 26.6616 8.70755 26.7559 9.42453 26.9446C10.1604 27.1333 10.8774 27.4446 11.5755 27.8786L10.8962 29.8031C9.65094 29.0861 8.48113 28.7276 7.38679 28.7276C6.61321 28.7276 5.91509 28.8974 5.29245 29.2371C4.68868 29.5578 4.16981 30.0295 3.73585 30.6522C3.30189 31.2748 2.96226 32.0201 2.71698 32.888C2.49057 33.7559 2.37736 34.7276 2.37736 35.8031C2.37736 37.0106 2.5 38.0578 2.74528 38.9446C3.00943 39.8314 3.36792 40.5673 3.82075 41.1522C4.27359 41.7371 4.81132 42.171 5.43396 42.454C6.07547 42.7371 6.76415 42.8786 7.5 42.8786C8.04717 42.8786 8.62264 42.8125 9.22641 42.6805C9.83019 42.5295 10.4528 42.2748 11.0943 41.9163L11.717 43.8408Z" fill="black"/>
  <path d="M11.717 43.8408C11.0566 44.2182 10.3491 44.4918 9.59434 44.6616C8.85849 44.8503 8.06604 44.9446 7.21698 44.9446C6.17925 44.9446 5.21698 44.7654 4.33019 44.4069C3.46226 44.0295 2.70755 43.4729 2.06604 42.7371C1.42453 41.9823 0.915094 41.0295 0.537736 39.8786C0.179245 38.7276 0 37.3691 0 35.8031C0 34.3125 0.188679 33.0012 0.566038 31.8691C0.962264 30.7371 1.49057 29.7842 2.15094 29.0106C2.81132 28.2371 3.58491 27.6522 4.4717 27.2559C5.35849 26.8597 6.30189 26.6616 7.30189 26.6616C8 26.6616 8.70755 26.7559 9.42453 26.9446C10.1604 27.1333 10.8774 27.4446 11.5755 27.8786L10.8962 29.8031C9.65094 29.0861 8.48113 28.7276 7.38679 28.7276C6.61321 28.7276 5.91509 28.8974 5.29245 29.2371C4.68868 29.5578 4.16981 30.0295 3.73585 30.6522C3.30189 31.2748 2.96226 32.0201 2.71698 32.888C2.49057 33.7559 2.37736 34.7276 2.37736 35.8031C2.37736 37.0106 2.5 38.0578 2.74528 38.9446C3.00943 39.8314 3.36792 40.5673 3.82075 41.1522C4.27359 41.7371 4.81132 42.171 5.43396 42.454C6.07547 42.7371 6.76415 42.8786 7.5 42.8786C8.04717 42.8786 8.62264 42.8125 9.22641 42.6805C9.83019 42.5295 10.4528 42.2748 11.0943 41.9163L11.717 43.8408Z" fill="#4F46E5" fill-opacity="0.34"/>
  <path d="M14.0943 35.8031C14.0943 34.2371 14.2453 32.8786 14.5472 31.7276C14.8491 30.5767 15.2736 29.6333 15.8208 28.8974C16.3679 28.1427 17.0189 27.5861 17.7736 27.2276C18.5472 26.8503 19.4057 26.6616 20.3491 26.6616C21.2736 26.6616 22.1226 26.8503 22.8962 27.2276C23.6698 27.5861 24.3302 28.1427 24.8774 28.8974C25.4245 29.6333 25.8491 30.5767 26.1509 31.7276C26.4717 32.8786 26.6321 34.2371 26.6321 35.8031C26.6321 37.3691 26.4717 38.7276 26.1509 39.8786C25.8491 41.0295 25.4245 41.9823 24.8774 42.7371C24.3302 43.4918 23.6698 44.0484 22.8962 44.4069C22.1226 44.7654 21.2736 44.9446 20.3491 44.9446C19.4057 44.9446 18.5472 44.7654 17.7736 44.4069C17.0189 44.0484 16.3679 43.4918 15.8208 42.7371C15.2736 41.9823 14.8491 41.0295 14.5472 39.8786C14.2453 38.7276 14.0943 37.3691 14.0943 35.8031ZM16.4717 35.8031C16.4717 38.105 16.783 39.8691 17.4057 41.0956C18.0283 42.322 18.9906 42.9352 20.2925 42.9352C21.6132 42.9352 22.6038 42.322 23.2642 41.0956C23.9245 39.8691 24.2547 38.105 24.2547 35.8031C24.2547 33.5012 23.9245 31.7371 23.2642 30.5106C22.6038 29.2842 21.6132 28.671 20.2925 28.671C18.9906 28.671 18.0283 29.2842 17.4057 30.5106C16.783 31.7371 16.4717 33.5012 16.4717 35.8031Z" fill="black"/>
  <path d="M14.0943 35.8031C14.0943 34.2371 14.2453 32.8786 14.5472 31.7276C14.8491 30.5767 15.2736 29.6333 15.8208 28.8974C16.3679 28.1427 17.0189 27.5861 17.7736 27.2276C18.5472 26.8503 19.4057 26.6616 20.3491 26.6616C21.2736 26.6616 22.1226 26.8503 22.8962 27.2276C23.6698 27.5861 24.3302 28.1427 24.8774 28.8974C25.4245 29.6333 25.8491 30.5767 26.1509 31.7276C26.4717 32.8786 26.6321 34.2371 26.6321 35.8031C26.6321 37.3691 26.4717 38.7276 26.1509 39.8786C25.8491 41.0295 25.4245 41.9823 24.8774 42.7371C24.3302 43.4918 23.6698 44.0484 22.8962 44.4069C22.1226 44.7654 21.2736 44.9446 20.3491 44.9446C19.4057 44.9446 18.5472 44.7654 17.7736 44.4069C17.0189 44.0484 16.3679 43.4918 15.8208 42.7371C15.2736 41.9823 14.8491 41.0295 14.5472 39.8786C14.2453 38.7276 14.0943 37.3691 14.0943 35.8031ZM16.4717 35.8031C16.4717 38.105 16.783 39.8691 17.4057 41.0956C18.0283 42.322 18.9906 42.9352 20.2925 42.9352C21.6132 42.9352 22.6038 42.322 23.2642 41.0956C23.9245 39.8691 24.2547 38.105 24.2547 35.8031C24.2547 33.5012 23.9245 31.7371 23.2642 30.5106C22.6038 29.2842 21.6132 28.671 20.2925 28.671C18.9906 28.671 18.0283 29.2842 17.4057 30.5106C16.783 31.7371 16.4717 33.5012 16.4717 35.8031Z" fill="#4F46E5" fill-opacity="0.34"/>
  <path d="M34.9528 35.7748L37.6698 27.0578H39.8491C40.2264 29.8125 40.4906 32.6333 40.6415 35.5201C40.8113 38.4069 40.9623 41.4257 41.0943 44.5767H38.8302C38.8113 43.5578 38.7925 42.454 38.7736 41.2654C38.7547 40.0767 38.7264 38.8503 38.6887 37.5861C38.6698 36.322 38.6415 35.0389 38.6038 33.7371C38.5849 32.4352 38.5566 31.171 38.5189 29.9446L35.9717 37.9257H33.934L31.3302 29.9446C31.3113 31.171 31.283 32.4352 31.2453 33.7371C31.2264 35.0201 31.1981 36.3031 31.1604 37.5861C31.1415 38.8503 31.1132 40.0767 31.0755 41.2654C31.0566 42.454 31.0377 43.5578 31.0189 44.5767H28.7547C28.8113 43.1427 28.8774 41.671 28.9528 40.1616C29.0283 38.6522 29.1132 37.1522 29.2075 35.6616C29.3208 34.171 29.4434 32.6993 29.5755 31.2465C29.7264 29.7937 29.8868 28.3974 30.0566 27.0578H32.2075L34.9528 35.7748Z" fill="black"/>
  <path d="M34.9528 35.7748L37.6698 27.0578H39.8491C40.2264 29.8125 40.4906 32.6333 40.6415 35.5201C40.8113 38.4069 40.9623 41.4257 41.0943 44.5767H38.8302C38.8113 43.5578 38.7925 42.454 38.7736 41.2654C38.7547 40.0767 38.7264 38.8503 38.6887 37.5861C38.6698 36.322 38.6415 35.0389 38.6038 33.7371C38.5849 32.4352 38.5566 31.171 38.5189 29.9446L35.9717 37.9257H33.934L31.3302 29.9446C31.3113 31.171 31.283 32.4352 31.2453 33.7371C31.2264 35.0201 31.1981 36.3031 31.1604 37.5861C31.1415 38.8503 31.1132 40.0767 31.0755 41.2654C31.0566 42.454 31.0377 43.5578 31.0189 44.5767H28.7547C28.8113 43.1427 28.8774 41.671 28.9528 40.1616C29.0283 38.6522 29.1132 37.1522 29.2075 35.6616C29.3208 34.171 29.4434 32.6993 29.5755 31.2465C29.7264 29.7937 29.8868 28.3974 30.0566 27.0578H32.2075L34.9528 35.7748Z" fill="#4F46E5" fill-opacity="0.34"/>
  <path d="M49.0755 26.888C50.1132 26.888 51.0189 27.0201 51.7925 27.2842C52.5849 27.5484 53.2358 27.9257 53.7453 28.4163C54.2736 28.888 54.6604 29.454 54.9057 30.1144C55.1698 30.7748 55.3019 31.5106 55.3019 32.322C55.3019 34.1522 54.7642 35.5672 53.6887 36.5672C52.6132 37.5484 51 38.039 48.8491 38.039H46.8113V44.5767H44.4906V27.3125C44.8302 27.2371 45.1981 27.171 45.5943 27.1144C46.0094 27.0578 46.4151 27.0106 46.8113 26.9729C47.2264 26.9352 47.6226 26.9163 48 26.9163C48.3962 26.8974 48.7547 26.888 49.0755 26.888ZM49.2453 28.8974C48.7547 28.8974 48.283 28.9069 47.8302 28.9257C47.3774 28.9257 47.0377 28.9446 46.8113 28.9823V36.0578H48.7359C50.1509 36.0578 51.1981 35.7748 51.8774 35.2088C52.5755 34.6427 52.9245 33.7088 52.9245 32.4069C52.9245 30.0673 51.6981 28.8974 49.2453 28.8974Z" fill="black"/>
  <path d="M49.0755 26.888C50.1132 26.888 51.0189 27.0201 51.7925 27.2842C52.5849 27.5484 53.2358 27.9257 53.7453 28.4163C54.2736 28.888 54.6604 29.454 54.9057 30.1144C55.1698 30.7748 55.3019 31.5106 55.3019 32.322C55.3019 34.1522 54.7642 35.5672 53.6887 36.5672C52.6132 37.5484 51 38.039 48.8491 38.039H46.8113V44.5767H44.4906V27.3125C44.8302 27.2371 45.1981 27.171 45.5943 27.1144C46.0094 27.0578 46.4151 27.0106 46.8113 26.9729C47.2264 26.9352 47.6226 26.9163 48 26.9163C48.3962 26.8974 48.7547 26.888 49.0755 26.888ZM49.2453 28.8974C48.7547 28.8974 48.283 28.9069 47.8302 28.9257C47.3774 28.9257 47.0377 28.9446 46.8113 28.9823V36.0578H48.7359C50.1509 36.0578 51.1981 35.7748 51.8774 35.2088C52.5755 34.6427 52.9245 33.7088 52.9245 32.4069C52.9245 30.0673 51.6981 28.8974 49.2453 28.8974Z" fill="#4F46E5" fill-opacity="0.34"/>
  <path d="M57.8208 35.8031C57.8208 34.2371 57.9717 32.8786 58.2736 31.7276C58.5755 30.5767 59 29.6333 59.5472 28.8974C60.0943 28.1427 60.7453 27.5861 61.5 27.2276C62.2736 26.8503 63.1321 26.6616 64.0755 26.6616C65 26.6616 65.8491 26.8503 66.6226 27.2276C67.3962 27.5861 68.0566 28.1427 68.6038 28.8974C69.1509 29.6333 69.5755 30.5767 69.8774 31.7276C70.1981 32.8786 70.3585 34.2371 70.3585 35.8031C70.3585 37.3691 70.1981 38.7276 69.8774 39.8786C69.5755 41.0295 69.1509 41.9823 68.6038 42.7371C68.0566 43.4918 67.3962 44.0484 66.6226 44.4069C65.8491 44.7654 65 44.9446 64.0755 44.9446C63.1321 44.9446 62.2736 44.7654 61.5 44.4069C60.7453 44.0484 60.0943 43.4918 59.5472 42.7371C59 41.9823 58.5755 41.0295 58.2736 39.8786C57.9717 38.7276 57.8208 37.3691 57.8208 35.8031ZM60.1981 35.8031C60.1981 38.105 60.5094 39.8691 61.1321 41.0956C61.7547 42.322 62.717 42.9352 64.0189 42.9352C65.3396 42.9352 66.3302 42.322 66.9906 41.0956C67.6509 39.8691 67.9811 38.105 67.9811 35.8031C67.9811 33.5012 67.6509 31.7371 66.9906 30.5106C66.3302 29.2842 65.3396 28.671 64.0189 28.671C62.717 28.671 61.7547 29.2842 61.1321 30.5106C60.5094 31.7371 60.1981 33.5012 60.1981 35.8031Z" fill="black"/>
  <path d="M57.8208 35.8031C57.8208 34.2371 57.9717 32.8786 58.2736 31.7276C58.5755 30.5767 59 29.6333 59.5472 28.8974C60.0943 28.1427 60.7453 27.5861 61.5 27.2276C62.2736 26.8503 63.1321 26.6616 64.0755 26.6616C65 26.6616 65.8491 26.8503 66.6226 27.2276C67.3962 27.5861 68.0566 28.1427 68.6038 28.8974C69.1509 29.6333 69.5755 30.5767 69.8774 31.7276C70.1981 32.8786 70.3585 34.2371 70.3585 35.8031C70.3585 37.3691 70.1981 38.7276 69.8774 39.8786C69.5755 41.0295 69.1509 41.9823 68.6038 42.7371C68.0566 43.4918 67.3962 44.0484 66.6226 44.4069C65.8491 44.7654 65 44.9446 64.0755 44.9446C63.1321 44.9446 62.2736 44.7654 61.5 44.4069C60.7453 44.0484 60.0943 43.4918 59.5472 42.7371C59 41.9823 58.5755 41.0295 58.2736 39.8786C57.9717 38.7276 57.8208 37.3691 57.8208 35.8031ZM60.1981 35.8031C60.1981 38.105 60.5094 39.8691 61.1321 41.0956C61.7547 42.322 62.717 42.9352 64.0189 42.9352C65.3396 42.9352 66.3302 42.322 66.9906 41.0956C67.6509 39.8691 67.9811 38.105 67.9811 35.8031C67.9811 33.5012 67.6509 31.7371 66.9906 30.5106C66.3302 29.2842 65.3396 28.671 64.0189 28.671C62.717 28.671 61.7547 29.2842 61.1321 30.5106C60.5094 31.7371 60.1981 33.5012 60.1981 35.8031Z" fill="#4F46E5" fill-opacity="0.34"/>
  <path d="M78.1981 42.9352C79.3868 42.9352 80.2924 42.7088 80.9151 42.2559C81.5377 41.8031 81.8491 41.1239 81.8491 40.2182C81.8491 39.671 81.7358 39.2088 81.5094 38.8314C81.283 38.4352 80.9811 38.0956 80.6038 37.8125C80.2264 37.5106 79.8019 37.2559 79.3302 37.0484C78.8585 36.822 78.3773 36.6144 77.8868 36.4257C77.3207 36.1993 76.7736 35.9446 76.2453 35.6616C75.7358 35.3786 75.2736 35.0484 74.8585 34.671C74.4623 34.2937 74.1415 33.8503 73.8962 33.3408C73.6698 32.8314 73.5566 32.2276 73.5566 31.5295C73.5566 30.0012 74.0377 28.8125 75 27.9635C75.9623 27.0956 77.3019 26.6616 79.0189 26.6616C79.4906 26.6616 79.9528 26.6993 80.4057 26.7748C80.8773 26.8314 81.3113 26.9069 81.7075 27.0012C82.1038 27.0956 82.4528 27.2088 82.7547 27.3408C83.0755 27.4729 83.3302 27.605 83.5189 27.7371L82.783 29.6899C82.4057 29.4635 81.8868 29.2371 81.2264 29.0106C80.566 28.7842 79.8302 28.671 79.0189 28.671C78.1698 28.671 77.434 28.888 76.8113 29.322C76.1887 29.7371 75.8774 30.3691 75.8774 31.2182C75.8774 31.7088 75.9623 32.1239 76.1321 32.4635C76.3207 32.8031 76.566 33.105 76.8679 33.3691C77.1887 33.6144 77.5566 33.8408 77.9717 34.0484C78.3868 34.2559 78.8396 34.4635 79.3302 34.671C80.0472 34.9729 80.6981 35.2748 81.283 35.5767C81.8868 35.8786 82.3962 36.2371 82.8113 36.6522C83.2453 37.0672 83.5755 37.5578 83.8019 38.1239C84.0472 38.6899 84.1698 39.3786 84.1698 40.1899C84.1698 41.7182 83.6509 42.8974 82.6132 43.7276C81.5943 44.539 80.1226 44.9446 78.1981 44.9446C77.5755 44.9446 76.9906 44.8974 76.4434 44.8031C75.8962 44.7276 75.4057 44.6239 74.9717 44.4918C74.5566 44.3597 74.1887 44.2276 73.8679 44.0956C73.5472 43.9635 73.3019 43.8408 73.1321 43.7276L73.8396 41.8031C74.217 42.0106 74.7736 42.2559 75.5094 42.539C76.2453 42.8031 77.1415 42.9352 78.1981 42.9352Z" fill="black"/>
  <path d="M78.1981 42.9352C79.3868 42.9352 80.2924 42.7088 80.9151 42.2559C81.5377 41.8031 81.8491 41.1239 81.8491 40.2182C81.8491 39.671 81.7358 39.2088 81.5094 38.8314C81.283 38.4352 80.9811 38.0956 80.6038 37.8125C80.2264 37.5106 79.8019 37.2559 79.3302 37.0484C78.8585 36.822 78.3773 36.6144 77.8868 36.4257C77.3207 36.1993 76.7736 35.9446 76.2453 35.6616C75.7358 35.3786 75.2736 35.0484 74.8585 34.671C74.4623 34.2937 74.1415 33.8503 73.8962 33.3408C73.6698 32.8314 73.5566 32.2276 73.5566 31.5295C73.5566 30.0012 74.0377 28.8125 75 27.9635C75.9623 27.0956 77.3019 26.6616 79.0189 26.6616C79.4906 26.6616 79.9528 26.6993 80.4057 26.7748C80.8773 26.8314 81.3113 26.9069 81.7075 27.0012C82.1038 27.0956 82.4528 27.2088 82.7547 27.3408C83.0755 27.4729 83.3302 27.605 83.5189 27.7371L82.783 29.6899C82.4057 29.4635 81.8868 29.2371 81.2264 29.0106C80.566 28.7842 79.8302 28.671 79.0189 28.671C78.1698 28.671 77.434 28.888 76.8113 29.322C76.1887 29.7371 75.8774 30.3691 75.8774 31.2182C75.8774 31.7088 75.9623 32.1239 76.1321 32.4635C76.3207 32.8031 76.566 33.105 76.8679 33.3691C77.1887 33.6144 77.5566 33.8408 77.9717 34.0484C78.3868 34.2559 78.8396 34.4635 79.3302 34.671C80.0472 34.9729 80.6981 35.2748 81.283 35.5767C81.8868 35.8786 82.3962 36.2371 82.8113 36.6522C83.2453 37.0672 83.5755 37.5578 83.8019 38.1239C84.0472 38.6899 84.1698 39.3786 84.1698 40.1899C84.1698 41.7182 83.6509 42.8974 82.6132 43.7276C81.5943 44.539 80.1226 44.9446 78.1981 44.9446C77.5755 44.9446 76.9906 44.8974 76.4434 44.8031C75.8962 44.7276 75.4057 44.6239 74.9717 44.4918C74.5566 44.3597 74.1887 44.2276 73.8679 44.0956C73.5472 43.9635 73.3019 43.8408 73.1321 43.7276L73.8396 41.8031C74.217 42.0106 74.7736 42.2559 75.5094 42.539C76.2453 42.8031 77.1415 42.9352 78.1981 42.9352Z" fill="#4F46E5" fill-opacity="0.34"/>
  <path d="M88.7264 44.5767V27.0578H98.5472V29.0389H91.0472V34.4163H97.6132V36.3974H91.0472V42.5956H99.1698V44.5767H88.7264Z" fill="black"/>
  <path d="M88.7264 44.5767V27.0578H98.5472V29.0389H91.0472V34.4163H97.6132V36.3974H91.0472V42.5956H99.1698V44.5767H88.7264Z" fill="#4F46E5" fill-opacity="0.34"/>
</svg>
